FrauncesItalic-144ptS000Black.ufo
<glyph name="parenleft" format="2">
  <advance width="601"/>
  <unicode hex="0028"/>
  <guideline x="14" y="612" angle="0" identifier="7hbAFHCUbX"/>
  <outline>
    <contour>
      <point x="152" y="612" type="curve" smooth="yes"/>
      <point x="48" y="224"/>
      <point x="150" y="-60"/>
      <point x="374" y="-205" type="curve" smooth="yes"/>
      <point x="395" y="-218"/>
      <point x="406" y="-227"/>
      <point x="412" y="-223" type="curve" smooth="yes"/>
      <point x="415" y="-220"/>
      <point x="414" y="-214"/>
      <point x="402" y="-180" type="curve" smooth="yes"/>
      <point x="342" y="-4"/>
      <point x="339" y="270"/>
      <point x="431" y="612" type="curve" smooth="yes"/>
      <point x="523" y="954"/>
      <point x="671" y="1227"/>
      <point x="827" y="1404" type="curve" smooth="yes"/>
      <point x="857" y="1438"/>
      <point x="861" y="1444"/>
      <point x="859" y="1447" type="curve" smooth="yes"/>
      <point x="856" y="1451"/>
      <point x="840" y="1442"/>
      <point x="812" y="1429" type="curve" smooth="yes"/>
      <point x="510" y="1284"/>
      <point x="256" y="1000"/>
    </contour>
  </outline>
</glyph>
<glyph name="plus" format="2">
  <advance width="910"/>
  <unicode hex="002B"/>
  <outline>
    <contour>
      <point x="411" y="324" type="curve" smooth="yes"/>
      <point x="418" y="322"/>
      <point x="423" y="326"/>
      <point x="425" y="334" type="curve" smooth="yes"/>
      <point x="612" y="1031" type="line" smooth="yes"/>
      <point x="613" y="1037"/>
      <point x="611" y="1044"/>
      <point x="605" y="1046" type="curve" smooth="yes"/>
      <point x="599" y="1047"/>
      <point x="593" y="1042"/>
      <point x="592" y="1036" type="curve" smooth="yes"/>
      <point x="405" y="339" type="line" smooth="yes"/>
      <point x="403" y="332"/>
      <point x="405" y="325"/>
    </contour>
    <component base="minus" xOffset="-20" yOffset="10"/>
  </outline>
</glyph>
<glyph name="period" format="2">
  <advance width="551"/>
  <unicode hex="002E"/>
  <outline>
    <contour>
      <point x="184" y="-20" type="curve" smooth="yes"/>
      <point x="359" y="-20"/>
      <point x="451" y="90"/>
      <point x="451" y="199" type="curve" smooth="yes"/>
      <point x="451" y="283"/>
      <point x="392" y="346"/>
      <point x="283" y="346" type="curve" smooth="yes"/>
      <point x="124" y="346"/>
      <point x="20" y="245"/>
      <point x="20" y="126" type="curve" smooth="yes"/>
      <point x="20" y="40"/>
      <point x="81" y="-20"/>
    </contour>
  </outline>
</glyph>
<glyph name="slash" format="2">
  <advance width="775"/>
  <unicode hex="002F"/>
  <outline>
    <contour>
      <point x="411" y="604" type="curve" smooth="yes"/>
      <point x="506.9115559524" y="790.8277183655"/>
      <point x="742.1109949229" y="1227.2145280023"/>
      <point x="861" y="1457" type="curve" smooth="yes"/>
      <point x="868" y="1475"/>
      <point x="867" y="1486"/>
      <point x="856" y="1491" type="curve" smooth="yes"/>
      <point x="843" y="1497"/>
      <point x="832" y="1489"/>
      <point x="823" y="1472" type="curve" smooth="yes"/>
      <point x="721" y="1276"/>
      <point x="492.3426977967" y="812.6656245666"/>
      <point x="388" y="610" type="curve" smooth="yes"/>
      <point x="286.0961881122" y="412.1867181001"/>
      <point x="43" y="-37"/>
      <point x="-54" y="-230" type="curve" smooth="yes"/>
      <point x="-63" y="-248"/>
      <point x="-60" y="-259"/>
      <point x="-49" y="-264" type="curve" smooth="yes"/>
      <point x="-36" y="-270"/>
      <point x="-25" y="-263"/>
      <point x="-15" y="-243" type="curve" smooth="yes"/>
      <point x="101" y="-16"/>
      <point x="313.9019875982" y="417.8120586934"/>
    </contour>
  </outline>
</glyph>
<glyph name="zero" format="2">
  <advance width="1334"/>
  <unicode hex="0030"/>
  <outline>
    <contour>
      <point x="927.397" y="1424" type="curve" smooth="yes"/>
      <point x="558.397" y="1424"/>
      <point x="243.093" y="1155"/>
      <point x="131.511" y="730" type="curve" smooth="yes"/>
      <point x="29.354" y="338"/>
      <point x="160.603" y="-20"/>
      <point x="531.603" y="-20" type="curve" smooth="yes"/>
      <point x="907.603" y="-20"/>
      <point x="1221.872" y="251"/>
      <point x="1333.401" y="679" type="curve" smooth="yes"/>
      <point x="1435.594" y="1069"/>
      <point x="1306.397" y="1424"/>
    </contour>
    <contour>
      <point x="904.86" y="710" type="curve" smooth="yes"/>
      <point x="792.68" y="262"/>
      <point x="657.184" y="4"/>
      <point x="540.184" y="4" type="curve" smooth="yes"/>
      <point x="432.184" y="4"/>
      <point x="420.757" y="143"/>
      <point x="569.424" y="735" type="curve" smooth="yes"/>
      <point x="671.302" y="1143"/>
      <point x="809.816" y="1400"/>
      <point x="921.816" y="1400" type="curve" smooth="yes"/>
      <point x="1029.816" y="1400"/>
      <point x="1040.4" y="1252"/>
    </contour>
  </outline>
</glyph>
<glyph name="two" format="2">
  <advance width="1216"/>
  <unicode hex="0032"/>
  <outline>
    <contour>
      <point x="207" y="373" type="line"/>
      <point x="614" y="528" type="line" smooth="yes"/>
      <point x="1046.525" y="692.721"/>
      <point x="1255.496" y="849.136"/>
      <point x="1313" y="1062" type="curve" smooth="yes"/>
      <point x="1370.595" y="1277.222"/>
      <point x="1240" y="1424"/>
      <point x="934" y="1424" type="curve" smooth="yes"/>
      <point x="535" y="1424"/>
      <point x="299.502" y="1220.86"/>
      <point x="245" y="1019" type="curve" smooth="yes"/>
      <point x="214" y="904"/>
      <point x="267" y="840"/>
      <point x="380" y="840" type="curve" smooth="yes"/>
      <point x="481" y="840"/>
      <point x="587" y="922"/>
      <point x="622" y="1054" type="curve" smooth="yes"/>
      <point x="668" y="1224" type="line" smooth="yes"/>
      <point x="700.728" y="1344.951"/>
      <point x="759" y="1398"/>
      <point x="838" y="1398" type="curve" smooth="yes"/>
      <point x="907" y="1398"/>
      <point x="941" y="1314"/>
      <point x="869" y="1043" type="curve" smooth="yes"/>
      <point x="788" y="736"/>
      <point x="597" y="550"/>
      <point x="389" y="465" type="curve" smooth="yes"/>
      <point x="204" y="389" type="line"/>
    </contour>
    <contour>
      <point x="-16" y="146" type="curve" smooth="yes"/>
      <point x="-41" y="51"/>
      <point x="-9" y="-20"/>
      <point x="75" y="-20" type="curve" smooth="yes"/>
      <point x="188" y="-20"/>
      <point x="281" y="44"/>
      <point x="369" y="308" type="curve" smooth="yes"/>
      <point x="398.052" y="396.125"/>
      <point x="415" y="418"/>
      <point x="429" y="418" type="curve" smooth="yes"/>
      <point x="442" y="418"/>
      <point x="446.241" y="406.746"/>
      <point x="450" y="356" type="curve" smooth="yes"/>
      <point x="475" y="54"/>
      <point x="539" y="-20"/>
      <point x="711" y="-20" type="curve" smooth="yes"/>
      <point x="909" y="-20"/>
      <point x="1077" y="100"/>
      <point x="1211" y="512" type="curve" smooth="yes"/>
      <point x="1213" y="518"/>
      <point x="1213" y="522"/>
      <point x="1209" y="523" type="curve" smooth="yes"/>
      <point x="1206" y="524"/>
      <point x="1202" y="521"/>
      <point x="1198" y="514" type="curve" smooth="yes"/>
      <point x="1135" y="410"/>
      <point x="1074" y="370"/>
      <point x="962" y="370" type="curve" smooth="yes"/>
      <point x="826" y="370"/>
      <point x="664" y="438"/>
      <point x="474" y="438" type="curve" smooth="yes"/>
      <point x="206" y="438"/>
      <point x="34" y="331"/>
    </contour>
  </outline>
</glyph>
<glyph name="three" format="2">
  <advance width="1148"/>
  <unicode hex="0033"/>
  <outline>
    <contour>
      <point x="540.68" y="744" type="line"/>
      <point x="1305.08" y="1367" type="line" smooth="yes"/>
      <point x="1314.88" y="1375"/>
      <point x="1321.74" y="1382"/>
      <point x="1321.74" y="1389" type="curve" smooth="yes"/>
      <point x="1321.74" y="1395"/>
      <point x="1316.84" y="1400"/>
      <point x="1304.1" y="1400" type="curve" smooth="yes"/>
      <point x="436.8" y="1400" type="line" smooth="yes"/>
      <point x="421.12" y="1400"/>
      <point x="409.36" y="1390"/>
      <point x="401.52" y="1369" type="curve" smooth="yes"/>
      <point x="240.8" y="938" type="line" smooth="yes"/>
      <point x="236.88" y="928"/>
      <point x="237.86" y="922"/>
      <point x="243.74" y="921" type="curve" smooth="yes"/>
      <point x="249.62" y="920"/>
      <point x="253.54" y="924"/>
      <point x="258.44" y="932" type="curve" smooth="yes"/>
      <point x="314.3" y="1034" type="line" smooth="yes"/>
      <point x="321.16" y="1047"/>
      <point x="332.92" y="1051"/>
      <point x="361.34" y="1051" type="curve" smooth="yes"/>
      <point x="898.38" y="1051" type="line"/>
      <point x="916.02" y="1081" type="line"/>
      <point x="527.94" y="764" type="line" smooth="yes"/>
      <point x="513.24" y="752"/>
      <point x="504.42" y="746"/>
      <point x="504.42" y="740" type="curve" smooth="yes"/>
      <point x="504.42" y="735"/>
      <point x="507.36" y="733"/>
      <point x="516.18" y="733" type="curve" smooth="yes"/>
      <point x="548.52" y="733" type="line" smooth="yes"/>
      <point x="672.98" y="733"/>
      <point x="733.74" y="603"/>
      <point x="664.16" y="342" type="curve" smooth="yes"/>
      <point x="596.54" y="88"/>
      <point x="503.44" y="1"/>
      <point x="420.14" y="1" type="curve" smooth="yes"/>
      <point x="329" y="1"/>
      <point x="282.94" y="53"/>
      <point x="319.2" y="180" type="curve" smooth="yes"/>
      <point x="339.78" y="252" type="line" smooth="yes"/>
      <point x="372.12" y="364"/>
      <point x="310.38" y="469"/>
      <point x="190.82" y="469" type="curve" smooth="yes"/>
      <point x="99.68" y="469"/>
      <point x="22.26" y="396"/>
      <point x="22.26" y="275" type="curve" smooth="yes"/>
      <point x="22.26" y="130"/>
      <point x="144.76" y="-20"/>
      <point x="432.88" y="-20" type="curve" smooth="yes"/>
      <point x="762.16" y="-20"/>
      <point x="1012.06" y="130"/>
      <point x="1079.68" y="355" type="curve" smooth="yes"/>
      <point x="1160.04" y="621"/>
      <point x="969.92" y="783"/>
      <point x="596.54" y="759" type="curve" smooth="yes"/>
      <point x="575.96" y="758"/>
      <point x="543.62" y="755"/>
      <point x="529.9" y="753" type="curve"/>
    </contour>
  </outline>
</glyph>
<glyph name="less" format="2">
  <advance width="863"/>
  <unicode hex="003C"/>
  <outline>
    <contour>
      <point x="147" y="682" type="line"/>
      <point x="734" y="273" type="line" smooth="yes"/>
      <point x="736.752" y="271.083"/>
      <point x="739.767" y="267.068"/>
      <point x="739" y="264" type="curve" smooth="yes"/>
      <point x="738" y="260"/>
      <point x="735" y="258"/>
      <point x="731" y="258" type="curve" smooth="yes"/>
      <point x="727" y="258"/>
      <point x="724" y="260"/>
      <point x="720" y="262" type="curve" smooth="yes"/>
      <point x="139" y="665" type="line" smooth="yes"/>
      <point x="131" y="671"/>
      <point x="128" y="675"/>
      <point x="130" y="683" type="curve" smooth="yes"/>
      <point x="132" y="691"/>
      <point x="137" y="695"/>
      <point x="149" y="701" type="curve" smooth="yes"/>
      <point x="932" y="1101" type="line" smooth="yes"/>
      <point x="939" y="1105"/>
      <point x="943" y="1105"/>
      <point x="945" y="1105" type="curve" smooth="yes"/>
      <point x="951" y="1105"/>
      <point x="953" y="1103"/>
      <point x="951" y="1099" type="curve" smooth="yes"/>
      <point x="949.716" y="1093.863"/>
      <point x="946.762" y="1089.974"/>
      <point x="939" y="1086" type="curve" smooth="yes"/>
      <point x="146" y="680" type="line"/>
    </contour>
  </outline>
</glyph>
<glyph name="A" format="2">
  <advance width="1261"/>
  <unicode hex="0041"/>
  <anchor x="1019" y="1532.0" name="center"/>
  <outline>
    <contour>
      <point x="145" y="59"/>
      <point x="102" y="163"/>
      <point x="183" y="291" type="curve" smooth="yes"/>
      <point x="663" y="1049" type="line" smooth="yes"/>
      <point x="722" y="1142"/>
      <point x="730" y="1152"/>
      <point x="732" y="1154" type="curve"/>
      <point x="711" y="1152" type="line"/>
      <point x="706" y="999"/>
      <point x="676" y="214"/>
      <point x="672" y="86" type="curve" smooth="yes"/>
      <point x="671" y="58"/>
      <point x="656" y="32"/>
      <point x="626" y="28" type="curve" smooth="yes"/>
      <point x="547" y="17" type="line" smooth="yes"/>
      <point x="538" y="16"/>
      <point x="534" y="13"/>
      <point x="534" y="8" type="curve" smooth="yes"/>
      <point x="534" y="3"/>
      <point x="538" y="0"/>
      <point x="546" y="0" type="curve" smooth="yes"/>
      <point x="1157" y="0" type="line" smooth="yes"/>
      <point x="1168" y="0"/>
      <point x="1173" y="3"/>
      <point x="1173" y="9" type="curve" smooth="yes"/>
      <point x="1173" y="14"/>
      <point x="1168" y="17"/>
      <point x="1155" y="19" type="curve" smooth="yes"/>
      <point x="1080" y="29"/>
      <point x="1071" y="44"/>
      <point x="1072" y="108" type="curve" smooth="yes"/>
      <point x="1074" y="222"/>
      <point x="1086" y="1165"/>
      <point x="1091" y="1283" type="curve" smooth="yes"/>
      <point x="1094" y="1360"/>
      <point x="1134" y="1399"/>
      <point x="1211" y="1399" type="curve" smooth="yes"/>
      <point x="1221" y="1399"/>
      <point x="1225" y="1404"/>
      <point x="1225" y="1408" type="curve" smooth="yes"/>
      <point x="1225" y="1415"/>
      <point x="1220" y="1417"/>
      <point x="1203" y="1417" type="curve" smooth="yes"/>
      <point x="991" y="1417"/>
      <point x="796" y="1306"/>
      <point x="648" y="1071" type="curve" smooth="yes"/>
      <point x="164" y="306" type="line" smooth="yes"/>
      <point x="74" y="163"/>
      <point x="-27" y="64"/>
      <point x="-101" y="27" type="curve" smooth="yes"/>
      <point x="-122" y="16"/>
      <point x="-130" y="14"/>
      <point x="-130" y="6" type="curve" smooth="yes"/>
      <point x="-130" y="2"/>
      <point x="-126" y="0"/>
      <point x="-118" y="0" type="curve" smooth="yes"/>
      <point x="308" y="0" type="line" smooth="yes"/>
      <point x="317" y="0"/>
      <point x="322" y="3"/>
      <point x="322" y="8" type="curve" smooth="yes"/>
      <point x="322" y="14"/>
      <point x="318" y="16"/>
      <point x="309" y="18" type="curve" smooth="yes"/>
      <point x="277" y="26" type="line" smooth="yes"/>
    </contour>
    <contour>
      <point x="260" y="445" type="line"/>
      <point x="786" y="445" type="line"/>
      <point x="784" y="469" type="line"/>
      <point x="274" y="469" type="line"/>
    </contour>
  </outline>
</glyph>
<glyph name="J" format="2">
  <advance width="804"/>
  <unicode hex="004A"/>
  <anchor x="708" y="1468" name="center"/>
  <outline>
    <contour>
      <point x="840" y="1324" type="curve" smooth="yes"/>
      <point x="848" y="1350"/>
      <point x="861" y="1369"/>
      <point x="883" y="1372" type="curve" smooth="yes"/>
      <point x="962" y="1383" type="line" smooth="yes"/>
      <point x="972" y="1384"/>
      <point x="975" y="1389"/>
      <point x="975" y="1393" type="curve" smooth="yes"/>
      <point x="975" y="1397"/>
      <point x="972" y="1400"/>
      <point x="963" y="1400" type="curve" smooth="yes"/>
      <point x="323" y="1400" type="line" smooth="yes"/>
      <point x="314" y="1400"/>
      <point x="309" y="1397"/>
      <point x="309" y="1392" type="curve" smooth="yes"/>
      <point x="309" y="1387"/>
      <point x="311" y="1383"/>
      <point x="322" y="1382" type="curve" smooth="yes"/>
      <point x="396" y="1372" type="line" smooth="yes"/>
      <point x="431" y="1367"/>
      <point x="438" y="1352"/>
      <point x="425" y="1306" type="curve" smooth="yes"/>
      <point x="415.0073244556" y="1270.02636804"/>
      <point x="195.9609115472" y="448.8501609309"/>
      <point x="136" y="219" type="curve" smooth="yes"/>
      <point x="77.3855448066" y="-6.6656524946"/>
      <point x="320" y="-111.3873873874"/>
      <point x="320" y="-215" type="curve" smooth="yes"/>
      <point x="320" y="-252"/>
      <point x="297" y="-271"/>
      <point x="267" y="-271" type="curve" smooth="yes"/>
      <point x="174.3089700997" y="-271"/>
      <point x="88" y="-127"/>
      <point x="-33" y="-127" type="curve" smooth="yes"/>
      <point x="-108" y="-127"/>
      <point x="-156" y="-176"/>
      <point x="-156" y="-244" type="curve" smooth="yes"/>
      <point x="-156" y="-319"/>
      <point x="-93" y="-375"/>
      <point x="26" y="-375" type="curve" smooth="yes"/>
      <point x="240" y="-375"/>
      <point x="449" y="-249"/>
      <point x="508" y="38" type="curve" smooth="yes"/>
      <point x="519.9954588114" y="94.9784293541"/>
      <point x="830.0100900745" y="1296.0282522086"/>
    </contour>
  </outline>
</glyph>
<glyph name="S" format="2">
  <advance width="1136"/>
  <unicode hex="0053"/>
  <anchor x="844" y="1528" name="center"/>
  <outline>
    <contour>
      <point x="532" y="-20" type="curve" smooth="yes"/>
      <point x="783" y="-20"/>
      <point x="981" y="108"/>
      <point x="1020" y="293" type="curve" smooth="yes"/>
      <point x="1056" y="463"/>
      <point x="999" y="617"/>
      <point x="750" y="820" type="curve" smooth="yes"/>
      <point x="606" y="937"/>
      <point x="566" y="1029"/>
      <point x="586" y="1180" type="curve" smooth="yes"/>
      <point x="601" y="1298"/>
      <point x="688" y="1400"/>
      <point x="807" y="1400" type="curve" smooth="yes"/>
      <point x="887" y="1400"/>
      <point x="934" y="1349"/>
      <point x="961" y="1193" type="curve" smooth="yes"/>
      <point x="983" y="1066" type="line" smooth="yes"/>
      <point x="999" y="973"/>
      <point x="1027" y="929"/>
      <point x="1087" y="929" type="curve" smooth="yes"/>
      <point x="1171" y="929"/>
      <point x="1226" y="995"/>
      <point x="1233" y="1102" type="curve" smooth="yes"/>
      <point x="1245" y="1265"/>
      <point x="1139" y="1424"/>
      <point x="835" y="1424" type="curve" smooth="yes"/>
      <point x="464" y="1424"/>
      <point x="223" y="1218"/>
      <point x="199" y="965" type="curve" smooth="yes"/>
      <point x="182" y="788"/>
      <point x="240" y="663"/>
      <point x="437" y="526" type="curve" smooth="yes"/>
      <point x="601" y="412"/>
      <point x="645" y="295"/>
      <point x="612" y="168" type="curve" smooth="yes"/>
      <point x="586.6368721777915" y="71.24436423379717"/>
      <point x="523.0" y="24.0"/>
      <point x="432" y="24" type="curve" smooth="yes"/>
      <point x="321.0" y="24.0"/>
      <point x="228.38382087453988" y="107.28188618600231"/>
      <point x="199" y="256" type="curve" smooth="yes"/>
      <point x="150" y="504" type="line" smooth="yes"/>
      <point x="147" y="518"/>
      <point x="145" y="523"/>
      <point x="139" y="523" type="curve" smooth="yes"/>
      <point x="132" y="523"/>
      <point x="130" y="517"/>
      <point x="126" y="501" type="curve" smooth="yes"/>
      <point x="5" y="26" type="line" smooth="yes"/>
      <point x="2" y="14"/>
      <point x="5" y="8"/>
      <point x="13" y="8" type="curve" smooth="yes"/>
      <point x="30.121951219512194" y="8.0"/>
      <point x="189" y="133.0"/>
      <point x="208" y="133" type="curve" smooth="yes"/>
      <point x="225" y="133.0"/>
      <point x="269.9108280254777" y="-20.0"/>
    </contour>
  </outline>
</glyph>
<glyph name="f" format="2">
  <advance width="610"/>
  <unicode hex="0066"/>
  <outline>
    <contour>
      <point x="445" y="872" type="line"/>
      <point x="697" y="872" type="line" smooth="yes"/>
      <point x="709" y="872"/>
      <point x="717" y="876"/>
      <point x="717" y="885" type="curve" smooth="yes"/>
      <point x="717" y="891"/>
      <point x="712" y="896"/>
      <point x="702" y="896" type="curve" smooth="yes"/>
      <point x="455" y="896" type="line"/>
    </contour>
    <contour>
      <point x="128" y="884" type="curve" smooth="yes"/>
      <point x="128" y="877"/>
      <point x="132" y="872"/>
      <point x="144" y="872" type="curve" smooth="yes"/>
      <point x="215" y="872"/>
      <point x="234" y="843"/>
      <point x="203" y="726" type="curve" smooth="yes"/>
      <point x="-56" y="-239" type="line" smooth="yes"/>
      <point x="-93" y="-378"/>
      <point x="-72" y="-426"/>
      <point x="35" y="-426" type="curve" smooth="yes"/>
      <point x="219" y="-426"/>
      <point x="384" y="-340"/>
      <point x="384" y="-303" type="curve" smooth="yes"/>
      <point x="384" y="-280"/>
      <point x="314" y="-270"/>
      <point x="314" y="-208" type="curve" smooth="yes"/>
      <point x="314" y="-187"/>
      <point x="318" y="-162"/>
      <point x="329" y="-121" type="curve" smooth="yes"/>
      <point x="592" y="878" type="line" smooth="yes"/>
      <point x="633.4783628448347" y="1035.55469384787"/>
      <point x="402.9756558751443" y="1208.8396151774214"/>
      <point x="420" y="1321" type="curve" smooth="yes"/>
      <point x="424" y="1346"/>
      <point x="437" y="1361.0"/>
      <point x="459" y="1361.0" type="curve" smooth="yes"/>
      <point x="513" y="1361.0"/>
      <point x="563.0" y="1227.0"/>
      <point x="682" y="1227" type="curve" smooth="yes"/>
      <point x="769.0" y="1227.0"/>
      <point x="824.0" y="1279.9375"/>
      <point x="824" y="1348" type="curve" smooth="yes"/>
      <point x="824.0" y="1412.2595419847328"/>
      <point x="770.0" y="1470.0"/>
      <point x="663" y="1470" type="curve" smooth="yes"/>
      <point x="494.0" y="1470.0"/>
      <point x="382.06329454745924" y="1388.7261345055967"/>
      <point x="325" y="1179" type="curve" smooth="yes"/>
      <point x="248" y="896" type="line"/>
      <point x="144" y="896" type="line" smooth="yes"/>
      <point x="132" y="896"/>
      <point x="128" y="891"/>
    </contour>
  </outline>
</glyph>
<glyph name="h" format="2">
  <advance width="1136"/>
  <unicode hex="0068"/>
  <anchor x="471" y="980" name="center"/>
  <outline>
    <contour>
      <point x="431" y="390" type="curve"/>
      <point x="399" y="300"/>
      <point x="394" y="191"/>
      <point x="394" y="152" type="curve" smooth="yes"/>
      <point x="394" y="120"/>
      <point x="414" y="106"/>
      <point x="414" y="78" type="curve" smooth="yes"/>
      <point x="414" y="18"/>
      <point x="308" y="-20"/>
      <point x="112" y="-20" type="curve" smooth="yes"/>
      <point x="-7" y="-20"/>
      <point x="-18" y="14"/>
      <point x="9" y="114" type="curve" smooth="yes"/>
      <point x="218" y="896" type="line" smooth="yes"/>
      <point x="314" y="1256"/>
      <point x="549" y="1470"/>
      <point x="916" y="1470" type="curve" smooth="yes"/>
      <point x="1101" y="1470"/>
      <point x="1202.0" y="1404.0"/>
      <point x="1202" y="1316" type="curve" smooth="yes"/>
      <point x="1202.0" y="1259.0"/>
      <point x="1159.3839285714287" y="1212.0"/>
      <point x="1091" y="1212" type="curve" smooth="yes"/>
      <point x="957" y="1212"/>
      <point x="873.6500000000001" y="1422.0"/>
      <point x="769" y="1422" type="curve" smooth="yes"/>
      <point x="736.3928571428571" y="1422.0"/>
      <point x="708.4280269811711" y="1393.2424965326345"/>
      <point x="686" y="1313" type="curve" smooth="yes"/>
      <point x="461" y="508" type="line"/>
      <point x="453" y="510" type="line"/>
      <point x="598" y="823"/>
      <point x="808" y="916"/>
      <point x="946" y="916" type="curve" smooth="yes"/>
      <point x="1079" y="916"/>
      <point x="1128" y="829"/>
      <point x="1083" y="678" type="curve" smooth="yes"/>
      <point x="954" y="242" type="line" smooth="yes"/>
      <point x="922" y="134"/>
      <point x="936" y="106"/>
      <point x="964" y="106" type="curve" smooth="yes"/>
      <point x="990" y="106"/>
      <point x="1016" y="126"/>
      <point x="1057" y="182" type="curve" smooth="yes"/>
      <point x="1069" y="198"/>
      <point x="1070" y="200"/>
      <point x="1075" y="200" type="curve" smooth="yes"/>
      <point x="1081" y="200"/>
      <point x="1082" y="190"/>
      <point x="1073" y="170" type="curve" smooth="yes"/>
      <point x="1025" y="64"/>
      <point x="909" y="-20"/>
      <point x="717" y="-20" type="curve" smooth="yes"/>
      <point x="562" y="-20"/>
      <point x="543" y="53"/>
      <point x="589" y="206" type="curve" smooth="yes"/>
      <point x="706" y="597" type="line" smooth="yes"/>
      <point x="739" y="708"/>
      <point x="730" y="737"/>
      <point x="683" y="737" type="curve" smooth="yes"/>
      <point x="627" y="737"/>
      <point x="519" y="636"/>
    </contour>
  </outline>
</glyph>
<glyph name="l" format="2">
  <advance width="590"/>
  <unicode hex="006C"/>
  <anchor x="607" y="1098" name="right"/>
  <anchor x="175" y="1593" name="center"/>
  <outline>
    <contour>
      <point x="658" y="1470" type="curve" smooth="yes"/>
      <point x="480" y="1470"/>
      <point x="357" y="1389"/>
      <point x="299" y="1179" type="curve" smooth="yes"/>
      <point x="32" y="206" type="line" smooth="yes"/>
      <point x="-8" y="61"/>
      <point x="17" y="-20"/>
      <point x="171" y="-20" type="curve" smooth="yes"/>
      <point x="345" y="-20"/>
      <point x="469" y="64"/>
      <point x="517" y="170" type="curve" smooth="yes"/>
      <point x="526" y="190"/>
      <point x="525" y="200"/>
      <point x="519" y="200" type="curve" smooth="yes"/>
      <point x="514" y="200"/>
      <point x="513" y="198"/>
      <point x="501" y="182" type="curve" smooth="yes"/>
      <point x="460" y="126"/>
      <point x="434" y="106"/>
      <point x="408" y="106" type="curve" smooth="yes"/>
      <point x="380" y="106"/>
      <point x="368" y="132"/>
      <point x="398" y="242" type="curve" smooth="yes"/>
      <point x="558" y="833" type="line" smooth="yes"/>
      <point x="643" y="1148"/>
      <point x="398" y="1211"/>
      <point x="398" y="1310" type="curve" smooth="yes"/>
      <point x="398" y="1340"/>
      <point x="417" y="1361"/>
      <point x="445" y="1361" type="curve" smooth="yes"/>
      <point x="509" y="1361"/>
      <point x="636" y="1247"/>
      <point x="737" y="1247" type="curve" smooth="yes"/>
      <point x="808" y="1247"/>
      <point x="851" y="1291"/>
      <point x="851" y="1348" type="curve" smooth="yes"/>
      <point x="851" y="1414"/>
      <point x="786" y="1470"/>
    </contour>
  </outline>
</glyph>
<glyph name="o" format="2">
  <advance width="1050"/>
  <unicode hex="006F"/>
  <guideline x="578" y="661" angle="74.5" identifier="jN8G30XBZ4"/>
  <anchor x="672" y="1000" name="center"/>
  <outline>
    <contour>
      <point x="610" y="926" type="curve" smooth="yes"/>
      <point x="272" y="926"/>
      <point x="61" y="699"/>
      <point x="30" y="398" type="curve" smooth="yes"/>
      <point x="5" y="147"/>
      <point x="180" y="-20"/>
      <point x="428" y="-20" type="curve" smooth="yes"/>
      <point x="791" y="-20"/>
      <point x="991" y="217"/>
      <point x="1021" y="507" type="curve" smooth="yes"/>
      <point x="1046" y="759"/>
      <point x="875" y="926"/>
    </contour>
    <contour>
      <point x="428" y="17" type="curve" smooth="yes"/>
      <point x="391" y="17"/>
      <point x="367" y="37"/>
      <point x="368" y="123" type="curve" smooth="yes"/>
      <point x="373" y="385"/>
      <point x="517" y="889"/>
      <point x="623" y="889" type="curve" smooth="yes"/>
      <point x="659" y="889"/>
      <point x="684" y="869"/>
      <point x="683" y="783" type="curve" smooth="yes"/>
      <point x="678" y="521"/>
      <point x="532" y="17"/>
    </contour>
  </outline>
</glyph>
<glyph name="p" format="2">
  <advance width="1114"/>
  <unicode hex="0070"/>
  <outline>
    <contour>
      <point x="645" y="1103" type="line" smooth="yes"/>
      <point x="649" y="1119"/>
      <point x="644" y="1122"/>
      <point x="635" y="1122" type="curve" smooth="yes"/>
      <point x="606" y="1122"/>
      <point x="274" y="990"/>
      <point x="262" y="948" type="curve" smooth="yes"/>
      <point x="-103" y="-368" type="line" smooth="yes"/>
      <point x="-120" y="-431"/>
      <point x="-121" y="-440"/>
      <point x="-203" y="-454" type="curve" smooth="yes"/>
      <point x="-212" y="-456"/>
      <point x="-216" y="-459"/>
      <point x="-216" y="-464" type="curve" smooth="yes"/>
      <point x="-216" y="-469"/>
      <point x="-212" y="-471"/>
      <point x="-204" y="-471" type="curve" smooth="yes"/>
      <point x="356" y="-464" type="line" smooth="yes"/>
      <point x="367" y="-464"/>
      <point x="372" y="-461"/>
      <point x="372" y="-455" type="curve" smooth="yes"/>
      <point x="372" y="-450"/>
      <point x="367" y="-447"/>
      <point x="354" y="-445" type="curve" smooth="yes"/>
      <point x="281" y="-435" type="line" smooth="yes"/>
      <point x="232" y="-428"/>
      <point x="250" y="-400"/>
      <point x="266" y="-340" type="curve" smooth="yes"/>
    </contour>
    <contour>
      <point x="104" y="694" type="curve" smooth="yes"/>
      <point x="245" y="830"/>
      <point x="410" y="899"/>
      <point x="601" y="899" type="curve" smooth="yes"/>
      <point x="692" y="899"/>
      <point x="752" y="787"/>
      <point x="696" y="495" type="curve" smooth="yes"/>
      <point x="635" y="175"/>
      <point x="524" y="41"/>
      <point x="421" y="41" type="curve" smooth="yes"/>
      <point x="369" y="41"/>
      <point x="329" y="72"/>
      <point x="296" y="130" type="curve"/>
      <point x="275" y="123" type="line"/>
      <point x="319" y="41"/>
      <point x="392" y="-10"/>
      <point x="525" y="-10" type="curve" smooth="yes"/>
      <point x="797" y="-10.0"/>
      <point x="1034" y="183"/>
      <point x="1067" y="474" type="curve" smooth="yes"/>
      <point x="1097" y="739"/>
      <point x="945" y="926"/>
      <point x="659" y="926" type="curve" smooth="yes"/>
      <point x="363" y="926"/>
      <point x="219" y="833"/>
      <point x="90" y="713" type="curve" smooth="yes"/>
      <point x="83" y="706"/>
      <point x="81" y="698"/>
      <point x="86" y="693" type="curve" smooth="yes"/>
      <point x="90" y="689"/>
      <point x="98" y="688"/>
    </contour>
  </outline>
</glyph>
<glyph name="s" format="2">
  <advance width="896"/>
  <unicode hex="0073"/>
  <anchor x="594" y="1004" name="center"/>
  <outline>
    <contour>
      <point x="347" y="5" type="curve" smooth="yes"/>
      <point x="286" y="5"/>
      <point x="259" y="38"/>
      <point x="240" y="130" type="curve" smooth="yes"/>
      <point x="211" y="267"/>
      <point x="171" y="322"/>
      <point x="87" y="322" type="curve" smooth="yes"/>
      <point x="22" y="322"/>
      <point x="-13" y="267"/>
      <point x="-13" y="198" type="curve" smooth="yes"/>
      <point x="-14" y="87"/>
      <point x="86" y="-20"/>
      <point x="337" y="-20" type="curve" smooth="yes"/>
      <point x="594" y="-20"/>
      <point x="772" y="97"/>
      <point x="801" y="253" type="curve" smooth="yes"/>
      <point x="820" y="357"/>
      <point x="767" y="425"/>
      <point x="641" y="518" type="curve" smooth="yes"/>
      <point x="485" y="633"/>
      <point x="443" y="689"/>
      <point x="445" y="772" type="curve" smooth="yes"/>
      <point x="446.0077248961" y="852.6179916875"/>
      <point x="485" y="902"/>
      <point x="541" y="902" type="curve" smooth="yes"/>
      <point x="594" y="902"/>
      <point x="626.6720021186" y="874.5853230937"/>
      <point x="645" y="786" type="curve" smooth="yes"/>
      <point x="675.197453825" y="642.0588034341"/>
      <point x="725.2189781022" y="595"/>
      <point x="802" y="595" type="curve" smooth="yes"/>
      <point x="863.0327868852" y="595"/>
      <point x="906.9993497817" y="647.0171224145"/>
      <point x="904" y="726" type="curve" smooth="yes"/>
      <point x="900" y="827"/>
      <point x="788" y="926"/>
      <point x="557" y="926" type="curve" smooth="yes"/>
      <point x="282" y="926"/>
      <point x="129" y="775"/>
      <point x="113" y="613" type="curve" smooth="yes"/>
      <point x="103" y="501"/>
      <point x="176" y="422"/>
      <point x="309" y="324" type="curve" smooth="yes"/>
      <point x="405" y="254"/>
      <point x="449" y="207"/>
      <point x="447" y="134" type="curve" smooth="yes"/>
      <point x="446.000015844" y="60.0011724554"/>
      <point x="402" y="5"/>
    </contour>
  </outline>
</glyph>
<glyph name="bar" format="2">
  <advance width="444"/>
  <unicode hex="007C"/>
  <outline>
    <contour>
      <point x="255" y="612" type="curve" smooth="yes"/>
      <point x="208.475" y="436.79"/>
      <point x="86" y="27"/>
      <point x="29" y="-188" type="curve" smooth="yes"/>
      <point x="23.029" y="-209.895"/>
      <point x="29" y="-221"/>
      <point x="42" y="-224" type="curve" smooth="yes"/>
      <point x="55" y="-227"/>
      <point x="65" y="-218"/>
      <point x="71" y="-196" type="curve" smooth="yes"/>
      <point x="120" y="-12"/>
      <point x="227.983" y="421.938"/>
      <point x="279" y="612" type="curve" smooth="yes"/>
      <point x="329.734" y="801.01"/>
      <point x="453" y="1233"/>
      <point x="503" y="1416" type="curve" smooth="yes"/>
      <point x="508.024" y="1435.091"/>
      <point x="502" y="1446"/>
      <point x="488" y="1448" type="curve" smooth="yes"/>
      <point x="473" y="1450"/>
      <point x="465" y="1438"/>
      <point x="460" y="1420" type="curve" smooth="yes"/>
      <point x="402" y="1203"/>
      <point x="302.015" y="788.058"/>
    </contour>
  </outline>
</glyph>
<glyph name="currency" format="2">
  <advance width="1082"/>
  <unicode hex="00A4"/>
  <outline>
    <contour>
      <point x="536" y="361" type="curve" smooth="yes"/>
      <point x="360" y="361"/>
      <point x="250" y="493"/>
      <point x="306" y="700" type="curve" smooth="yes"/>
      <point x="358" y="896"/>
      <point x="538" y="1020"/>
      <point x="714" y="1020" type="curve" smooth="yes"/>
      <point x="891" y="1020"/>
      <point x="1001.529" y="887.719"/>
      <point x="946" y="680" type="curve" smooth="yes"/>
      <point x="893.528" y="485.66"/>
      <point x="714" y="361"/>
    </contour>
    <contour>
      <point x="543" y="381" type="curve" smooth="yes"/>
      <point x="725" y="381"/>
      <point x="880" y="520"/>
      <point x="926" y="690" type="curve" smooth="yes"/>
      <point x="972" y="862"/>
      <point x="891" y="1000"/>
      <point x="709" y="1000" type="curve" smooth="yes"/>
      <point x="524" y="1000"/>
      <point x="372" y="862"/>
      <point x="326" y="690" type="curve" smooth="yes"/>
      <point x="280" y="519"/>
      <point x="358" y="381"/>
    </contour>
    <contour>
      <point x="948" y="263" type="curve" smooth="yes"/>
      <point x="943" y="258"/>
      <point x="934" y="259"/>
      <point x="931" y="265" type="curve" smooth="yes"/>
      <point x="791" y="464" type="line"/>
      <point x="812" y="481" type="line"/>
      <point x="952" y="281" type="line" smooth="yes"/>
      <point x="956" y="276"/>
      <point x="956" y="269"/>
    </contour>
    <contour>
      <point x="303" y="1116" type="curve" smooth="yes"/>
      <point x="308" y="1121"/>
      <point x="317" y="1120"/>
      <point x="320" y="1114" type="curve" smooth="yes"/>
      <point x="460" y="915" type="line"/>
      <point x="440" y="898" type="line"/>
      <point x="299" y="1098" type="line" smooth="yes"/>
      <point x="296" y="1103"/>
      <point x="295" y="1110"/>
    </contour>
    <contour>
      <point x="74" y="263" type="curve" smooth="yes"/>
      <point x="70" y="269"/>
      <point x="74" y="276"/>
      <point x="80" y="281" type="curve" smooth="yes"/>
      <point x="328" y="481" type="line"/>
      <point x="339" y="464" type="line"/>
      <point x="93" y="265" type="line" smooth="yes"/>
      <point x="86" y="259"/>
      <point x="77" y="258"/>
    </contour>
    <contour>
      <point x="1177" y="1116" type="curve" smooth="yes"/>
      <point x="1181" y="1110"/>
      <point x="1178" y="1103"/>
      <point x="1171" y="1098" type="curve" smooth="yes"/>
      <point x="924" y="898" type="line"/>
      <point x="912" y="915" type="line"/>
      <point x="1158" y="1114" type="line" smooth="yes"/>
      <point x="1165" y="1120"/>
      <point x="1174" y="1121"/>
    </contour>
  </outline>
</glyph>
<glyph name="ordfeminine" format="2">
  <advance width="1003"/>
  <unicode hex="00AA"/>
  <outline>
    <contour>
      <point x="921" y="825" type="curve" smooth="yes"/>
      <point x="1055" y="1324" type="line" smooth="yes"/>
      <point x="1062" y="1352"/>
      <point x="1107" y="1342"/>
      <point x="1107" y="1364" type="curve" smooth="yes"/>
      <point x="1107" y="1383"/>
      <point x="934" y="1432"/>
      <point x="752" y="1432" type="curve" smooth="yes"/>
      <point x="390" y="1432"/>
      <point x="115" y="1133"/>
      <point x="115" y="824" type="curve" smooth="yes"/>
      <point x="115" y="679"/>
      <point x="194" y="590"/>
      <point x="334" y="590" type="curve" smooth="yes"/>
      <point x="488" y="590"/>
      <point x="562" y="674"/>
      <point x="633" y="854" type="curve"/>
      <point x="622" y="858" type="line"/>
      <point x="614" y="823"/>
      <point x="593" y="737"/>
      <point x="593" y="699" type="curve" smooth="yes"/>
      <point x="593" y="631"/>
      <point x="625" y="590"/>
      <point x="724" y="590" type="curve" smooth="yes"/>
      <point x="878.5098684211" y="590"/>
      <point x="987.9288000245" y="664.8410419152"/>
      <point x="1031" y="761" type="curve" smooth="yes"/>
      <point x="1038.4888232872" y="777.8498523962"/>
      <point x="1032.5" y="788"/>
      <point x="1030" y="788" type="curve" smooth="yes"/>
      <point x="1024.1176470588" y="788"/>
      <point x="1021.715480577" y="786.9756553322"/>
      <point x="1010" y="771" type="curve" smooth="yes"/>
      <point x="973.4676082325" y="721.6319030169"/>
      <point x="952.1686746988" y="703"/>
      <point x="930" y="703" type="curve" smooth="yes"/>
      <point x="904" y="703"/>
      <point x="894" y="726"/>
    </contour>
    <contour>
      <point x="445" y="794" type="curve" smooth="yes"/>
      <point x="445" y="1034.8195121951"/>
      <point x="585" y="1406"/>
      <point x="699" y="1406" type="curve" smooth="yes"/>
      <point x="750" y="1406"/>
      <point x="743.5551516356" y="1346.273988346"/>
      <point x="719" y="1251" type="curve" smooth="yes"/>
      <point x="627.4592861585" y="892.7972067073"/>
      <point x="560" y="690"/>
      <point x="487" y="690" type="curve" smooth="yes"/>
      <point x="464" y="690"/>
      <point x="445" y="712.3551401869"/>
    </contour>
  </outline>
</glyph>
<glyph name="mu.math" format="2">
  <advance width="1157"/>
  <unicode hex="00B5"/>
  <outline>
    <contour>
      <point x="61" y="219" type="line"/>
      <point x="-11.333882814228346" y="-50.08204406892952"/>
      <point x="-162.02837277921765" y="-182.7588798136921"/>
      <point x="-190" y="-285" type="curve" smooth="yes"/>
      <point x="-212.14840228485892" y="-366.59937683895384"/>
      <point x="-173.0" y="-418.0"/>
      <point x="-108" y="-418" type="curve" smooth="yes"/>
      <point x="-42" y="-418"/>
      <point x="15" y="-375"/>
      <point x="34" y="-305" type="curve" smooth="yes"/>
      <point x="63" y="-199"/>
      <point x="-4" y="-60"/>
      <point x="71" y="219" type="curve"/>
    </contour>
    <contour>
      <point x="151" y="527" type="curve" smooth="yes"/>
      <point x="60" y="218" type="line" smooth="yes"/>
      <point x="14" y="63"/>
      <point x="67" y="-20"/>
      <point x="195" y="-20" type="curve" smooth="yes"/>
      <point x="333" y="-20"/>
      <point x="540" y="73"/>
      <point x="685" y="386" type="curve"/>
      <point x="677" y="388" type="line"/>
      <point x="661" y="320"/>
      <point x="604" y="178"/>
      <point x="604" y="90" type="curve" smooth="yes"/>
      <point x="604" y="18"/>
      <point x="648" y="-20"/>
      <point x="737" y="-20" type="curve" smooth="yes"/>
      <point x="883" y="-20"/>
      <point x="1033" y="79"/>
      <point x="1114" y="218" type="curve" smooth="yes"/>
      <point x="1120" y="226"/>
      <point x="1122" y="234"/>
      <point x="1116" y="234" type="curve" smooth="yes"/>
      <point x="1110" y="234"/>
      <point x="1106" y="230"/>
      <point x="1098" y="222" type="curve" smooth="yes"/>
      <point x="1040" y="156"/>
      <point x="1012" y="138"/>
      <point x="986" y="138" type="curve" smooth="yes"/>
      <point x="959" y="138"/>
      <point x="955" y="169"/>
      <point x="978" y="248" type="curve" smooth="yes"/>
      <point x="1132" y="782" type="line" smooth="yes"/>
      <point x="1160" y="880"/>
      <point x="1148" y="916"/>
      <point x="1034" y="916" type="curve" smooth="yes"/>
      <point x="842" y="916"/>
      <point x="736" y="878"/>
      <point x="736" y="818" type="curve" smooth="yes"/>
      <point x="736" y="790"/>
      <point x="756" y="776"/>
      <point x="756" y="744" type="curve" smooth="yes"/>
      <point x="756" y="698"/>
      <point x="738" y="596"/>
      <point x="707" y="506" type="curve" smooth="yes"/>
      <point x="619" y="260"/>
      <point x="513" y="159"/>
      <point x="458" y="159" type="curve" smooth="yes"/>
      <point x="415" y="159"/>
      <point x="407" y="189"/>
      <point x="437" y="299" type="curve" smooth="yes"/>
      <point x="571" y="782" type="line" smooth="yes"/>
      <point x="598" y="880"/>
      <point x="587" y="916"/>
      <point x="473" y="916" type="curve" smooth="yes"/>
      <point x="281" y="916"/>
      <point x="175" y="878"/>
      <point x="175" y="818" type="curve" smooth="yes"/>
      <point x="175" y="790"/>
      <point x="195" y="776"/>
      <point x="195" y="744" type="curve" smooth="yes"/>
      <point x="195" y="686"/>
      <point x="182" y="634"/>
    </contour>
  </outline>
</glyph>
<glyph name="ordmasculine" format="2">
  <advance width="992"/>
  <unicode hex="00BA"/>
  <outline>
    <contour>
      <point x="767" y="1429" type="curve" smooth="yes"/>
      <point x="506" y="1429"/>
      <point x="265" y="1249"/>
      <point x="199" y="1003" type="curve" smooth="yes"/>
      <point x="132" y="755"/>
      <point x="267" y="584"/>
      <point x="524" y="584" type="curve" smooth="yes"/>
      <point x="790" y="584"/>
      <point x="1025" y="757"/>
      <point x="1091" y="1003" type="curve" smooth="yes"/>
      <point x="1158" y="1254"/>
      <point x="1024" y="1429"/>
    </contour>
    <contour>
      <point x="527" y="603" type="curve" smooth="yes"/>
      <point x="468" y="603"/>
      <point x="450" y="680"/>
      <point x="544" y="992" type="curve" smooth="yes"/>
      <point x="644" y="1322"/>
      <point x="724" y="1408"/>
      <point x="769" y="1408" type="curve" smooth="yes"/>
      <point x="820" y="1408"/>
      <point x="839" y="1313"/>
      <point x="753" y="1020" type="curve" smooth="yes"/>
      <point x="648" y="662"/>
      <point x="579" y="603"/>
    </contour>
  </outline>
</glyph>
<glyph name="germandbls" format="2">
  <advance width="1323"/>
  <unicode hex="00DF"/>
  <outline>
    <contour>
      <point x="-37" y="-241" type="line" smooth="yes"/>
      <point x="-75" y="-380"/>
      <point x="-53" y="-428"/>
      <point x="54" y="-428" type="curve" smooth="yes"/>
      <point x="238" y="-428"/>
      <point x="403" y="-342"/>
      <point x="403" y="-305" type="curve" smooth="yes"/>
      <point x="403" y="-282"/>
      <point x="333" y="-272"/>
      <point x="333" y="-210" type="curve" smooth="yes"/>
      <point x="333" y="-189"/>
      <point x="337" y="-164"/>
      <point x="348" y="-123" type="curve" smooth="yes"/>
      <point x="649" y="983" type="line" smooth="yes"/>
      <point x="728" y="1275"/>
      <point x="835" y="1411"/>
      <point x="937" y="1411" type="curve" smooth="yes"/>
      <point x="1031" y="1411"/>
      <point x="1056" y="1305"/>
      <point x="1005" y="1116" type="curve" smooth="yes"/>
      <point x="944" y="887"/>
      <point x="851" y="749"/>
      <point x="723" y="749" type="curve" smooth="yes"/>
      <point x="709" y="749"/>
      <point x="700" y="743"/>
      <point x="698" y="737" type="curve" smooth="yes"/>
      <point x="696" y="728"/>
      <point x="701" y="724"/>
      <point x="716" y="724" type="curve" smooth="yes"/>
      <point x="886" y="724"/>
      <point x="954" y="553"/>
      <point x="889" y="312" type="curve" smooth="yes"/>
      <point x="816" y="44"/>
      <point x="754" y="-14"/>
      <point x="676" y="-14" type="curve" smooth="yes"/>
      <point x="613" y="-14"/>
      <point x="570" y="44"/>
      <point x="563" y="175" type="curve" smooth="yes"/>
      <point x="554" y="326" type="line" smooth="yes"/>
      <point x="554" y="332"/>
      <point x="551" y="336"/>
      <point x="544" y="336" type="curve" smooth="yes"/>
      <point x="537" y="336"/>
      <point x="532" y="329"/>
      <point x="524" y="300" type="curve" smooth="yes"/>
      <point x="451" y="24"/>
      <point x="500" y="-30"/>
      <point x="743" y="-30" type="curve" smooth="yes"/>
      <point x="1018" y="-30"/>
      <point x="1214" y="77"/>
      <point x="1269" y="279" type="curve" smooth="yes"/>
      <point x="1342" y="547"/>
      <point x="1206" y="747"/>
      <point x="793" y="747" type="curve"/>
      <point x="789" y="737" type="line"/>
      <point x="1137" y="737"/>
      <point x="1321" y="877"/>
      <point x="1376" y="1082" type="curve" smooth="yes"/>
      <point x="1428" y="1277"/>
      <point x="1314" y="1430"/>
      <point x="933" y="1430" type="curve" smooth="yes"/>
      <point x="583" y="1430"/>
      <point x="356" y="1200"/>
      <point x="274" y="896" type="curve" smooth="yes"/>
      <point x="269" y="877" type="line"/>
      <point x="385" y="896" type="line"/>
      <point x="167" y="896" type="line" smooth="yes"/>
      <point x="159" y="896"/>
      <point x="153" y="893"/>
      <point x="152" y="888" type="curve" smooth="yes"/>
      <point x="151" y="884"/>
      <point x="154" y="882"/>
      <point x="160" y="880" type="curve" smooth="yes"/>
      <point x="250" y="850" type="line" smooth="yes"/>
      <point x="256" y="848"/>
      <point x="260" y="842"/>
      <point x="257" y="832" type="curve" smooth="yes"/>
    </contour>
  </outline>
</glyph>
<glyph name="ae" format="2">
  <advance width="1463"/>
  <unicode hex="00E6"/>
  <anchor x="891" y="1023" name="center"/>
  <outline>
    <contour>
      <point x="847.0" y="926.0"/>
      <point x="634.0" y="691.0"/>
      <point x="598" y="394" type="curve" smooth="yes"/>
      <point x="565.0" y="125.0"/>
      <point x="691.0" y="-20.0"/>
      <point x="903" y="-20" type="curve" smooth="yes"/>
      <point x="1145" y="-20"/>
      <point x="1321" y="110"/>
      <point x="1429" y="350" type="curve" smooth="yes"/>
      <point x="1434" y="361"/>
      <point x="1433" y="369"/>
      <point x="1426" y="371" type="curve" smooth="yes"/>
      <point x="1420" y="373"/>
      <point x="1415" y="370"/>
      <point x="1409" y="361" type="curve" smooth="yes"/>
      <point x="1339" y="236"/>
      <point x="1252" y="177"/>
      <point x="1150" y="177" type="curve" smooth="yes"/>
      <point x="981" y="177"/>
      <point x="919" y="296"/>
      <point x="946" y="503" type="curve" smooth="yes"/>
      <point x="978" y="751"/>
      <point x="1058" y="894"/>
      <point x="1132" y="894" type="curve" smooth="yes"/>
      <point x="1168" y="894"/>
      <point x="1185" y="849"/>
      <point x="1184" y="770" type="curve" smooth="yes"/>
      <point x="1182" y="659"/>
      <point x="1164" y="571"/>
      <point x="1140" y="513" type="curve"/>
      <point x="1174" y="538" type="line"/>
      <point x="1063.0379729657097" y="505.56494594382286"/>
      <point x="804.0" y="466.0"/>
      <point x="804" y="466" type="curve"/>
      <point x="809" y="436" type="line"/>
      <point x="809.0" y="436.0"/>
      <point x="1406" y="561"/>
      <point x="1480" y="579" type="curve" smooth="yes"/>
      <point x="1490" y="582"/>
      <point x="1492" y="586"/>
      <point x="1492" y="589" type="curve" smooth="yes"/>
      <point x="1492" y="593"/>
      <point x="1490" y="596"/>
      <point x="1480" y="598" type="curve" smooth="yes"/>
      <point x="1454" y="603"/>
      <point x="1449" y="616"/>
      <point x="1451" y="633" type="curve" smooth="yes"/>
      <point x="1460" y="786"/>
      <point x="1360.710610932476" y="926.0"/>
      <point x="1139" y="926" type="curve" smooth="yes"/>
    </contour>
    <contour>
      <point x="401" y="916"/>
      <point x="216" y="782"/>
      <point x="187" y="672" type="curve" smooth="yes"/>
      <point x="164" y="587"/>
      <point x="205" y="546"/>
      <point x="279" y="546" type="curve" smooth="yes"/>
      <point x="388" y="546"/>
      <point x="484" y="625"/>
      <point x="508" y="714" type="curve" smooth="yes"/>
      <point x="537" y="820" type="line" smooth="yes"/>
      <point x="551" y="869"/>
      <point x="586" y="898"/>
      <point x="636" y="898.0" type="curve" smooth="yes"/>
      <point x="684" y="898"/>
      <point x="712" y="847"/>
      <point x="691" y="769" type="curve" smooth="yes"/>
      <point x="620" y="505" type="line"/>
      <point x="939" y="625" type="line"/>
      <point x="960" y="813"/>
      <point x="871" y="916.0"/>
      <point x="680" y="916.0" type="curve" smooth="yes"/>
    </contour>
    <contour>
      <point x="276" y="445"/>
      <point x="61.56763871308117" y="372.3993433207686"/>
      <point x="15" y="200" type="curve" smooth="yes"/>
      <point x="-20" y="72"/>
      <point x="68" y="-20"/>
      <point x="222" y="-20" type="curve" smooth="yes"/>
      <point x="438" y="-20"/>
      <point x="593" y="64"/>
      <point x="674" y="205" type="curve"/>
      <point x="662" y="213" type="line"/>
      <point x="599" y="137"/>
      <point x="533" y="100"/>
      <point x="464" y="100" type="curve" smooth="yes"/>
      <point x="409" y="100"/>
      <point x="377" y="154"/>
      <point x="387" y="243" type="curve" smooth="yes"/>
      <point x="400" y="364"/>
      <point x="487" y="460"/>
      <point x="660" y="492" type="curve"/>
      <point x="660" y="508" type="line"/>
    </contour>
  </outline>
</glyph>
<glyph name="oslash" format="2">
  <advance width="1048"/>
  <unicode hex="00F8"/>
  <anchor x="672" y="1000" name="center"/>
  <outline>
    <contour>
      <point x="-6" y="-59" type="curve" smooth="yes"/>
      <point x="-3" y="-62"/>
      <point x="1" y="-62"/>
      <point x="6" y="-57" type="curve"/>
      <point x="291" y="204" type="line"/>
      <point x="338" y="248" type="line"/>
      <point x="777" y="649" type="line"/>
      <point x="810" y="678" type="line"/>
      <point x="1087" y="932" type="line" smooth="yes"/>
      <point x="1091" y="936"/>
      <point x="1091" y="940"/>
      <point x="1087" y="942" type="curve" smooth="yes"/>
      <point x="1084" y="945"/>
      <point x="1080" y="944"/>
      <point x="1076" y="940" type="curve"/>
      <point x="800" y="687" type="line"/>
      <point x="767" y="656" type="line"/>
      <point x="329" y="256" type="line"/>
      <point x="281" y="213" type="line"/>
      <point x="-4" y="-49" type="line" smooth="yes"/>
      <point x="-8" y="-53"/>
      <point x="-9" y="-57"/>
    </contour>
    <component base="o"/>
  </outline>
</glyph>
<glyph name="Aogonek" format="2">
  <advance width="1261"/>
  <unicode hex="0104"/>
  <anchor x="1019" y="1532" name="center"/>
  <outline>
    <contour>
      <point x="1066" y="26" type="line"/>
      <point x="691.702" y="-84.355"/>
      <point x="598" y="-184.275"/>
      <point x="598" y="-295" type="curve" smooth="yes"/>
      <point x="598" y="-382.703"/>
      <point x="674" y="-428"/>
      <point x="813" y="-428" type="curve" smooth="yes"/>
      <point x="918" y="-428"/>
      <point x="1000" y="-390"/>
      <point x="1039" y="-336" type="curve" smooth="yes"/>
      <point x="1046" y="-326"/>
      <point x="1047" y="-320"/>
      <point x="1044" y="-317" type="curve" smooth="yes"/>
      <point x="1038" y="-314"/>
      <point x="1032" y="-316"/>
      <point x="1025" y="-324" type="curve" smooth="yes"/>
      <point x="997" y="-355"/>
      <point x="953" y="-383"/>
      <point x="911" y="-383" type="curve" smooth="yes"/>
      <point x="872" y="-383"/>
      <point x="844" y="-356"/>
      <point x="844" y="-291" type="curve" smooth="yes"/>
      <point x="844" y="-172"/>
      <point x="924.2" y="-54.193"/>
      <point x="1070" y="15" type="curve"/>
    </contour>
    <component base="A"/>
  </outline>
</glyph>
<glyph name="dcroat" format="2">
  <advance width="1095"/>
  <unicode hex="0111"/>
  <outline>
    <contour>
      <point x="1236" y="1445" type="line" smooth="yes"/>
      <point x="1240" y="1460"/>
      <point x="1239" y="1470"/>
      <point x="1232" y="1470.0" type="curve" smooth="yes"/>
      <point x="1198.0" y="1470.0"/>
      <point x="858" y="1337"/>
      <point x="843" y="1282" type="curve" smooth="yes"/>
      <point x="582" y="335" type="line" smooth="yes"/>
      <point x="531" y="148"/>
      <point x="464" y="88"/>
      <point x="426" y="88" type="curve" smooth="yes"/>
      <point x="396" y="88"/>
      <point x="372" y="114"/>
      <point x="372" y="208" type="curve" smooth="yes"/>
      <point x="372" y="470"/>
      <point x="524" y="890"/>
      <point x="660" y="890" type="curve" smooth="yes"/>
      <point x="725" y="890"/>
      <point x="723" y="849"/>
      <point x="709" y="795" type="curve"/>
      <point x="814" y="800" type="line"/>
      <point x="813" y="871"/>
      <point x="763" y="916"/>
      <point x="626" y="916" type="curve" smooth="yes"/>
      <point x="270" y="916"/>
      <point x="5" y="547"/>
      <point x="5" y="230" type="curve" smooth="yes"/>
      <point x="5" y="75"/>
      <point x="94" y="-20"/>
      <point x="251" y="-20" type="curve" smooth="yes"/>
      <point x="417" y="-20"/>
      <point x="517" y="81"/>
      <point x="577" y="228" type="curve"/>
      <point x="553" y="228" type="line"/>
      <point x="544" y="189"/>
      <point x="537" y="144"/>
      <point x="537" y="102" type="curve" smooth="yes"/>
      <point x="537" y="30"/>
      <point x="578" y="-20"/>
      <point x="696" y="-20" type="curve" smooth="yes"/>
      <point x="866" y="-20"/>
      <point x="985" y="64"/>
      <point x="1033" y="170" type="curve" smooth="yes"/>
      <point x="1042" y="190"/>
      <point x="1041" y="200"/>
      <point x="1035" y="200" type="curve" smooth="yes"/>
      <point x="1030" y="200"/>
      <point x="1029" y="198"/>
      <point x="1017" y="182" type="curve" smooth="yes"/>
      <point x="976" y="126"/>
      <point x="950" y="106"/>
      <point x="924" y="106" type="curve" smooth="yes"/>
      <point x="871" y="106"/>
      <point x="879" y="112"/>
      <point x="905" y="208" type="curve" smooth="yes"/>
    </contour>
    <contour>
      <point x="663" y="1142" type="curve" smooth="yes"/>
      <point x="661" y="1136"/>
      <point x="666.0" y="1132.0"/>
      <point x="673" y="1132" type="curve" smooth="yes"/>
      <point x="1229" y="1132" type="line" smooth="yes"/>
      <point x="1237" y="1132"/>
      <point x="1242" y="1136"/>
      <point x="1244" y="1142" type="curve" smooth="yes"/>
      <point x="1246" y="1148"/>
      <point x="1243" y="1152"/>
      <point x="1235" y="1152" type="curve" smooth="yes"/>
      <point x="679" y="1152" type="line" smooth="yes"/>
      <point x="672.0" y="1152.0"/>
      <point x="665" y="1148"/>
    </contour>
  </outline>
</glyph>
<glyph name="Hbar" format="2">
  <advance width="1592"/>
  <unicode hex="0126"/>
  <anchor x="1051" y="1499" name="center"/>
  <outline>
    <contour>
      <point x="219" y="994" type="curve" smooth="yes"/>
      <point x="218" y="988"/>
      <point x="223" y="984"/>
      <point x="230" y="984" type="curve" smooth="yes"/>
      <point x="1655" y="984" type="line" smooth="yes"/>
      <point x="1663" y="984"/>
      <point x="1668" y="988"/>
      <point x="1669" y="994" type="curve" smooth="yes"/>
      <point x="1671" y="1000"/>
      <point x="1668" y="1004"/>
      <point x="1660" y="1004" type="curve" smooth="yes"/>
      <point x="235" y="1004" type="line" smooth="yes"/>
      <point x="228" y="1004"/>
      <point x="221" y="1000"/>
    </contour>
    <component base="H"/>
  </outline>
</glyph>
<glyph name="Iogonek" format="2">
  <advance width="803"/>
  <unicode hex="012E"/>
  <anchor x="705" y="1468" name="center"/>
  <outline>
    <contour>
      <point x="492" y="26" type="line"/>
      <point x="118" y="-84"/>
      <point x="24" y="-184"/>
      <point x="24" y="-295" type="curve" smooth="yes"/>
      <point x="24" y="-383"/>
      <point x="100" y="-428"/>
      <point x="239" y="-428" type="curve" smooth="yes"/>
      <point x="344" y="-428"/>
      <point x="426" y="-390"/>
      <point x="465" y="-336" type="curve" smooth="yes"/>
      <point x="472" y="-326"/>
      <point x="473" y="-320"/>
      <point x="470" y="-317" type="curve" smooth="yes"/>
      <point x="464" y="-314"/>
      <point x="458" y="-316"/>
      <point x="451" y="-324" type="curve" smooth="yes"/>
      <point x="423" y="-355"/>
      <point x="379" y="-383"/>
      <point x="337" y="-383" type="curve" smooth="yes"/>
      <point x="298" y="-383"/>
      <point x="270" y="-356"/>
      <point x="270" y="-291" type="curve" smooth="yes"/>
      <point x="270" y="-172"/>
      <point x="350" y="-54"/>
      <point x="496" y="15" type="curve"/>
    </contour>
    <component base="I"/>
  </outline>
</glyph>
<glyph name="iogonek" format="2">
  <advance width="615"/>
  <unicode hex="012F"/>
  <outline>
    <contour>
      <point x="435" y="58" type="line"/>
      <point x="60.411" y="-87.84"/>
      <point x="-33" y="-189.911"/>
      <point x="-33" y="-298" type="curve" smooth="yes"/>
      <point x="-33" y="-383.969"/>
      <point x="40.054" y="-429"/>
      <point x="175" y="-429" type="curve" smooth="yes"/>
      <point x="283.602" y="-429"/>
      <point x="368.572" y="-391.593"/>
      <point x="408" y="-337" type="curve" smooth="yes"/>
      <point x="415" y="-327"/>
      <point x="416" y="-321"/>
      <point x="413" y="-318" type="curve" smooth="yes"/>
      <point x="407" y="-315"/>
      <point x="401" y="-317"/>
      <point x="394" y="-325" type="curve" smooth="yes"/>
      <point x="366" y="-356"/>
      <point x="322" y="-384"/>
      <point x="280" y="-384" type="curve" smooth="yes"/>
      <point x="241" y="-384"/>
      <point x="213" y="-356.422"/>
      <point x="213" y="-287" type="curve" smooth="yes"/>
      <point x="213" y="-178.399"/>
      <point x="292.786" y="-17.094"/>
      <point x="439" y="47" type="curve"/>
    </contour>
    <component base="i"/>
  </outline>
</glyph>
<glyph name="Eng" format="2">
  <advance width="1364"/>
  <unicode hex="014A"/>
  <outline>
    <contour>
      <point x="1351" y="1279" type="line" smooth="yes"/>
      <point x="1379" y="1391"/>
      <point x="1436" y="1453"/>
      <point x="1510" y="1453" type="curve" smooth="yes"/>
      <point x="1580" y="1453"/>
      <point x="1616" y="1413"/>
      <point x="1616" y="1356" type="curve" smooth="yes"/>
      <point x="1616" y="1286"/>
      <point x="1578" y="1234"/>
      <point x="1475" y="1152" type="curve" smooth="yes"/>
      <point x="1368" y="1067"/>
      <point x="1311" y="1001"/>
      <point x="1283" y="892" type="curve" smooth="yes"/>
      <point x="1003" y="-196" type="line" smooth="yes"/>
      <point x="963" y="-350"/>
      <point x="814" y="-464"/>
      <point x="630" y="-464" type="curve" smooth="yes"/>
      <point x="461" y="-464"/>
      <point x="377" y="-388"/>
      <point x="395" y="-294" type="curve" smooth="yes"/>
      <point x="409" y="-222"/>
      <point x="467" y="-192"/>
      <point x="528" y="-192" type="curve" smooth="yes"/>
      <point x="652" y="-192"/>
      <point x="698" y="-325"/>
      <point x="824" y="-325" type="curve" smooth="yes"/>
      <point x="896" y="-325"/>
      <point x="958" y="-277"/>
      <point x="980" y="-197" type="curve" smooth="yes"/>
      <point x="1002" y="-113"/>
      <point x="957" y="-26"/>
      <point x="825" y="35" type="curve" smooth="yes"/>
      <point x="722" y="83"/>
      <point x="682" y="122"/>
      <point x="651" y="237" type="curve"/>
      <point x="567" y="554"/>
      <point x="485" y="865"/>
      <point x="403" y="1168" type="curve"/>
      <point x="418" y="1172" type="line"/>
      <point x="165" y="226" type="line" smooth="yes"/>
      <point x="134" y="113"/>
      <point x="189" y="50"/>
      <point x="268" y="24" type="curve" smooth="yes"/>
      <point x="287" y="18" type="line" smooth="yes"/>
      <point x="295" y="15"/>
      <point x="297" y="13"/>
      <point x="296" y="8" type="curve" smooth="yes"/>
      <point x="295" y="4"/>
      <point x="291" y="0"/>
      <point x="284" y="0" type="curve" smooth="yes"/>
      <point x="-100" y="0" type="line" smooth="yes"/>
      <point x="-107" y="0"/>
      <point x="-109" y="4"/>
      <point x="-108" y="8" type="curve" smooth="yes"/>
      <point x="-106" y="14"/>
      <point x="-100" y="16"/>
      <point x="-93" y="18" type="curve" smooth="yes"/>
      <point x="-72" y="24" type="line" smooth="yes"/>
      <point x="22" y="50"/>
      <point x="110" y="112"/>
      <point x="141" y="227" type="curve" smooth="yes"/>
      <point x="389" y="1154" type="line" smooth="yes"/>
      <point x="394" y="1170"/>
      <point x="394" y="1173"/>
      <point x="389" y="1190" type="curve" smooth="yes"/>
      <point x="339" y="1364" type="line" smooth="yes"/>
      <point x="331" y="1390"/>
      <point x="336.0" y="1400.0"/>
      <point x="350" y="1400.0" type="curve" smooth="yes"/>
      <point x="809" y="1400" type="line" smooth="yes"/>
      <point x="815" y="1400"/>
      <point x="821" y="1396"/>
      <point x="823" y="1386" type="curve"/>
      <point x="911" y="997"/>
      <point x="1012.428" y="617.616"/>
      <point x="1107" y="234" type="curve"/>
      <point x="1092" y="231" type="line"/>
    </contour>
  </outline>
</glyph>
<glyph name="scedilla" format="2">
  <advance width="896"/>
  <unicode hex="015F"/>
  <outline>
    <contour>
      <point x="364" y="-10" type="line"/>
      <point x="254" y="-114" type="line" smooth="yes"/>
      <point x="247" y="-121"/>
      <point x="247" y="-128"/>
      <point x="255" y="-128" type="curve" smooth="yes"/>
      <point x="262" y="-128" type="line" smooth="yes"/>
      <point x="328" y="-128"/>
      <point x="355" y="-169"/>
      <point x="336" y="-244" type="curve" smooth="yes"/>
      <point x="313" y="-333"/>
      <point x="270" y="-376"/>
      <point x="214" y="-376" type="curve" smooth="yes"/>
      <point x="173" y="-376"/>
      <point x="138" y="-356"/>
      <point x="118" y="-322" type="curve" smooth="yes"/>
      <point x="114" y="-315"/>
      <point x="110" y="-311"/>
      <point x="102" y="-317" type="curve" smooth="yes"/>
      <point x="99" y="-319"/>
      <point x="95" y="-324"/>
      <point x="98" y="-329" type="curve" smooth="yes"/>
      <point x="117" y="-372"/>
      <point x="174" y="-410"/>
      <point x="275" y="-410" type="curve" smooth="yes"/>
      <point x="409" y="-410"/>
      <point x="502" y="-348"/>
      <point x="527" y="-252" type="curve" smooth="yes"/>
      <point x="550" y="-164"/>
      <point x="493" y="-105"/>
      <point x="354" y="-105" type="curve" smooth="yes"/>
      <point x="311" y="-105"/>
      <point x="295" y="-105"/>
      <point x="276" y="-105" type="curve"/>
      <point x="278" y="-111" type="line"/>
      <point x="385" y="-10" type="line"/>
    </contour>
    <component base="s"/>
  </outline>
</glyph>
<glyph name="Tbar" format="2">
  <advance width="1214"/>
  <unicode hex="0166"/>
  <anchor x="489" y="1516" name="center"/>
  <outline>
    <contour>
      <point x="354" y="706" type="curve" smooth="yes"/>
      <point x="353" y="700"/>
      <point x="357" y="696"/>
      <point x="364" y="696" type="curve" smooth="yes"/>
      <point x="1050" y="696" type="line" smooth="yes"/>
      <point x="1058" y="696"/>
      <point x="1064" y="700"/>
      <point x="1065" y="706" type="curve" smooth="yes"/>
      <point x="1067" y="712"/>
      <point x="1064" y="716"/>
      <point x="1056" y="716" type="curve" smooth="yes"/>
      <point x="370" y="716" type="line" smooth="yes"/>
      <point x="363" y="716"/>
      <point x="356" y="712"/>
    </contour>
    <component base="T"/>
  </outline>
</glyph>
<glyph name="tbar" format="2">
  <advance width="654"/>
  <unicode hex="0167"/>
  <outline>
    <contour>
      <point x="35" y="491" type="curve" smooth="yes"/>
      <point x="32.454" y="483.361"/>
      <point x="38" y="478"/>
      <point x="45" y="478" type="curve" smooth="yes"/>
      <point x="628" y="478" type="line" smooth="yes"/>
      <point x="638" y="478"/>
      <point x="643" y="482"/>
      <point x="646" y="489" type="curve" smooth="yes"/>
      <point x="647" y="497"/>
      <point x="644" y="503"/>
      <point x="636" y="503" type="curve" smooth="yes"/>
      <point x="50" y="503" type="line" smooth="yes"/>
      <point x="43" y="503"/>
      <point x="36.195" y="498.17"/>
    </contour>
    <contour>
      <point x="195" y="861" type="line" smooth="yes"/>
      <point x="220" y="857"/>
      <point x="227" y="840"/>
      <point x="218" y="806" type="curve" smooth="yes"/>
      <point x="51" y="206" type="line" smooth="yes"/>
      <point x="8" y="51"/>
      <point x="45" y="-20"/>
      <point x="200" y="-20" type="curve" smooth="yes"/>
      <point x="389" y="-20"/>
      <point x="529" y="76"/>
      <point x="586" y="194" type="curve" smooth="yes"/>
      <point x="596" y="214"/>
      <point x="594" y="224"/>
      <point x="588" y="224" type="curve" smooth="yes"/>
      <point x="583" y="224"/>
      <point x="581" y="222"/>
      <point x="570" y="206" type="curve" smooth="yes"/>
      <point x="522" y="136"/>
      <point x="482" y="106"/>
      <point x="443" y="106" type="curve" smooth="yes"/>
      <point x="408" y="106"/>
      <point x="387" y="136"/>
      <point x="416" y="242" type="curve" smooth="yes"/>
      <point x="647" y="1084" type="line" smooth="yes"/>
      <point x="650" y="1096"/>
      <point x="651" y="1104"/>
      <point x="651" y="1108" type="curve" smooth="yes"/>
      <point x="651" y="1116"/>
      <point x="647" y="1122"/>
      <point x="641" y="1122" type="curve" smooth="yes"/>
      <point x="631" y="1122"/>
      <point x="623" y="1118"/>
      <point x="617" y="1114" type="curve" smooth="yes"/>
      <point x="266" y="906" type="line" smooth="yes"/>
      <point x="252" y="898"/>
      <point x="246" y="896"/>
      <point x="236" y="896" type="curve" smooth="yes"/>
      <point x="135" y="896" type="line" smooth="yes"/>
      <point x="127" y="896"/>
      <point x="121" y="892"/>
      <point x="121" y="885" type="curve" smooth="yes"/>
      <point x="121" y="879"/>
      <point x="124" y="874"/>
      <point x="133" y="872" type="curve" smooth="yes"/>
    </contour>
    <contour>
      <point x="525" y="872" type="line"/>
      <point x="727" y="872" type="line" smooth="yes"/>
      <point x="739" y="872"/>
      <point x="747" y="876"/>
      <point x="747" y="885" type="curve" smooth="yes"/>
      <point x="747" y="891"/>
      <point x="742" y="896"/>
      <point x="732" y="896" type="curve" smooth="yes"/>
      <point x="539" y="896" type="line"/>
    </contour>
  </outline>
</glyph>
<glyph name="Uogonek" format="2">
  <advance width="1294"/>
  <unicode hex="0172"/>
  <outline>
    <contour>
      <point x="796" y="26" type="line"/>
      <point x="422" y="-84"/>
      <point x="328" y="-184"/>
      <point x="328" y="-295" type="curve" smooth="yes"/>
      <point x="328" y="-383"/>
      <point x="404" y="-428"/>
      <point x="543" y="-428" type="curve" smooth="yes"/>
      <point x="648" y="-428"/>
      <point x="730" y="-390"/>
      <point x="769" y="-336" type="curve" smooth="yes"/>
      <point x="776" y="-326"/>
      <point x="777" y="-320"/>
      <point x="774" y="-317" type="curve" smooth="yes"/>
      <point x="768" y="-314"/>
      <point x="762" y="-316"/>
      <point x="755" y="-324" type="curve" smooth="yes"/>
      <point x="727" y="-355"/>
      <point x="683" y="-383"/>
      <point x="641" y="-383" type="curve" smooth="yes"/>
      <point x="602" y="-383"/>
      <point x="574" y="-356"/>
      <point x="574" y="-291" type="curve" smooth="yes"/>
      <point x="574" y="-172"/>
      <point x="654" y="-54"/>
      <point x="800" y="15" type="curve"/>
    </contour>
    <component base="U"/>
  </outline>
</glyph>
<glyph name="Uhorn" format="2">
  <advance width="1314"/>
  <unicode hex="01AF"/>
  <anchor x="1006" y="1479.0" name="center"/>
  <outline>
    <contour>
      <point x="1764" y="1618" type="curve" smooth="yes"/>
      <point x="1783" y="1689"/>
      <point x="1757" y="1732"/>
      <point x="1694" y="1732" type="curve" smooth="yes"/>
      <point x="1630" y="1732"/>
      <point x="1581" y="1688"/>
      <point x="1556" y="1593" type="curve" smooth="yes"/>
      <point x="1527" y="1487" type="line" smooth="yes"/>
      <point x="1511" y="1425"/>
      <point x="1487" y="1400"/>
      <point x="1448" y="1400" type="curve" smooth="yes"/>
      <point x="1468" y="1378" type="line"/>
      <point x="1628" y="1410"/>
      <point x="1728" y="1485"/>
    </contour>
    <contour>
      <point x="1097" y="444" type="line" smooth="yes"/>
      <point x="1016" y="158"/>
      <point x="877" y="50"/>
      <point x="725" y="50" type="curve" smooth="yes"/>
      <point x="620" y="50"/>
      <point x="548" y="117"/>
      <point x="548" y="264" type="curve" smooth="yes"/>
      <point x="548" y="337"/>
      <point x="564" y="444"/>
      <point x="609" y="614" type="curve" smooth="yes"/>
      <point x="789" y="1298" type="line" smooth="yes"/>
      <point x="804" y="1355"/>
      <point x="813" y="1368"/>
      <point x="839" y="1372" type="curve" smooth="yes"/>
      <point x="918" y="1383" type="line" smooth="yes"/>
      <point x="928" y="1384"/>
      <point x="931" y="1389"/>
      <point x="931" y="1393" type="curve" smooth="yes"/>
      <point x="931" y="1398"/>
      <point x="927" y="1400"/>
      <point x="919" y="1400" type="curve" smooth="yes"/>
      <point x="279" y="1400" type="line" smooth="yes"/>
      <point x="270" y="1400"/>
      <point x="265" y="1397"/>
      <point x="265" y="1392" type="curve" smooth="yes"/>
      <point x="265" y="1385"/>
      <point x="270" y="1383"/>
      <point x="278" y="1382" type="curve" smooth="yes"/>
      <point x="352" y="1372" type="line" smooth="yes"/>
      <point x="380" y="1368"/>
      <point x="393" y="1354"/>
      <point x="386" y="1328" type="curve" smooth="yes"/>
      <point x="195" y="608" type="line" smooth="yes"/>
      <point x="172" y="523"/>
      <point x="152" y="399"/>
      <point x="152" y="343" type="curve" smooth="yes"/>
      <point x="152" y="128"/>
      <point x="307" y="-20"/>
      <point x="583" y="-20" type="curve" smooth="yes"/>
      <point x="869" y="-20"/>
      <point x="1026" y="108"/>
      <point x="1120" y="440" type="curve" smooth="yes"/>
      <point x="1294" y="1055" type="line" smooth="yes"/>
      <point x="1351" y="1257"/>
      <point x="1405" y="1360"/>
      <point x="1469" y="1378" type="curve" smooth="yes"/>
      <point x="1487" y="1383" type="line" smooth="yes"/>
      <point x="1497" y="1386"/>
      <point x="1499" y="1389"/>
      <point x="1499" y="1393" type="curve" smooth="yes"/>
      <point x="1499" y="1398"/>
      <point x="1495" y="1400"/>
      <point x="1487" y="1400" type="curve" smooth="yes"/>
      <point x="1121" y="1400" type="line" smooth="yes"/>
      <point x="1112" y="1400"/>
      <point x="1107" y="1397"/>
      <point x="1107" y="1392" type="curve" smooth="yes"/>
      <point x="1107" y="1386"/>
      <point x="1111" y="1383"/>
      <point x="1120" y="1382" type="curve" smooth="yes"/>
      <point x="1152" y="1377" type="line" smooth="yes"/>
      <point x="1253" y="1361"/>
      <point x="1326" y="1256"/>
      <point x="1270" y="1057" type="curve" smooth="yes"/>
    </contour>
  </outline>
</glyph>
<glyph name="apostrophemod" format="2">
  <advance width="445"/>
  <unicode hex="02BC"/>
  <outline>
    <contour>
      <point x="418" y="1188" type="curve" smooth="yes"/>
      <point x="479" y="1188" type="line" smooth="yes"/>
      <point x="508" y="1188"/>
      <point x="516" y="1175"/>
      <point x="510" y="1154" type="curve" smooth="yes"/>
      <point x="491" y="1082"/>
      <point x="402" y="957"/>
      <point x="209" y="918" type="curve" smooth="yes"/>
      <point x="197" y="915"/>
      <point x="192" y="911"/>
      <point x="190" y="903" type="curve" smooth="yes"/>
      <point x="188" y="897"/>
      <point x="196" y="892"/>
      <point x="207" y="895" type="curve" smooth="yes"/>
      <point x="426" y="934"/>
      <point x="570" y="1088"/>
      <point x="632" y="1318" type="curve" smooth="yes"/>
      <point x="675" y="1478"/>
      <point x="602" y="1558"/>
      <point x="498" y="1558" type="curve" smooth="yes"/>
      <point x="386" y="1558"/>
      <point x="282" y="1479"/>
      <point x="254" y="1373" type="curve" smooth="yes"/>
      <point x="223" y="1257"/>
      <point x="275" y="1188"/>
    </contour>
  </outline>
</glyph>
<glyph name="gravecmb" format="2">
  <unicode hex="0300"/>
  <anchor x="381" y="991" name="center"/>
  <outline>
    <contour>
      <point x="390.48" y="1255" type="line" smooth="yes"/>
      <point x="388.532" y="1348"/>
      <point x="353.463" y="1398"/>
      <point x="283.463" y="1398" type="curve" smooth="yes"/>
      <point x="201.463" y="1398"/>
      <point x="147.946" y="1338"/>
      <point x="135.532" y="1290" type="curve" smooth="yes"/>
      <point x="115.618" y="1213"/>
      <point x="152.429" y="1162"/>
      <point x="201.343" y="1123" type="curve" smooth="yes"/>
      <point x="380.36" y="980" type="line" smooth="yes"/>
      <point x="383.843" y="978"/>
      <point x="388.843" y="978"/>
      <point x="392.619" y="981" type="curve" smooth="yes"/>
      <point x="397.654" y="985"/>
      <point x="395.429" y="988"/>
      <point x="395.723" y="993" type="curve" smooth="yes"/>
    </contour>
  </outline>
</glyph>
<glyph name="circumflexcmb" format="2">
  <unicode hex="0302"/>
  <anchor x="420" y="1062" name="center"/>
  <outline>
    <contour>
      <point x="517" y="1162" type="line"/>
      <point x="71" y="962" type="line" smooth="yes"/>
      <point x="63" y="959"/>
      <point x="57" y="958"/>
      <point x="53" y="961" type="curve" smooth="yes"/>
      <point x="51" y="964"/>
      <point x="52" y="970"/>
      <point x="58" y="976" type="curve" smooth="yes"/>
      <point x="445" y="1333" type="line" smooth="yes"/>
      <point x="455" y="1342"/>
      <point x="460" y="1346"/>
      <point x="469" y="1346" type="curve" smooth="yes"/>
      <point x="478" y="1346"/>
      <point x="481" y="1342"/>
      <point x="487" y="1333" type="curve" smooth="yes"/>
      <point x="688" y="976" type="line" smooth="yes"/>
      <point x="692" y="970"/>
      <point x="690" y="964"/>
      <point x="685" y="961" type="curve" smooth="yes"/>
      <point x="682" y="958"/>
      <point x="676" y="959"/>
      <point x="670" y="962" type="curve" smooth="yes"/>
      <point x="325" y="1162" type="line"/>
    </contour>
  </outline>
</glyph>
<glyph name="macroncmb" format="2">
  <unicode hex="0304"/>
  <anchor x="324" y="995" name="center"/>
  <outline>
    <contour>
      <point x="54" y="1105" type="curve" smooth="yes"/>
      <point x="43" y="1060"/>
      <point x="43" y="1050"/>
      <point x="67" y="1050" type="curve" smooth="yes"/>
      <point x="548" y="1050" type="line" smooth="yes"/>
      <point x="572" y="1050"/>
      <point x="578" y="1060"/>
      <point x="589" y="1106" type="curve" smooth="yes"/>
      <point x="602" y="1155"/>
      <point x="601" y="1161"/>
      <point x="577" y="1161" type="curve" smooth="yes"/>
      <point x="96" y="1161" type="line" smooth="yes"/>
      <point x="72" y="1161"/>
      <point x="66" y="1151"/>
    </contour>
  </outline>
</glyph>
<glyph name="brevecmb" format="2">
  <advance width="650"/>
  <unicode hex="0306"/>
  <anchor x="344" y="954" name="center"/>
  <outline>
    <contour>
      <point x="374.4304289494" y="1175" type="curve" smooth="yes"/>
      <point x="267.4304289494" y="1175"/>
      <point x="196.033749908" y="1216"/>
      <point x="155.3782731749" y="1314" type="curve" smooth="yes"/>
      <point x="153.6713610966" y="1319"/>
      <point x="151.1885962654" y="1321"/>
      <point x="147.1885962654" y="1321" type="curve" smooth="yes"/>
      <point x="140.1885962654" y="1321"/>
      <point x="135.8955083436" y="1316"/>
      <point x="134.5679500844" y="1307" type="curve" smooth="yes"/>
      <point x="93.896228773" y="1084"/>
      <point x="183" y="980"/>
      <point x="324" y="980" type="curve" smooth="yes"/>
      <point x="469" y="980"/>
      <point x="609.896228773" y="1084"/>
      <point x="684.5679500844" y="1307" type="curve" smooth="yes"/>
      <point x="687.8955083436" y="1316"/>
      <point x="685.1885962654" y="1321"/>
      <point x="679.1885962654" y="1321" type="curve" smooth="yes"/>
      <point x="675.1885962654" y="1321"/>
      <point x="671.6713610966" y="1319"/>
      <point x="667.3782731749" y="1314" type="curve" smooth="yes"/>
      <point x="582.6199257515" y="1226"/>
      <point x="499.4304289494" y="1175"/>
    </contour>
  </outline>
</glyph>
<glyph name="dotaccentcmb" format="2">
  <unicode hex="0307"/>
  <anchor x="255" y="958" name="center"/>
  <outline>
    <contour>
      <point x="223" y="980" type="curve" smooth="yes"/>
      <point x="327" y="980"/>
      <point x="414.845" y="1049"/>
      <point x="440.965" y="1150" type="curve" smooth="yes"/>
      <point x="467.603" y="1253"/>
      <point x="415.447" y="1322"/>
      <point x="311.447" y="1322" type="curve" smooth="yes"/>
      <point x="209.447" y="1322"/>
      <point x="120.344" y="1252"/>
      <point x="93.965" y="1150" type="curve" smooth="yes"/>
      <point x="67.845" y="1049"/>
      <point x="120" y="980"/>
    </contour>
  </outline>
</glyph>
<glyph name="dieresiscmb" format="2">
  <unicode hex="0308"/>
  <anchor x="445" y="949" name="center"/>
  <outline>
    <contour>
      <point x="214" y="980" type="curve" smooth="yes"/>
      <point x="312" y="980"/>
      <point x="395.069" y="1046"/>
      <point x="419.896" y="1142" type="curve" smooth="yes"/>
      <point x="445.241" y="1240"/>
      <point x="396.309" y="1306"/>
      <point x="298.309" y="1306" type="curve" smooth="yes"/>
      <point x="200.309" y="1306"/>
      <point x="117.241" y="1240"/>
      <point x="91.896" y="1142" type="curve" smooth="yes"/>
      <point x="67.069" y="1046"/>
      <point x="116" y="980"/>
    </contour>
    <contour>
      <point x="590" y="980" type="curve" smooth="yes"/>
      <point x="689" y="980"/>
      <point x="773.069" y="1046"/>
      <point x="797.896" y="1142" type="curve" smooth="yes"/>
      <point x="823.241" y="1240"/>
      <point x="773.309" y="1306"/>
      <point x="674.309" y="1306" type="curve" smooth="yes"/>
      <point x="577.309" y="1306"/>
      <point x="491.982" y="1239"/>
      <point x="466.896" y="1142" type="curve" smooth="yes"/>
      <point x="442.069" y="1046"/>
      <point x="492" y="980"/>
    </contour>
  </outline>
</glyph>
<glyph name="hungarumlautcmb" format="2">
  <unicode hex="030B"/>
  <anchor x="273" y="963" name="center"/>
  <outline>
    <contour>
      <point x="232.061" y="1247" type="curve" smooth="yes"/>
      <point x="58.114" y="992" type="line" smooth="yes"/>
      <point x="55.079" y="988"/>
      <point x="50.304" y="985"/>
      <point x="53.269" y="981" type="curve" smooth="yes"/>
      <point x="55.752" y="979"/>
      <point x="60.01" y="980"/>
      <point x="65.786" y="983" type="curve" smooth="yes"/>
      <point x="335.131" y="1139" type="line" smooth="yes"/>
      <point x="408.993" y="1181"/>
      <point x="478.958" y="1235"/>
      <point x="509.578" y="1307" type="curve" smooth="yes"/>
      <point x="527.216" y="1352"/>
      <point x="512.923" y="1405"/>
      <point x="432.113" y="1398" type="curve" smooth="yes"/>
      <point x="366.044" y="1390"/>
      <point x="294.596" y="1338"/>
    </contour>
    <contour>
      <point x="545.061" y="1247" type="curve" smooth="yes"/>
      <point x="371.114" y="992" type="line" smooth="yes"/>
      <point x="368.079" y="988"/>
      <point x="364.304" y="985"/>
      <point x="366.269" y="981" type="curve" smooth="yes"/>
      <point x="368.752" y="979"/>
      <point x="374.01" y="980"/>
      <point x="379.786" y="983" type="curve" smooth="yes"/>
      <point x="649.131" y="1139" type="line" smooth="yes"/>
      <point x="721.993" y="1181"/>
      <point x="792.958" y="1235"/>
      <point x="822.578" y="1307" type="curve" smooth="yes"/>
      <point x="840.216" y="1352"/>
      <point x="826.923" y="1405"/>
      <point x="745.113" y="1398" type="curve" smooth="yes"/>
      <point x="680.044" y="1390"/>
      <point x="607.596" y="1338"/>
    </contour>
  </outline>
</glyph>
<glyph name="caroncmb" format="2">
  <unicode hex="030C"/>
  <anchor x="419" y="1249" name="center"/>
  <outline>
    <contour>
      <point x="512.586" y="1152" type="line"/>
      <point x="320.586" y="1152" type="line"/>
      <point x="768.309" y="1352" type="line" smooth="yes"/>
      <point x="776.085" y="1355"/>
      <point x="782.344" y="1356"/>
      <point x="784.568" y="1353" type="curve" smooth="yes"/>
      <point x="787.792" y="1350"/>
      <point x="786.24" y="1344"/>
      <point x="779.689" y="1338" type="curve" smooth="yes"/>
      <point x="393.362" y="981" type="line" smooth="yes"/>
      <point x="383.034" y="972"/>
      <point x="378" y="968"/>
      <point x="369" y="968" type="curve" smooth="yes"/>
      <point x="360" y="968"/>
      <point x="357.034" y="972"/>
      <point x="351.362" y="981" type="curve" smooth="yes"/>
      <point x="149.689" y="1338" type="line" smooth="yes"/>
      <point x="146.24" y="1344"/>
      <point x="148.792" y="1350"/>
      <point x="152.568" y="1353" type="curve" smooth="yes"/>
      <point x="157.344" y="1356"/>
      <point x="163.085" y="1355"/>
      <point x="169.309" y="1352" type="curve" smooth="yes"/>
    </contour>
  </outline>
</glyph>
<glyph name="invertedbrevecmb" format="2">
  <advance width="650"/>
  <unicode hex="0311"/>
  <anchor x="360" y="996" name="center"/>
  <outline>
    <contour>
      <point x="361.758167316" y="1126" type="curve" smooth="yes"/>
      <point x="486.758167316" y="1126"/>
      <point x="543.5686705138" y="1075"/>
      <point x="582.8103230905" y="987" type="curve" smooth="yes"/>
      <point x="584.5172351687" y="982"/>
      <point x="587" y="980"/>
      <point x="591" y="980" type="curve" smooth="yes"/>
      <point x="597" y="980"/>
      <point x="602.2930879218" y="985"/>
      <point x="603.620646181" y="994" type="curve" smooth="yes"/>
      <point x="644.2923674923" y="1217"/>
      <point x="557.1885962654" y="1321"/>
      <point x="412.1885962654" y="1321" type="curve" smooth="yes"/>
      <point x="271.1885962654" y="1321"/>
      <point x="128.2923674923" y="1217"/>
      <point x="53.620646181" y="994" type="curve" smooth="yes"/>
      <point x="50.2930879218" y="985"/>
      <point x="52" y="980"/>
      <point x="59" y="980" type="curve" smooth="yes"/>
      <point x="63" y="980"/>
      <point x="66.5172351687" y="982"/>
      <point x="70.8103230905" y="987" type="curve" smooth="yes"/>
      <point x="162.1548463574" y="1085"/>
      <point x="254.758167316" y="1126"/>
    </contour>
  </outline>
</glyph>
<glyph name="commaturnedabovecmb" format="2">
  <advance width="438"/>
  <unicode hex="0312"/>
  <outline>
    <contour>
      <point x="278.9646291258" y="1266" type="curve" smooth="yes"/>
      <point x="196.9646291258" y="1266" type="line" smooth="yes"/>
      <point x="184.9646291258" y="1266"/>
      <point x="179.5163346319" y="1272"/>
      <point x="182.8783632285" y="1285" type="curve" smooth="yes"/>
      <point x="197.1023303681" y="1340"/>
      <point x="321.4123832976" y="1434"/>
      <point x="480.7744118942" y="1447" type="curve" smooth="yes"/>
      <point x="489.0330294786" y="1448"/>
      <point x="492.5847349847" y="1454"/>
      <point x="492.8778229065" y="1459" type="curve" smooth="yes"/>
      <point x="493.688145997" y="1466"/>
      <point x="489.2053811657" y="1468"/>
      <point x="480.9467635813" y="1467" type="curve" smooth="yes"/>
      <point x="285.9985591411" y="1444"/>
      <point x="143.3609479525" y="1341"/>
      <point x="97.3270179371" y="1163" type="curve" smooth="yes"/>
      <point x="67.8446133206" y="1049"/>
      <point x="118" y="980"/>
      <point x="229" y="980" type="curve" smooth="yes"/>
      <point x="324" y="980"/>
      <point x="403.258437477" y="1039"/>
      <point x="424.9823145629" y="1123" type="curve" smooth="yes"/>
      <point x="445.1544861427" y="1201"/>
      <point x="410.9646291258" y="1266"/>
    </contour>
  </outline>
</glyph>
<glyph name="horncmb" format="2">
  <unicode hex="031B"/>
  <outline>
    <contour>
      <point x="536.051" y="1062" type="curve" smooth="yes"/>
      <point x="552.344" y="1125"/>
      <point x="525.654" y="1161"/>
      <point x="464.654" y="1161" type="curve" smooth="yes"/>
      <point x="400.654" y="1161"/>
      <point x="354.016" y="1116"/>
      <point x="333.844" y="1038" type="curve" smooth="yes"/>
      <point x="322.982" y="996" type="line" smooth="yes"/>
      <point x="301.517" y="913"/>
      <point x="218.62" y="867"/>
      <point x="65.896" y="899" type="curve" smooth="yes"/>
      <point x="61.155" y="900"/>
      <point x="58.379" y="897"/>
      <point x="56.31" y="889" type="curve" smooth="yes"/>
      <point x="54.5" y="882"/>
      <point x="54.982" y="880"/>
      <point x="60.724" y="879" type="curve" smooth="yes"/>
      <point x="326.758" y="825"/>
      <point x="502.172" y="931"/>
    </contour>
  </outline>
</glyph>
<glyph name="dieresisbelowcmb" format="2">
  <unicode hex="0324"/>
  <outline>
    <contour>
      <point x="214" y="-395" type="curve" smooth="yes"/>
      <point x="312" y="-395"/>
      <point x="395.069" y="-329"/>
      <point x="419.896" y="-233" type="curve" smooth="yes"/>
      <point x="445.241" y="-135"/>
      <point x="396.309" y="-69"/>
      <point x="298.309" y="-69" type="curve" smooth="yes"/>
      <point x="200.309" y="-69"/>
      <point x="117.241" y="-135"/>
      <point x="91.896" y="-233" type="curve" smooth="yes"/>
      <point x="67.069" y="-329"/>
      <point x="116" y="-395"/>
    </contour>
    <contour>
      <point x="590" y="-395" type="curve" smooth="yes"/>
      <point x="689" y="-395"/>
      <point x="773.069" y="-329"/>
      <point x="797.896" y="-233" type="curve" smooth="yes"/>
      <point x="823.241" y="-135"/>
      <point x="773.309" y="-69"/>
      <point x="674.309" y="-69" type="curve" smooth="yes"/>
      <point x="577.309" y="-69"/>
      <point x="491.982" y="-136"/>
      <point x="466.896" y="-233" type="curve" smooth="yes"/>
      <point x="442.069" y="-329"/>
      <point x="492" y="-395"/>
    </contour>
  </outline>
</glyph>
<glyph name="commaaccentbelowcmb" format="2">
  <advance width="441"/>
  <unicode hex="0326"/>
  <outline>
    <contour>
      <point x="273.045" y="-355" type="curve" smooth="yes"/>
      <point x="370.045" y="-355" type="line" smooth="yes"/>
      <point x="382.045" y="-355"/>
      <point x="387.493" y="-361"/>
      <point x="384.131" y="-374" type="curve" smooth="yes"/>
      <point x="369.907" y="-429"/>
      <point x="245.597" y="-523"/>
      <point x="86.235" y="-536" type="curve" smooth="yes"/>
      <point x="77.976" y="-537"/>
      <point x="74.424" y="-543"/>
      <point x="74.131" y="-548" type="curve" smooth="yes"/>
      <point x="73.321" y="-555"/>
      <point x="77.804" y="-557"/>
      <point x="86.062" y="-556" type="curve" smooth="yes"/>
      <point x="281.011" y="-533"/>
      <point x="423.648" y="-430"/>
      <point x="469.682" y="-252" type="curve" smooth="yes"/>
      <point x="500.458" y="-133"/>
      <point x="451.009" y="-69"/>
      <point x="343.009" y="-69" type="curve" smooth="yes"/>
      <point x="243.009" y="-69"/>
      <point x="160.234" y="-130"/>
      <point x="137.475" y="-218" type="curve" smooth="yes"/>
      <point x="119.113" y="-289"/>
      <point x="151.045" y="-355"/>
    </contour>
  </outline>
</glyph>
<glyph name="ogonekcmb" format="2">
  <advance width="557"/>
  <unicode hex="0328"/>
  <outline>
    <contour>
      <point x="555.4123832976" y="25" type="line"/>
      <point x="226.3264776151" y="-72"/>
      <point x="120.6026005292" y="-156"/>
      <point x="92.9305190031" y="-263" type="curve" smooth="yes"/>
      <point x="64.4825847239" y="-373"/>
      <point x="141" y="-429"/>
      <point x="302" y="-429" type="curve" smooth="yes"/>
      <point x="407" y="-429"/>
      <point x="488.8274682055" y="-391"/>
      <point x="527.7928177607" y="-337" type="curve" smooth="yes"/>
      <point x="535.3789936043" y="-327"/>
      <point x="535.9306991104" y="-321"/>
      <point x="532.7065518635" y="-318" type="curve" smooth="yes"/>
      <point x="527.4824046166" y="-315"/>
      <point x="520.9651694479" y="-317"/>
      <point x="513.896228773" y="-325" type="curve" smooth="yes"/>
      <point x="485.879083658" y="-356"/>
      <point x="441.637791296" y="-384"/>
      <point x="399.637791296" y="-384" type="curve" smooth="yes"/>
      <point x="346.637791296" y="-384"/>
      <point x="315.0169650077" y="-340"/>
      <point x="343.7235168712" y="-229" type="curve" smooth="yes"/>
      <point x="374.7576269939" y="-109"/>
      <point x="441.0850051457" y="-42"/>
      <point x="558.5675898697" y="14" type="curve"/>
    </contour>
  </outline>
</glyph>
<glyph name="belowbrevecmb" format="2">
  <advance width="650"/>
  <unicode hex="032E"/>
  <outline>
    <contour>
      <point x="374.4304289494" y="-214" type="curve" smooth="yes"/>
      <point x="267.4304289494" y="-214"/>
      <point x="196.033749908" y="-173"/>
      <point x="155.3782731749" y="-75" type="curve" smooth="yes"/>
      <point x="153.6713610966" y="-70"/>
      <point x="151.1885962654" y="-68"/>
      <point x="147.1885962654" y="-68" type="curve" smooth="yes"/>
      <point x="140.1885962654" y="-68"/>
      <point x="135.8955083436" y="-73"/>
      <point x="134.5679500844" y="-82" type="curve" smooth="yes"/>
      <point x="93.896228773" y="-305"/>
      <point x="183" y="-409"/>
      <point x="324" y="-409" type="curve" smooth="yes"/>
      <point x="469" y="-409"/>
      <point x="609.896228773" y="-305"/>
      <point x="684.5679500844" y="-82" type="curve" smooth="yes"/>
      <point x="687.8955083436" y="-73"/>
      <point x="685.1885962654" y="-68"/>
      <point x="679.1885962654" y="-68" type="curve" smooth="yes"/>
      <point x="675.1885962654" y="-68"/>
      <point x="671.6713610966" y="-70"/>
      <point x="667.3782731749" y="-75" type="curve" smooth="yes"/>
      <point x="582.6199257515" y="-163"/>
      <point x="499.4304289494" y="-214"/>
    </contour>
  </outline>
</glyph>
<glyph name="macronbelowcmb" format="2">
  <unicode hex="0331"/>
  <outline>
    <contour>
      <point x="64.224" y="-201" type="curve" smooth="yes"/>
      <point x="52.586" y="-246"/>
      <point x="53" y="-256"/>
      <point x="77" y="-256" type="curve" smooth="yes"/>
      <point x="558" y="-256" type="line" smooth="yes"/>
      <point x="582" y="-256"/>
      <point x="587.586" y="-246"/>
      <point x="599.483" y="-200" type="curve" smooth="yes"/>
      <point x="612.155" y="-151"/>
      <point x="610.707" y="-145"/>
      <point x="586.707" y="-145" type="curve" smooth="yes"/>
      <point x="105.707" y="-145" type="line" smooth="yes"/>
      <point x="81.707" y="-145"/>
      <point x="76.12" y="-155"/>
    </contour>
  </outline>
</glyph>
<glyph name="quoteright" format="2">
  <advance width="431"/>
  <unicode hex="2019"/>
  <outline>
    <contour>
      <point x="381" y="1239" type="curve" smooth="yes"/>
      <point x="451" y="1239" type="line" smooth="yes"/>
      <point x="501" y="1239"/>
      <point x="516.0" y="1226.0"/>
      <point x="516" y="1195" type="curve" smooth="yes"/>
      <point x="516" y="1140"/>
      <point x="415" y="1000"/>
      <point x="208" y="932" type="curve" smooth="yes"/>
      <point x="192" y="927"/>
      <point x="189" y="921"/>
      <point x="190" y="914" type="curve" smooth="yes"/>
      <point x="192" y="908"/>
      <point x="200" y="907"/>
      <point x="217" y="912" type="curve" smooth="yes"/>
      <point x="431" y="976"/>
      <point x="631" y="1167"/>
      <point x="631" y="1401" type="curve" smooth="yes"/>
      <point x="631" y="1500"/>
      <point x="577" y="1555"/>
      <point x="481" y="1555" type="curve" smooth="yes"/>
      <point x="341" y="1555"/>
      <point x="239" y="1445"/>
      <point x="239" y="1350" type="curve" smooth="yes"/>
      <point x="239.0" y="1288.0"/>
      <point x="279.17105263157896" y="1239.0"/>
    </contour>
  </outline>
</glyph>
<glyph name="quotesinglbase" format="2">
  <advance width="515"/>
  <unicode hex="201A"/>
  <outline>
    <contour>
      <point x="188" y="0" type="curve" smooth="yes"/>
      <point x="249" y="0" type="line" smooth="yes"/>
      <point x="278" y="0"/>
      <point x="286" y="-13"/>
      <point x="280" y="-34" type="curve" smooth="yes"/>
      <point x="261" y="-106"/>
      <point x="172" y="-231"/>
      <point x="-21" y="-270" type="curve" smooth="yes"/>
      <point x="-33" y="-273"/>
      <point x="-38" y="-277"/>
      <point x="-40" y="-285" type="curve" smooth="yes"/>
      <point x="-42" y="-291"/>
      <point x="-34" y="-296"/>
      <point x="-24" y="-293" type="curve" smooth="yes"/>
      <point x="195" y="-254"/>
      <point x="340" y="-100"/>
      <point x="402" y="130" type="curve" smooth="yes"/>
      <point x="445" y="290"/>
      <point x="372" y="370"/>
      <point x="268" y="370" type="curve" smooth="yes"/>
      <point x="156" y="370"/>
      <point x="52" y="291"/>
      <point x="24" y="185" type="curve" smooth="yes"/>
      <point x="-8" y="69"/>
      <point x="45" y="0"/>
    </contour>
  </outline>
</glyph>
<glyph name="quotedblbase" format="2">
  <advance width="938"/>
  <unicode hex="201E"/>
  <outline>
    <contour>
      <point x="189" y="-1" type="curve" smooth="yes"/>
      <point x="250" y="-1" type="line" smooth="yes"/>
      <point x="279" y="-1"/>
      <point x="286" y="-14"/>
      <point x="281" y="-35" type="curve" smooth="yes"/>
      <point x="261" y="-107"/>
      <point x="173" y="-232"/>
      <point x="-21" y="-271" type="curve" smooth="yes"/>
      <point x="-32" y="-274"/>
      <point x="-37" y="-278"/>
      <point x="-40" y="-286" type="curve" smooth="yes"/>
      <point x="-41" y="-292"/>
      <point x="-34" y="-297"/>
      <point x="-23" y="-294" type="curve" smooth="yes"/>
      <point x="196" y="-255"/>
      <point x="341" y="-101"/>
      <point x="403" y="129" type="curve" smooth="yes"/>
      <point x="445" y="289"/>
      <point x="373" y="369"/>
      <point x="269" y="369" type="curve" smooth="yes"/>
      <point x="157" y="369"/>
      <point x="53" y="290"/>
      <point x="24" y="184" type="curve" smooth="yes"/>
      <point x="-7" y="68"/>
      <point x="46" y="-1"/>
    </contour>
    <contour>
      <point x="611" y="1" type="curve" smooth="yes"/>
      <point x="672" y="1" type="line" smooth="yes"/>
      <point x="701" y="1"/>
      <point x="709" y="-12"/>
      <point x="703" y="-33" type="curve" smooth="yes"/>
      <point x="684" y="-105"/>
      <point x="595" y="-230"/>
      <point x="402" y="-269" type="curve" smooth="yes"/>
      <point x="390" y="-272"/>
      <point x="385" y="-276"/>
      <point x="383" y="-284" type="curve" smooth="yes"/>
      <point x="381" y="-290"/>
      <point x="389" y="-295"/>
      <point x="400" y="-292" type="curve" smooth="yes"/>
      <point x="619" y="-253"/>
      <point x="763" y="-99"/>
      <point x="825" y="131" type="curve" smooth="yes"/>
      <point x="868" y="291"/>
      <point x="795" y="371"/>
      <point x="691" y="371" type="curve" smooth="yes"/>
      <point x="579" y="371"/>
      <point x="475" y="292"/>
      <point x="447" y="186" type="curve" smooth="yes"/>
      <point x="416" y="70"/>
      <point x="468" y="1"/>
    </contour>
  </outline>
</glyph>
<glyph name="minute" format="2">
  <advance width="359"/>
  <unicode hex="2032"/>
  <outline>
    <contour>
      <point x="177" y="910" type="curve" smooth="yes"/>
      <point x="181" y="910"/>
      <point x="182" y="912"/>
      <point x="190" y="920" type="curve" smooth="yes"/>
      <point x="524" y="1306" type="line" smooth="yes"/>
      <point x="635" y="1434"/>
      <point x="618" y="1558"/>
      <point x="490" y="1558" type="curve" smooth="yes"/>
      <point x="404" y="1558"/>
      <point x="332" y="1508"/>
      <point x="296" y="1372" type="curve" smooth="yes"/>
      <point x="174" y="920" type="line" smooth="yes"/>
      <point x="172" y="914"/>
      <point x="173" y="910"/>
    </contour>
  </outline>
</glyph>
<glyph name="colonmonetary" format="2">
  <advance width="1218"/>
  <unicode hex="20A1"/>
  <outline>
    <contour>
      <point x="1199" y="467" type="curve" smooth="yes"/>
      <point x="1203" y="478"/>
      <point x="1202" y="484"/>
      <point x="1197" y="484" type="curve" smooth="yes"/>
      <point x="1192" y="484"/>
      <point x="1187" y="479"/>
      <point x="1183" y="470" type="curve" smooth="yes"/>
      <point x="1079" y="250"/>
      <point x="905" y="96"/>
      <point x="730" y="96" type="curve" smooth="yes"/>
      <point x="533" y="96"/>
      <point x="472" y="284"/>
      <point x="589" y="720" type="curve" smooth="yes"/>
      <point x="709" y="1169"/>
      <point x="870" y="1397"/>
      <point x="1049" y="1397" type="curve" smooth="yes"/>
      <point x="1206" y="1397"/>
      <point x="1279" y="1230"/>
      <point x="1164" y="919" type="curve" smooth="yes"/>
      <point x="1158" y="903"/>
      <point x="1161" y="895"/>
      <point x="1170" y="894" type="curve" smooth="yes"/>
      <point x="1177" y="893"/>
      <point x="1182" y="897"/>
      <point x="1190" y="911" type="curve" smooth="yes"/>
      <point x="1381" y="1257" type="line" smooth="yes"/>
      <point x="1386" y="1266"/>
      <point x="1385" y="1270"/>
      <point x="1379" y="1277" type="curve" smooth="yes"/>
      <point x="1319" y="1350"/>
      <point x="1198" y="1421"/>
      <point x="1037" y="1421" type="curve" smooth="yes"/>
      <point x="574" y="1421"/>
      <point x="230" y="1110"/>
      <point x="118" y="692" type="curve" smooth="yes"/>
      <point x="2" y="256"/>
      <point x="166" y="-20"/>
      <point x="543" y="-20" type="curve" smooth="yes"/>
      <point x="840" y="-20"/>
      <point x="1100" y="200"/>
    </contour>
    <contour>
      <point x="417" y="-117" type="curve" smooth="yes"/>
      <point x="424" y="-120"/>
      <point x="432" y="-115"/>
      <point x="437" y="-106" type="curve" smooth="yes"/>
      <point x="526" y="62" type="line"/>
      <point x="1213" y="1357" type="line"/>
      <point x="1277" y="1479" type="line" smooth="yes"/>
      <point x="1281" y="1487"/>
      <point x="1280" y="1494"/>
      <point x="1274" y="1496" type="curve" smooth="yes"/>
      <point x="1266" y="1498"/>
      <point x="1258" y="1494"/>
      <point x="1254" y="1485" type="curve" smooth="yes"/>
      <point x="1193" y="1370" type="line"/>
      <point x="504" y="70" type="line"/>
      <point x="413" y="-99" type="line" smooth="yes"/>
      <point x="409" y="-108"/>
      <point x="410" y="-116"/>
    </contour>
    <contour>
      <point x="268" y="-117" type="curve" smooth="yes"/>
      <point x="275" y="-120"/>
      <point x="283" y="-115"/>
      <point x="288" y="-106" type="curve" smooth="yes"/>
      <point x="405" y="115" type="line"/>
      <point x="1090" y="1406" type="line"/>
      <point x="1128" y="1479" type="line" smooth="yes"/>
      <point x="1132" y="1487"/>
      <point x="1131" y="1494"/>
      <point x="1125" y="1496" type="curve" smooth="yes"/>
      <point x="1117" y="1498"/>
      <point x="1109" y="1494"/>
      <point x="1105" y="1485" type="curve" smooth="yes"/>
      <point x="1065" y="1410" type="line"/>
      <point x="382" y="124" type="line"/>
      <point x="264" y="-99" type="line" smooth="yes"/>
      <point x="260" y="-108"/>
      <point x="261" y="-116"/>
    </contour>
  </outline>
</glyph>
<glyph name="cedi" format="2">
  <advance width="1218"/>
  <unicode hex="20B5"/>
  <outline>
    <contour>
      <point x="1186" y="467" type="curve" smooth="yes"/>
      <point x="1190" y="478"/>
      <point x="1189" y="484"/>
      <point x="1184" y="484" type="curve" smooth="yes"/>
      <point x="1179" y="484"/>
      <point x="1174" y="479"/>
      <point x="1170" y="470" type="curve" smooth="yes"/>
      <point x="1080" y="279"/>
      <point x="920" y="146"/>
      <point x="760" y="146" type="curve" smooth="yes"/>
      <point x="549" y="146"/>
      <point x="467" y="314"/>
      <point x="588" y="766" type="curve" smooth="yes"/>
      <point x="708" y="1212"/>
      <point x="867" y="1377"/>
      <point x="1020" y="1377" type="curve" smooth="yes"/>
      <point x="1208" y="1377"/>
      <point x="1319" y="1202"/>
      <point x="1267" y="911" type="curve" smooth="yes"/>
      <point x="1264" y="895"/>
      <point x="1264" y="887"/>
      <point x="1272" y="886" type="curve" smooth="yes"/>
      <point x="1280" y="885"/>
      <point x="1289" y="889"/>
      <point x="1293" y="903" type="curve" smooth="yes"/>
      <point x="1429" y="1400" type="line" smooth="yes"/>
      <point x="1432" y="1409"/>
      <point x="1430" y="1419"/>
      <point x="1419" y="1419" type="curve" smooth="yes"/>
      <point x="1391" y="1419"/>
      <point x="1231" y="1342"/>
      <point x="1207" y="1342" type="curve" smooth="yes"/>
      <point x="1188" y="1342"/>
      <point x="1154" y="1401"/>
      <point x="1003" y="1401" type="curve" smooth="yes"/>
      <point x="584" y="1401"/>
      <point x="220" y="1118"/>
      <point x="98" y="665" type="curve" smooth="yes"/>
      <point x="-10" y="263"/>
      <point x="158" y="0"/>
      <point x="535" y="0" type="curve" smooth="yes"/>
      <point x="832" y="0"/>
      <point x="1091" y="211"/>
    </contour>
    <contour>
      <point x="872" y="738" type="curve" smooth="yes"/>
      <point x="977" y="1145"/>
      <point x="1044" y="1364"/>
      <point x="1082" y="1503" type="curve" smooth="yes"/>
      <point x="1087" y="1521"/>
      <point x="1080" y="1529"/>
      <point x="1068" y="1529" type="curve" smooth="yes"/>
      <point x="1055" y="1529"/>
      <point x="1043" y="1520"/>
      <point x="1039" y="1504" type="curve" smooth="yes"/>
      <point x="1001" y="1362"/>
      <point x="944" y="1144"/>
      <point x="839" y="738" type="curve" smooth="yes"/>
      <point x="720" y="295"/>
      <point x="651" y="57"/>
      <point x="611" y="-94" type="curve" smooth="yes"/>
      <point x="606" y="-112"/>
      <point x="613" y="-120"/>
      <point x="624" y="-120" type="curve" smooth="yes"/>
      <point x="638" y="-120"/>
      <point x="649" y="-111"/>
      <point x="654" y="-95" type="curve" smooth="yes"/>
      <point x="695" y="59"/>
      <point x="754" y="297"/>
    </contour>
  </outline>
</glyph>
<glyph name="turkishlira" format="2">
  <advance width="1397"/>
  <unicode hex="20BA"/>
  <outline>
    <contour>
      <point x="549" y="20" type="curve" smooth="yes"/>
      <point x="534" y="20"/>
      <point x="528" y="28"/>
      <point x="531" y="42" type="curve" smooth="yes"/>
      <point x="888" y="1375" type="line" smooth="yes"/>
      <point x="892" y="1390"/>
      <point x="889" y="1401"/>
      <point x="873" y="1401" type="curve" smooth="yes"/>
      <point x="469" y="1401" type="line" smooth="yes"/>
      <point x="457" y="1401"/>
      <point x="447" y="1391"/>
      <point x="443" y="1376" type="curve" smooth="yes"/>
      <point x="78" y="16" type="line" smooth="yes"/>
      <point x="76" y="6"/>
      <point x="79" y="0"/>
      <point x="92" y="0" type="curve" smooth="yes"/>
      <point x="540" y="0" type="line" smooth="yes"/>
      <point x="963" y="0"/>
      <point x="1312" y="241"/>
      <point x="1427" y="671" type="curve" smooth="yes"/>
      <point x="1430" y="683"/>
      <point x="1425" y="688"/>
      <point x="1417" y="688" type="curve" smooth="yes"/>
      <point x="1029" y="688" type="line" smooth="yes"/>
      <point x="1021" y="688"/>
      <point x="1013" y="681"/>
      <point x="1010" y="668" type="curve" smooth="yes"/>
      <point x="879" y="181"/>
      <point x="718" y="20"/>
    </contour>
    <contour>
      <point x="99" y="680" type="curve" smooth="yes"/>
      <point x="101" y="675"/>
      <point x="105" y="675"/>
      <point x="109" y="677" type="curve" smooth="yes"/>
      <point x="1140" y="1246" type="line" smooth="yes"/>
      <point x="1144" y="1248"/>
      <point x="1147" y="1253"/>
      <point x="1146" y="1257" type="curve" smooth="yes"/>
      <point x="1145" y="1261"/>
      <point x="1140" y="1262"/>
      <point x="1136" y="1260" type="curve" smooth="yes"/>
      <point x="106" y="691" type="line" smooth="yes"/>
      <point x="102" y="689"/>
      <point x="98" y="683"/>
    </contour>
    <contour>
      <point x="31" y="427" type="curve" smooth="yes"/>
      <point x="33" y="422"/>
      <point x="37" y="422"/>
      <point x="42" y="424" type="curve" smooth="yes"/>
      <point x="1072" y="993" type="line" smooth="yes"/>
      <point x="1077" y="995"/>
      <point x="1079" y="1000"/>
      <point x="1078" y="1004" type="curve" smooth="yes"/>
      <point x="1077" y="1008"/>
      <point x="1072" y="1009"/>
      <point x="1068" y="1007" type="curve" smooth="yes"/>
      <point x="38" y="438" type="line" smooth="yes"/>
      <point x="34" y="436"/>
      <point x="30" y="430"/>
    </contour>
  </outline>
</glyph>
<glyph name="manat" format="2">
  <advance width="1554"/>
  <unicode hex="20BC"/>
  <outline>
    <contour>
      <point x="1033" y="1375" type="curve" smooth="yes"/>
      <point x="605" y="1375"/>
      <point x="263" y="1020"/>
      <point x="78" y="328" type="curve" smooth="yes"/>
      <point x="-4" y="21" type="line" smooth="yes"/>
      <point x="-8" y="9"/>
      <point x="-5" y="0"/>
      <point x="11" y="0" type="curve" smooth="yes"/>
      <point x="396" y="0" type="line" smooth="yes"/>
      <point x="407" y="0"/>
      <point x="416" y="6"/>
      <point x="420" y="21" type="curve" smooth="yes"/>
      <point x="536" y="455" type="line" smooth="yes"/>
      <point x="716" y="1126"/>
      <point x="859" y="1355"/>
      <point x="1028" y="1355" type="curve" smooth="yes"/>
      <point x="1188" y="1355"/>
      <point x="1222" y="1126"/>
      <point x="1042" y="455" type="curve" smooth="yes"/>
      <point x="924" y="16" type="line" smooth="yes"/>
      <point x="921" y="5"/>
      <point x="923" y="0"/>
      <point x="935" y="0" type="curve" smooth="yes"/>
      <point x="1331" y="0" type="line" smooth="yes"/>
      <point x="1338" y="0"/>
      <point x="1346" y="6"/>
      <point x="1348" y="14" type="curve" smooth="yes"/>
      <point x="1432" y="328" type="line" smooth="yes"/>
      <point x="1617" y="1020"/>
      <point x="1448" y="1375"/>
    </contour>
    <contour>
      <point x="714" y="183" type="curve" smooth="yes"/>
      <point x="719" y="183"/>
      <point x="723" y="186"/>
      <point x="724" y="191" type="curve" smooth="yes"/>
      <point x="1097" y="1581" type="line" smooth="yes"/>
      <point x="1098" y="1586"/>
      <point x="1096" y="1589"/>
      <point x="1091" y="1589" type="curve" smooth="yes"/>
      <point x="1086" y="1589"/>
      <point x="1082" y="1586"/>
      <point x="1081" y="1581" type="curve" smooth="yes"/>
      <point x="708" y="191" type="line" smooth="yes"/>
      <point x="707" y="187"/>
      <point x="709" y="183"/>
    </contour>
  </outline>
</glyph>
<glyph name="numero" format="2">
  <advance width="2236"/>
  <unicode hex="2116"/>
  <outline>
    <contour>
      <point x="1304" y="1173" type="line" smooth="yes"/>
      <point x="1335" y="1288"/>
      <point x="1423" y="1350"/>
      <point x="1517" y="1376" type="curve" smooth="yes"/>
      <point x="1538" y="1382" type="line" smooth="yes"/>
      <point x="1545" y="1384"/>
      <point x="1551" y="1386"/>
      <point x="1553" y="1392" type="curve" smooth="yes"/>
      <point x="1554" y="1396"/>
      <point x="1552" y="1400"/>
      <point x="1545" y="1400" type="curve" smooth="yes"/>
      <point x="1161" y="1400" type="line" smooth="yes"/>
      <point x="1154" y="1400"/>
      <point x="1150" y="1396"/>
      <point x="1149" y="1392" type="curve" smooth="yes"/>
      <point x="1148" y="1387"/>
      <point x="1150" y="1385"/>
      <point x="1158" y="1382" type="curve" smooth="yes"/>
      <point x="1177" y="1376" type="line" smooth="yes"/>
      <point x="1258" y="1350"/>
      <point x="1311" y="1287"/>
      <point x="1280" y="1173" type="curve" smooth="yes"/>
      <point x="1013" y="174" type="line"/>
      <point x="1055" y="256" type="line"/>
      <point x="826" y="1386" type="line" smooth="yes"/>
      <point x="824" y="1396"/>
      <point x="820" y="1400"/>
      <point x="812" y="1400" type="curve" smooth="yes"/>
      <point x="353" y="1400" type="line" smooth="yes"/>
      <point x="335.0" y="1400.0"/>
      <point x="344.0" y="1390.0"/>
      <point x="350" y="1364" type="curve" smooth="yes"/>
      <point x="400" y="1190" type="line" smooth="yes"/>
      <point x="405" y="1173"/>
      <point x="403" y="1170"/>
      <point x="398" y="1154" type="curve" smooth="yes"/>
      <point x="150" y="227" type="line" smooth="yes"/>
      <point x="119" y="112"/>
      <point x="31" y="50"/>
      <point x="-63" y="24" type="curve" smooth="yes"/>
      <point x="-84" y="18" type="line" smooth="yes"/>
      <point x="-91" y="16"/>
      <point x="-97" y="14"/>
      <point x="-99" y="8" type="curve" smooth="yes"/>
      <point x="-100" y="4"/>
      <point x="-98" y="0"/>
      <point x="-91" y="0" type="curve" smooth="yes"/>
      <point x="293" y="0" type="line" smooth="yes"/>
      <point x="300" y="0"/>
      <point x="304" y="4"/>
      <point x="305" y="8" type="curve" smooth="yes"/>
      <point x="306" y="13"/>
      <point x="304" y="15"/>
      <point x="296" y="18" type="curve" smooth="yes"/>
      <point x="277" y="24" type="line" smooth="yes"/>
      <point x="197" y="51"/>
      <point x="143" y="113"/>
      <point x="174" y="226" type="curve" smooth="yes"/>
      <point x="449" y="1254" type="line"/>
      <point x="389" y="1254" type="line"/>
      <point x="638" y="52" type="line" smooth="yes"/>
      <point x="640" y="42"/>
      <point x="640" y="24"/>
      <point x="638" y="16" type="curve" smooth="yes"/>
      <point x="636" y="6"/>
      <point x="638" y="0"/>
      <point x="648" y="0" type="curve" smooth="yes"/>
      <point x="1086" y="0" type="line" smooth="yes"/>
      <point x="1111.3392997769474" y="0.0"/>
      <point x="1102.2596012026013" y="1.834711822310993"/>
      <point x="1094" y="58" type="curve" smooth="yes"/>
      <point x="1063" y="226" type="line" smooth="yes"/>
      <point x="1061" y="237"/>
      <point x="1057" y="250"/>
      <point x="1062" y="268" type="curve" smooth="yes"/>
    </contour>
    <contour>
      <point x="1299" y="135" type="curve" smooth="yes"/>
      <point x="1297" y="127"/>
      <point x="1302" y="123"/>
      <point x="1310" y="123" type="curve" smooth="yes"/>
      <point x="1972" y="123" type="line" smooth="yes"/>
      <point x="1980" y="123"/>
      <point x="1987" y="127"/>
      <point x="1989" y="135" type="curve" smooth="yes"/>
      <point x="1991" y="141"/>
      <point x="1986" y="145"/>
      <point x="1978" y="145" type="curve" smooth="yes"/>
      <point x="1316" y="145" type="line" smooth="yes"/>
      <point x="1308" y="145"/>
      <point x="1301" y="141"/>
    </contour>
    <contour>
      <point x="1961" y="1286" type="curve" smooth="yes"/>
      <point x="1689" y="1286"/>
      <point x="1433" y="1086"/>
      <point x="1360" y="814" type="curve" smooth="yes"/>
      <point x="1287" y="540"/>
      <point x="1425" y="350"/>
      <point x="1695" y="350" type="curve" smooth="yes"/>
      <point x="1972" y="350"/>
      <point x="2219" y="542"/>
      <point x="2292" y="814" type="curve" smooth="yes"/>
      <point x="2367" y="1092"/>
      <point x="2230" y="1286"/>
    </contour>
    <contour>
      <point x="1766" y="370" type="curve" smooth="yes"/>
      <point x="1696" y="359"/>
      <point x="1683" y="495"/>
      <point x="1723" y="802" type="curve" smooth="yes"/>
      <point x="1764" y="1107"/>
      <point x="1823" y="1252"/>
      <point x="1884" y="1263" type="curve" smooth="yes"/>
      <point x="1956" y="1274"/>
      <point x="1970" y="1138"/>
      <point x="1931" y="832" type="curve" smooth="yes"/>
      <point x="1890" y="526"/>
      <point x="1831" y="379"/>
    </contour>
  </outline>
</glyph>
<glyph name="trademark" format="2">
  <advance width="1801"/>
  <unicode hex="2122"/>
  <guideline x="1419.6000000000001" y="1347.6" angle="0" identifier="X2uzwlVdTN"/>
  <outline>
    <contour>
      <point x="1388" y="973" type="line"/>
      <point x="1350" y="1381" type="line" smooth="yes"/>
      <point x="1349" y="1395"/>
      <point x="1343" y="1400"/>
      <point x="1334" y="1400" type="curve" smooth="yes"/>
      <point x="1035" y="1400" type="line" smooth="yes"/>
      <point x="1027" y="1400"/>
      <point x="1023" y="1397"/>
      <point x="1022" y="1392" type="curve" smooth="yes"/>
      <point x="1021" y="1388"/>
      <point x="1022" y="1384"/>
      <point x="1030" y="1383" type="curve" smooth="yes"/>
      <point x="1060" y="1377" type="line" smooth="yes"/>
      <point x="1084" y="1372"/>
      <point x="1079" y="1338"/>
      <point x="1053" y="1267" type="curve" smooth="yes"/>
      <point x="846" y="673" type="line" smooth="yes"/>
      <point x="828" y="618"/>
      <point x="784" y="594"/>
      <point x="730" y="580" type="curve" smooth="yes"/>
      <point x="719" y="577" type="line" smooth="yes"/>
      <point x="714" y="576"/>
      <point x="711" y="573"/>
      <point x="709" y="568" type="curve" smooth="yes"/>
      <point x="708" y="563"/>
      <point x="709" y="560"/>
      <point x="717" y="560" type="curve" smooth="yes"/>
      <point x="940" y="560" type="line" smooth="yes"/>
      <point x="948" y="560"/>
      <point x="950" y="563"/>
      <point x="951" y="568" type="curve" smooth="yes"/>
      <point x="953" y="573"/>
      <point x="951" y="577"/>
      <point x="945" y="578" type="curve" smooth="yes"/>
      <point x="936" y="580" type="line" smooth="yes"/>
      <point x="870" y="595"/>
      <point x="852" y="629"/>
      <point x="867" y="671" type="curve" smooth="yes"/>
      <point x="1093" y="1320" type="line"/>
      <point x="1070" y="1298" type="line"/>
      <point x="1138" y="603" type="line" smooth="yes"/>
      <point x="1139" y="587"/>
      <point x="1142" y="584"/>
      <point x="1146" y="584" type="curve" smooth="yes"/>
      <point x="1152" y="584"/>
      <point x="1161" y="584"/>
      <point x="1172" y="603" type="curve" smooth="yes"/>
      <point x="1607" y="1314" type="line"/>
      <point x="1586" y="1298" type="line"/>
      <point x="1432" y="621" type="line" smooth="yes"/>
      <point x="1427" y="596"/>
      <point x="1420" y="590"/>
      <point x="1398" y="585" type="curve" smooth="yes"/>
      <point x="1363" y="577" type="line" smooth="yes"/>
      <point x="1355" y="575"/>
      <point x="1353" y="573"/>
      <point x="1351" y="568" type="curve" smooth="yes"/>
      <point x="1350" y="563"/>
      <point x="1352" y="560"/>
      <point x="1359" y="560" type="curve" smooth="yes"/>
      <point x="1773" y="560" type="line" smooth="yes"/>
      <point x="1779" y="560"/>
      <point x="1784" y="563"/>
      <point x="1785" y="568" type="curve" smooth="yes"/>
      <point x="1787" y="573"/>
      <point x="1784" y="576"/>
      <point x="1779" y="577" type="curve" smooth="yes"/>
      <point x="1748" y="585" type="line" smooth="yes"/>
      <point x="1728" y="590"/>
      <point x="1725" y="593"/>
      <point x="1730" y="620" type="curve" smooth="yes"/>
      <point x="1872" y="1342" type="line" smooth="yes"/>
      <point x="1875" y="1360"/>
      <point x="1887" y="1369"/>
      <point x="1905" y="1374" type="curve" smooth="yes"/>
      <point x="1941" y="1383" type="line" smooth="yes"/>
      <point x="1948" y="1385"/>
      <point x="1951" y="1388"/>
      <point x="1952" y="1392" type="curve" smooth="yes"/>
      <point x="1953" y="1397"/>
      <point x="1951" y="1400"/>
      <point x="1943" y="1400" type="curve" smooth="yes"/>
      <point x="1659" y="1400" type="line" smooth="yes"/>
      <point x="1644" y="1400"/>
      <point x="1634" y="1396"/>
      <point x="1621" y="1375" type="curve" smooth="yes"/>
      <point x="1364" y="955" type="line"/>
    </contour>
    <contour>
      <point x="486" y="1405" type="line"/>
      <point x="271" y="603" type="line" smooth="yes"/>
      <point x="268" y="593"/>
      <point x="257" y="590"/>
      <point x="238" y="585" type="curve" smooth="yes"/>
      <point x="201" y="576" type="line" smooth="yes"/>
      <point x="194" y="574"/>
      <point x="191" y="572"/>
      <point x="190" y="567" type="curve" smooth="yes"/>
      <point x="189" y="562"/>
      <point x="191" y="559"/>
      <point x="198" y="559" type="curve" smooth="yes"/>
      <point x="596" y="559" type="line" smooth="yes"/>
      <point x="604" y="559"/>
      <point x="607" y="562"/>
      <point x="608" y="567" type="curve" smooth="yes"/>
      <point x="609" y="572"/>
      <point x="608" y="574"/>
      <point x="601" y="576" type="curve" smooth="yes"/>
      <point x="570" y="585" type="line" smooth="yes"/>
      <point x="553" y="590"/>
      <point x="544" y="593"/>
      <point x="547" y="603" type="curve" smooth="yes"/>
      <point x="750" y="1364" type="line"/>
    </contour>
    <contour>
      <point x="382" y="1422" type="curve" smooth="yes"/>
      <point x="273" y="1422"/>
      <point x="207" y="1346"/>
      <point x="205" y="1261" type="curve" smooth="yes"/>
      <point x="204" y="1206"/>
      <point x="231" y="1172"/>
      <point x="274" y="1172" type="curve" smooth="yes"/>
      <point x="316" y="1172"/>
      <point x="343" y="1199"/>
      <point x="344" y="1239" type="curve" smooth="yes"/>
      <point x="345" y="1286"/>
      <point x="320" y="1313"/>
      <point x="320" y="1359" type="curve" smooth="yes"/>
      <point x="321" y="1397"/>
      <point x="341" y="1411"/>
      <point x="382" y="1411" type="curve" smooth="yes"/>
      <point x="502" y="1411"/>
      <point x="764" y="1343"/>
      <point x="869" y="1343" type="curve" smooth="yes"/>
      <point x="936" y="1343"/>
      <point x="987" y="1390"/>
      <point x="988" y="1460" type="curve" smooth="yes"/>
      <point x="989" y="1506"/>
      <point x="960" y="1538"/>
      <point x="922" y="1538" type="curve" smooth="yes"/>
      <point x="884" y="1538"/>
      <point x="855" y="1507"/>
      <point x="855" y="1463" type="curve" smooth="yes"/>
      <point x="854" y="1427"/>
      <point x="864" y="1400"/>
      <point x="864" y="1382" type="curve" smooth="yes"/>
      <point x="864" y="1367"/>
      <point x="854" y="1360"/>
      <point x="838" y="1360" type="curve" smooth="yes"/>
      <point x="795" y="1360"/>
      <point x="502" y="1422"/>
    </contour>
  </outline>
</glyph>
<glyph name="minus" format="2">
  <advance width="910"/>
  <unicode hex="2212"/>
  <outline>
    <contour>
      <point x="157" y="682" type="curve" smooth="yes"/>
      <point x="155" y="675"/>
      <point x="159" y="671"/>
      <point x="167" y="671" type="curve" smooth="yes"/>
      <point x="864" y="671" type="line" smooth="yes"/>
      <point x="870" y="671"/>
      <point x="877" y="675"/>
      <point x="879" y="682" type="curve" smooth="yes"/>
      <point x="880" y="688"/>
      <point x="875" y="692"/>
      <point x="869" y="692" type="curve" smooth="yes"/>
      <point x="172" y="692" type="line" smooth="yes"/>
      <point x="165" y="692"/>
      <point x="158" y="688"/>
    </contour>
  </outline>
</glyph>
<glyph name="notequal" format="2">
  <advance width="910"/>
  <unicode hex="2260"/>
  <outline>
    <contour>
      <point x="100" y="97" type="curve" smooth="yes"/>
      <point x="108" y="97"/>
      <point x="113.441" y="100.879"/>
      <point x="120" y="109" type="curve" smooth="yes"/>
      <point x="1024" y="1228" type="line" smooth="yes"/>
      <point x="1033" y="1240"/>
      <point x="1032" y="1248"/>
      <point x="1023" y="1248" type="curve" smooth="yes"/>
      <point x="1015" y="1248"/>
      <point x="1011" y="1244"/>
      <point x="1002" y="1233" type="curve" smooth="yes"/>
      <point x="100" y="115" type="line" smooth="yes"/>
      <point x="92" y="105"/>
      <point x="92" y="97"/>
    </contour>
    <component base="equal"/>
  </outline>
</glyph>
<glyph name="acute.cap" format="2">
  <advance width="504"/>
  <anchor x="98" y="991" name="center"/>
  <outline>
    <contour>
      <point x="257" y="1226" type="curve" smooth="yes"/>
      <point x="58" y="991" type="line" smooth="yes"/>
      <point x="54" y="987"/>
      <point x="52" y="982"/>
      <point x="53" y="979" type="curve" smooth="yes"/>
      <point x="55" y="974"/>
      <point x="62" y="976"/>
      <point x="65" y="977" type="curve" smooth="yes"/>
      <point x="329" y="1058" type="line" smooth="yes"/>
      <point x="407" y="1082"/>
      <point x="493" y="1124"/>
      <point x="517" y="1217" type="curve" smooth="yes"/>
      <point x="530" y="1266"/>
      <point x="501" y="1329"/>
      <point x="430" y="1329" type="curve" smooth="yes"/>
      <point x="375" y="1329"/>
      <point x="314" y="1294"/>
    </contour>
  </outline>
</glyph>
<glyph name="acutecmb" format="2">
  <advance width="439"/>
  <anchor x="98" y="991" name="center"/>
  <outline>
    <contour>
      <point x="196.4803167781" y="1255" type="curve" smooth="yes"/>
      <point x="55.7225096769" y="993" type="line" smooth="yes"/>
      <point x="53.4294217551" y="988"/>
      <point x="49.653569002" y="985"/>
      <point x="52.6190986646" y="981" type="curve" smooth="yes"/>
      <point x="54.8432459115" y="978"/>
      <point x="59.8432459115" y="978"/>
      <point x="64.3604810802" y="980" type="curve" smooth="yes"/>
      <point x="317.3427956431" y="1123" type="line" smooth="yes"/>
      <point x="386.428881433" y="1162"/>
      <point x="449.6183782352" y="1213"/>
      <point x="469.5319322306" y="1290" type="curve" smooth="yes"/>
      <point x="481.9455762796" y="1338"/>
      <point x="459.462631341" y="1398"/>
      <point x="377.462631341" y="1398" type="curve" smooth="yes"/>
      <point x="307.462631341" y="1398"/>
      <point x="246.5317521232" y="1348"/>
    </contour>
  </outline>
</glyph>
<glyph name="breve.cap" format="2">
  <advance width="650"/>
  <anchor x="344" y="954" name="center"/>
  <outline>
    <contour>
      <point x="374" y="1175" type="curve" smooth="yes"/>
      <point x="267" y="1175"/>
      <point x="183" y="1200"/>
      <point x="148" y="1284" type="curve" smooth="yes"/>
      <point x="146" y="1289"/>
      <point x="143" y="1291"/>
      <point x="139" y="1291" type="curve" smooth="yes"/>
      <point x="132" y="1291"/>
      <point x="128" y="1286"/>
      <point x="127" y="1277" type="curve" smooth="yes"/>
      <point x="89" y="1074"/>
      <point x="183" y="980"/>
      <point x="324" y="980" type="curve" smooth="yes"/>
      <point x="469" y="980"/>
      <point x="609" y="1074"/>
      <point x="677" y="1277" type="curve" smooth="yes"/>
      <point x="680" y="1286"/>
      <point x="677" y="1291"/>
      <point x="671" y="1291" type="curve" smooth="yes"/>
      <point x="667" y="1291"/>
      <point x="664" y="1289"/>
      <point x="660" y="1284" type="curve" smooth="yes"/>
      <point x="587" y="1208"/>
      <point x="499" y="1175"/>
    </contour>
  </outline>
</glyph>
<glyph name="breveacute.cap" format="2">
  <advance width="650"/>
  <anchor x="344" y="954" name="center"/>
  <outline>
    <contour>
      <point x="374.43" y="1175" type="curve" smooth="yes"/>
      <point x="267.43" y="1175"/>
      <point x="182.896" y="1200"/>
      <point x="147.62" y="1284" type="curve" smooth="yes"/>
      <point x="145.913" y="1289"/>
      <point x="143.43" y="1291"/>
      <point x="139.43" y="1291" type="curve" smooth="yes"/>
      <point x="132.43" y="1291"/>
      <point x="128.137" y="1286"/>
      <point x="126.809" y="1277" type="curve" smooth="yes"/>
      <point x="89.31" y="1074"/>
      <point x="183" y="980"/>
      <point x="324" y="980" type="curve" smooth="yes"/>
      <point x="469" y="980"/>
      <point x="609.31" y="1074"/>
      <point x="676.809" y="1277" type="curve" smooth="yes"/>
      <point x="680.137" y="1286"/>
      <point x="677.43" y="1291"/>
      <point x="671.43" y="1291" type="curve" smooth="yes"/>
      <point x="667.43" y="1291"/>
      <point x="663.913" y="1289"/>
      <point x="659.62" y="1284" type="curve" smooth="yes"/>
      <point x="586.965" y="1208"/>
      <point x="499.43" y="1175"/>
    </contour>
    <contour>
      <point x="467.947" y="1467" type="curve" smooth="yes"/>
      <point x="285.12" y="1255" type="line" smooth="yes"/>
      <point x="282.344" y="1252"/>
      <point x="278.051" y="1247"/>
      <point x="279.758" y="1242" type="curve" smooth="yes"/>
      <point x="280.982" y="1239"/>
      <point x="285.982" y="1239"/>
      <point x="291.499" y="1241" type="curve" smooth="yes"/>
      <point x="535.413" y="1318" type="line" smooth="yes"/>
      <point x="608.361" y="1341"/>
      <point x="687.447" y="1380"/>
      <point x="708.395" y="1461" type="curve" smooth="yes"/>
      <point x="721.585" y="1512"/>
      <point x="694.774" y="1563"/>
      <point x="626.774" y="1563" type="curve" smooth="yes"/>
      <point x="575.774" y="1563"/>
      <point x="523.498" y="1531"/>
    </contour>
  </outline>
</glyph>
<glyph name="breveacute" format="2">
  <advance width="650"/>
  <anchor x="344" y="954" name="center"/>
  <outline>
    <contour>
      <point x="469.4293483052" y="1523" type="curve" smooth="yes"/>
      <point x="342.6197456442" y="1284" type="line" smooth="yes"/>
      <point x="340.5852753068" y="1280"/>
      <point x="337.292187385" y="1275"/>
      <point x="340.2577170476" y="1271" type="curve" smooth="yes"/>
      <point x="343.9990994632" y="1270"/>
      <point x="347.9990994632" y="1270"/>
      <point x="352.7749522163" y="1273" type="curve" smooth="yes"/>
      <point x="580.1710909356" y="1406" type="line" smooth="yes"/>
      <point x="642.4813239724" y="1442"/>
      <point x="697.8604976841" y="1486"/>
      <point x="715.963728589" y="1556" type="curve" smooth="yes"/>
      <point x="727.0842847163" y="1599"/>
      <point x="707.7910166872" y="1652"/>
      <point x="633.3082518559" y="1654" type="curve" smooth="yes"/>
      <point x="570.0496342715" y="1653"/>
      <point x="514.6704605599" y="1609"/>
    </contour>
    <contour>
      <point x="374.4304289494" y="1175" type="curve" smooth="yes"/>
      <point x="267.4304289494" y="1175"/>
      <point x="196.033749908" y="1216"/>
      <point x="155.3782731749" y="1314" type="curve" smooth="yes"/>
      <point x="153.6713610966" y="1319"/>
      <point x="151.1885962654" y="1321"/>
      <point x="147.1885962654" y="1321" type="curve" smooth="yes"/>
      <point x="140.1885962654" y="1321"/>
      <point x="135.8955083436" y="1316"/>
      <point x="134.5679500844" y="1307" type="curve" smooth="yes"/>
      <point x="93.896228773" y="1084"/>
      <point x="183" y="980"/>
      <point x="324" y="980" type="curve" smooth="yes"/>
      <point x="469" y="980"/>
      <point x="609.896228773" y="1084"/>
      <point x="684.5679500844" y="1307" type="curve" smooth="yes"/>
      <point x="687.8955083436" y="1316"/>
      <point x="685.1885962654" y="1321"/>
      <point x="679.1885962654" y="1321" type="curve" smooth="yes"/>
      <point x="675.1885962654" y="1321"/>
      <point x="671.6713610966" y="1319"/>
      <point x="667.3782731749" y="1314" type="curve" smooth="yes"/>
      <point x="582.6199257515" y="1226"/>
      <point x="499.4304289494" y="1175"/>
    </contour>
  </outline>
</glyph>
<glyph name="brevegrave.cap" format="2">
  <advance width="650"/>
  <anchor x="344" y="954" name="center"/>
  <outline>
    <contour>
      <point x="374.43" y="1175" type="curve" smooth="yes"/>
      <point x="267.43" y="1175"/>
      <point x="182.896" y="1200"/>
      <point x="147.62" y="1284" type="curve" smooth="yes"/>
      <point x="145.913" y="1289"/>
      <point x="143.43" y="1291"/>
      <point x="139.43" y="1291" type="curve" smooth="yes"/>
      <point x="132.43" y="1291"/>
      <point x="128.137" y="1286"/>
      <point x="126.809" y="1277" type="curve" smooth="yes"/>
      <point x="89.31" y="1074"/>
      <point x="183" y="980"/>
      <point x="324" y="980" type="curve" smooth="yes"/>
      <point x="469" y="980"/>
      <point x="609.31" y="1074"/>
      <point x="676.809" y="1277" type="curve" smooth="yes"/>
      <point x="680.137" y="1286"/>
      <point x="677.43" y="1291"/>
      <point x="671.43" y="1291" type="curve" smooth="yes"/>
      <point x="667.43" y="1291"/>
      <point x="663.913" y="1289"/>
      <point x="659.62" y="1284" type="curve" smooth="yes"/>
      <point x="586.965" y="1208"/>
      <point x="499.43" y="1175"/>
    </contour>
    <contour>
      <point x="445.947" y="1467" type="line" smooth="yes"/>
      <point x="423.498" y="1531"/>
      <point x="387.774" y="1563"/>
      <point x="336.774" y="1563" type="curve" smooth="yes"/>
      <point x="268.774" y="1563"/>
      <point x="215.585" y="1512"/>
      <point x="202.395" y="1461" type="curve" smooth="yes"/>
      <point x="181.447" y="1380"/>
      <point x="240.361" y="1341"/>
      <point x="301.413" y="1318" type="curve" smooth="yes"/>
      <point x="505.499" y="1241" type="line" smooth="yes"/>
      <point x="509.982" y="1239"/>
      <point x="514.982" y="1239"/>
      <point x="517.758" y="1242" type="curve" smooth="yes"/>
      <point x="522.051" y="1247"/>
      <point x="520.344" y="1252"/>
      <point x="519.12" y="1255" type="curve" smooth="yes"/>
    </contour>
  </outline>
</glyph>
<glyph name="brevegrave" format="2">
  <advance width="650"/>
  <anchor x="344" y="954" name="center"/>
  <outline>
    <contour>
      <point x="479.4293483052" y="1523" type="line" smooth="yes"/>
      <point x="478.6704605599" y="1609"/>
      <point x="446.0496342715" y="1653"/>
      <point x="383.3082518559" y="1654" type="curve" smooth="yes"/>
      <point x="307.7910166872" y="1652"/>
      <point x="261.0842847163" y="1599"/>
      <point x="249.963728589" y="1556" type="curve" smooth="yes"/>
      <point x="231.8604976841" y="1486"/>
      <point x="264.4813239724" y="1442"/>
      <point x="308.1710909356" y="1406" type="curve" smooth="yes"/>
      <point x="466.7749522163" y="1273" type="line" smooth="yes"/>
      <point x="469.9990994632" y="1270"/>
      <point x="473.9990994632" y="1270"/>
      <point x="478.2577170476" y="1271" type="curve" smooth="yes"/>
      <point x="483.292187385" y="1275"/>
      <point x="482.5852753068" y="1280"/>
      <point x="482.6197456442" y="1284" type="curve" smooth="yes"/>
    </contour>
    <contour>
      <point x="374.4304289494" y="1175" type="curve" smooth="yes"/>
      <point x="267.4304289494" y="1175"/>
      <point x="196.033749908" y="1216"/>
      <point x="155.3782731749" y="1314" type="curve" smooth="yes"/>
      <point x="153.6713610966" y="1319"/>
      <point x="151.1885962654" y="1321"/>
      <point x="147.1885962654" y="1321" type="curve" smooth="yes"/>
      <point x="140.1885962654" y="1321"/>
      <point x="135.8955083436" y="1316"/>
      <point x="134.5679500844" y="1307" type="curve" smooth="yes"/>
      <point x="93.896228773" y="1084"/>
      <point x="183" y="980"/>
      <point x="324" y="980" type="curve" smooth="yes"/>
      <point x="469" y="980"/>
      <point x="609.896228773" y="1084"/>
      <point x="684.5679500844" y="1307" type="curve" smooth="yes"/>
      <point x="687.8955083436" y="1316"/>
      <point x="685.1885962654" y="1321"/>
      <point x="679.1885962654" y="1321" type="curve" smooth="yes"/>
      <point x="675.1885962654" y="1321"/>
      <point x="671.6713610966" y="1319"/>
      <point x="667.3782731749" y="1314" type="curve" smooth="yes"/>
      <point x="582.6199257515" y="1226"/>
      <point x="499.4304289494" y="1175"/>
    </contour>
  </outline>
</glyph>
<glyph name="brevehook.cap" format="2">
  <advance width="650"/>
  <anchor x="344" y="954" name="center"/>
  <outline>
    <contour>
      <point x="374.43" y="1175" type="curve" smooth="yes"/>
      <point x="267.43" y="1175"/>
      <point x="182.896" y="1200"/>
      <point x="147.62" y="1284" type="curve" smooth="yes"/>
      <point x="145.913" y="1289"/>
      <point x="143.43" y="1291"/>
      <point x="139.43" y="1291" type="curve" smooth="yes"/>
      <point x="132.43" y="1291"/>
      <point x="128.137" y="1286"/>
      <point x="126.809" y="1277" type="curve" smooth="yes"/>
      <point x="89.31" y="1074"/>
      <point x="183" y="980"/>
      <point x="324" y="980" type="curve" smooth="yes"/>
      <point x="469" y="980"/>
      <point x="609.31" y="1074"/>
      <point x="676.809" y="1277" type="curve" smooth="yes"/>
      <point x="680.137" y="1286"/>
      <point x="677.43" y="1291"/>
      <point x="671.43" y="1291" type="curve" smooth="yes"/>
      <point x="667.43" y="1291"/>
      <point x="663.913" y="1289"/>
      <point x="659.62" y="1284" type="curve" smooth="yes"/>
      <point x="586.965" y="1208"/>
      <point x="499.43" y="1175"/>
    </contour>
    <contour>
      <point x="319.62" y="1284" type="curve" smooth="yes"/>
      <point x="320.913" y="1289"/>
      <point x="322.689" y="1292"/>
      <point x="330.689" y="1292" type="curve" smooth="yes"/>
      <point x="399.689" y="1292"/>
      <point x="456.551" y="1334"/>
      <point x="483.964" y="1440" type="curve" smooth="yes"/>
      <point x="508.016" y="1533"/>
      <point x="495.964" y="1556"/>
      <point x="464.964" y="1556" type="curve" smooth="yes"/>
      <point x="438.964" y="1556"/>
      <point x="417.016" y="1533"/>
      <point x="405.119" y="1487" type="curve" smooth="yes"/>
      <point x="396.067" y="1452" type="line" smooth="yes"/>
      <point x="381.844" y="1397"/>
      <point x="345.568" y="1365"/>
      <point x="295.568" y="1365" type="curve" smooth="yes"/>
      <point x="250.568" y="1365"/>
      <point x="227.292" y="1391"/>
      <point x="238.412" y="1434" type="curve" smooth="yes"/>
      <point x="257.55" y="1508"/>
      <point x="357.584" y="1570"/>
      <point x="474.584" y="1570" type="curve" smooth="yes"/>
      <point x="616.584" y="1570"/>
      <point x="668.878" y="1517"/>
      <point x="648.705" y="1439" type="curve" smooth="yes"/>
      <point x="622.068" y="1336"/>
      <point x="508.551" y="1276"/>
      <point x="327.551" y="1276" type="curve" smooth="yes"/>
      <point x="319.551" y="1276"/>
      <point x="318.327" y="1279"/>
    </contour>
  </outline>
</glyph>
<glyph name="brevehook" format="2">
  <advance width="650"/>
  <anchor x="344" y="954" name="center"/>
  <outline>
    <contour>
      <point x="319.6197456442" y="1284" type="curve" smooth="yes"/>
      <point x="320.912833566" y="1289"/>
      <point x="322.688686319" y="1292"/>
      <point x="330.688686319" y="1292" type="curve" smooth="yes"/>
      <point x="399.688686319" y="1292"/>
      <point x="456.550624862" y="1334"/>
      <point x="483.9640888037" y="1440" type="curve" smooth="yes"/>
      <point x="508.0155241488" y="1533"/>
      <point x="495.963728589" y="1556"/>
      <point x="464.963728589" y="1556" type="curve" smooth="yes"/>
      <point x="438.963728589" y="1556"/>
      <point x="417.0155241488" y="1533"/>
      <point x="405.1191152684" y="1487" type="curve" smooth="yes"/>
      <point x="396.067499816" y="1452" type="line" smooth="yes"/>
      <point x="381.8435326764" y="1397"/>
      <point x="345.567769977" y="1365"/>
      <point x="295.567769977" y="1365" type="curve" smooth="yes"/>
      <point x="250.567769977" y="1365"/>
      <point x="227.2918271703" y="1391"/>
      <point x="238.4123832976" y="1434" type="curve" smooth="yes"/>
      <point x="257.5500845399" y="1508"/>
      <point x="357.58437477" y="1570"/>
      <point x="474.58437477" y="1570" type="curve" smooth="yes"/>
      <point x="616.58437477" y="1570"/>
      <point x="668.8776427991" y="1517"/>
      <point x="648.7054712194" y="1439" type="curve" smooth="yes"/>
      <point x="622.0678600307" y="1336"/>
      <point x="508.5508049693" y="1276"/>
      <point x="327.5508049693" y="1276" type="curve" smooth="yes"/>
      <point x="319.5508049693" y="1276"/>
      <point x="318.3266577224" y="1279"/>
    </contour>
    <contour>
      <point x="374.4304289494" y="1175" type="curve" smooth="yes"/>
      <point x="267.4304289494" y="1175"/>
      <point x="196.033749908" y="1216"/>
      <point x="155.3782731749" y="1314" type="curve" smooth="yes"/>
      <point x="153.6713610966" y="1319"/>
      <point x="151.1885962654" y="1321"/>
      <point x="147.1885962654" y="1321" type="curve" smooth="yes"/>
      <point x="140.1885962654" y="1321"/>
      <point x="135.8955083436" y="1316"/>
      <point x="134.5679500844" y="1307" type="curve" smooth="yes"/>
      <point x="93.896228773" y="1084"/>
      <point x="183" y="980"/>
      <point x="324" y="980" type="curve" smooth="yes"/>
      <point x="469" y="980"/>
      <point x="609.896228773" y="1084"/>
      <point x="684.5679500844" y="1307" type="curve" smooth="yes"/>
      <point x="687.8955083436" y="1316"/>
      <point x="685.1885962654" y="1321"/>
      <point x="679.1885962654" y="1321" type="curve" smooth="yes"/>
      <point x="675.1885962654" y="1321"/>
      <point x="671.6713610966" y="1319"/>
      <point x="667.3782731749" y="1314" type="curve" smooth="yes"/>
      <point x="582.6199257515" y="1226"/>
      <point x="499.4304289494" y="1175"/>
    </contour>
  </outline>
</glyph>
<glyph name="brevetilde.cap" format="2">
  <advance width="650"/>
  <anchor x="344" y="954" name="center"/>
  <outline>
    <contour>
      <point x="374.4304289494" y="1175" type="curve" smooth="yes"/>
      <point x="267.4304289494" y="1175"/>
      <point x="182.8958685583" y="1200"/>
      <point x="147.6197456442" y="1284" type="curve"/>
      <point x="145.912833566" y="1289"/>
      <point x="143.4300687347" y="1291"/>
      <point x="139.4300687347" y="1291" type="curve" smooth="yes"/>
      <point x="132.4300687347" y="1291"/>
      <point x="128.1369808129" y="1286"/>
      <point x="126.8094225537" y="1277" type="curve" smooth="yes"/>
      <point x="89.3100529295" y="1074"/>
      <point x="183" y="980"/>
      <point x="324" y="980" type="curve" smooth="yes"/>
      <point x="469" y="980"/>
      <point x="609.3100529295" y="1074"/>
      <point x="676.8094225537" y="1277" type="curve" smooth="yes"/>
      <point x="680.1369808129" y="1286"/>
      <point x="677.4300687347" y="1291"/>
      <point x="671.4300687347" y="1291" type="curve" smooth="yes"/>
      <point x="667.4300687347" y="1291"/>
      <point x="663.912833566" y="1289"/>
      <point x="659.6197456442" y="1284" type="curve"/>
      <point x="586.9648092331" y="1208"/>
      <point x="499.4304289494" y="1175"/>
    </contour>
    <contour>
      <point x="505.2403918252" y="1298" type="curve" smooth="yes"/>
      <point x="612.2403918252" y="1298"/>
      <point x="681.4470337424" y="1380"/>
      <point x="720.7569065645" y="1532" type="curve" smooth="yes"/>
      <point x="722.8258472393" y="1540"/>
      <point x="720.8603175767" y="1544"/>
      <point x="714.8603175767" y="1544" type="curve" smooth="yes"/>
      <point x="708.8603175767" y="1544"/>
      <point x="704.8258472393" y="1540"/>
      <point x="702.7569065645" y="1532" type="curve" smooth="yes"/>
      <point x="688.5674097623" y="1481"/>
      <point x="662.6192053221" y="1458"/>
      <point x="623.6192053221" y="1458" type="curve" smooth="yes"/>
      <point x="549.6192053221" y="1458"/>
      <point x="480.58437477" y="1570"/>
      <point x="379.58437477" y="1570" type="curve" smooth="yes"/>
      <point x="272.58437477" y="1570"/>
      <point x="203.3777328528" y="1488"/>
      <point x="164.0678600307" y="1336" type="curve" smooth="yes"/>
      <point x="161.9989193558" y="1328"/>
      <point x="163.9644490184" y="1324"/>
      <point x="169.9644490184" y="1324" type="curve" smooth="yes"/>
      <point x="175.9644490184" y="1324"/>
      <point x="179.9989193558" y="1328"/>
      <point x="182.0678600307" y="1336" type="curve" smooth="yes"/>
      <point x="196.2573568328" y="1387"/>
      <point x="221.205561273" y="1410"/>
      <point x="261.205561273" y="1410" type="curve" smooth="yes"/>
      <point x="333.205561273" y="1410"/>
      <point x="405.2403918252" y="1298"/>
    </contour>
  </outline>
</glyph>
<glyph name="brevetilde" format="2">
  <advance width="650"/>
  <anchor x="344" y="954" name="center"/>
  <outline>
    <contour>
      <point x="374.43" y="1175" type="curve" smooth="yes"/>
      <point x="267.43" y="1175"/>
      <point x="196.034" y="1216"/>
      <point x="155.378" y="1314" type="curve" smooth="yes"/>
      <point x="153.671" y="1319"/>
      <point x="151.189" y="1321"/>
      <point x="147.189" y="1321" type="curve" smooth="yes"/>
      <point x="140.189" y="1321"/>
      <point x="135.896" y="1316"/>
      <point x="134.568" y="1307" type="curve" smooth="yes"/>
      <point x="93.896" y="1084"/>
      <point x="183" y="980"/>
      <point x="324" y="980" type="curve" smooth="yes"/>
      <point x="469" y="980"/>
      <point x="609.896" y="1084"/>
      <point x="684.568" y="1307" type="curve" smooth="yes"/>
      <point x="687.896" y="1316"/>
      <point x="685.189" y="1321"/>
      <point x="679.189" y="1321" type="curve" smooth="yes"/>
      <point x="675.189" y="1321"/>
      <point x="671.671" y="1319"/>
      <point x="667.378" y="1314" type="curve" smooth="yes"/>
      <point x="582.62" y="1226"/>
      <point x="499.43" y="1175"/>
    </contour>
    <contour>
      <point x="340.964" y="1440"/>
      <point x="412.999" y="1328"/>
      <point x="512.999" y="1328" type="curve" smooth="yes"/>
      <point x="619.999" y="1328"/>
      <point x="689.206" y="1410"/>
      <point x="728.515" y="1562" type="curve" smooth="yes"/>
      <point x="730.584" y="1570"/>
      <point x="728.619" y="1574"/>
      <point x="722.619" y="1574" type="curve" smooth="yes"/>
      <point x="716.619" y="1574"/>
      <point x="712.584" y="1570"/>
      <point x="710.515" y="1562" type="curve" smooth="yes"/>
      <point x="696.326" y="1511"/>
      <point x="670.378" y="1488"/>
      <point x="631.378" y="1488" type="curve" smooth="yes"/>
      <point x="557.378" y="1488"/>
      <point x="488.343" y="1600"/>
      <point x="387.343" y="1600" type="curve" smooth="yes"/>
      <point x="280.343" y="1600"/>
      <point x="211.136" y="1518"/>
      <point x="171.826" y="1366" type="curve" smooth="yes"/>
      <point x="169.757" y="1358"/>
      <point x="171.723" y="1354"/>
      <point x="177.723" y="1354" type="curve" smooth="yes"/>
      <point x="183.723" y="1354"/>
      <point x="187.757" y="1358"/>
      <point x="189.826" y="1366" type="curve" smooth="yes"/>
      <point x="204.016" y="1417"/>
      <point x="228.964" y="1440"/>
      <point x="268.964" y="1440" type="curve" smooth="yes"/>
    </contour>
  </outline>
</glyph>
<glyph name="caron.cap" format="2">
  <advance width="738"/>
  <outline>
    <contour>
      <point x="553" y="1162" type="line"/>
      <point x="361" y="1162" type="line"/>
      <point x="794" y="1312" type="line" smooth="yes"/>
      <point x="802" y="1315"/>
      <point x="808" y="1316"/>
      <point x="812" y="1313" type="curve" smooth="yes"/>
      <point x="814" y="1310"/>
      <point x="813" y="1304"/>
      <point x="807" y="1298" type="curve" smooth="yes"/>
      <point x="433" y="991" type="line" smooth="yes"/>
      <point x="423" y="982"/>
      <point x="418" y="978"/>
      <point x="409" y="978" type="curve" smooth="yes"/>
      <point x="400" y="978"/>
      <point x="397" y="982"/>
      <point x="391" y="991" type="curve" smooth="yes"/>
      <point x="177" y="1298" type="line" smooth="yes"/>
      <point x="173" y="1304"/>
      <point x="175" y="1310"/>
      <point x="180" y="1313" type="curve" smooth="yes"/>
      <point x="183" y="1316"/>
      <point x="189" y="1315"/>
      <point x="195" y="1312" type="curve" smooth="yes"/>
    </contour>
  </outline>
</glyph>
<glyph name="circumflexacute.cap" format="2">
  <advance width="984"/>
  <anchor x="420" y="1062" name="center"/>
  <outline>
    <contour>
      <point x="504.5197121044" y="1132" type="line"/>
      <point x="70.7270744511" y="982" type="line" smooth="yes"/>
      <point x="62.951221698" y="979"/>
      <point x="56.6926041136" y="978"/>
      <point x="53.4684568667" y="981" type="curve" smooth="yes"/>
      <point x="51.2443096198" y="984"/>
      <point x="51.7960151259" y="990"/>
      <point x="58.347720632" y="996" type="curve" smooth="yes"/>
      <point x="431.7433190293" y="1303" type="line" smooth="yes"/>
      <point x="442.0708772885" y="1312"/>
      <point x="447.1053476259" y="1316"/>
      <point x="456.1053476259" y="1316" type="curve" smooth="yes"/>
      <point x="465.1053476259" y="1316"/>
      <point x="468.0708772885" y="1312"/>
      <point x="473.7433190293" y="1303" type="curve" smooth="yes"/>
      <point x="688.347720632" y="996" type="line" smooth="yes"/>
      <point x="691.7960151259" y="990"/>
      <point x="690.2443096198" y="984"/>
      <point x="685.4684568667" y="981" type="curve" smooth="yes"/>
      <point x="681.6926041136" y="978"/>
      <point x="675.951221698" y="979"/>
      <point x="669.7270744511" y="982" type="curve" smooth="yes"/>
      <point x="312.5197121044" y="1132" type="line"/>
    </contour>
    <contour>
      <point x="801.3464598805" y="1402" type="curve" smooth="yes"/>
      <point x="618.5195319971" y="1190" type="line" smooth="yes"/>
      <point x="615.743679244" y="1187"/>
      <point x="611.4505913222" y="1182"/>
      <point x="613.1575034004" y="1177" type="curve" smooth="yes"/>
      <point x="614.3816506474" y="1174"/>
      <point x="619.3816506474" y="1174"/>
      <point x="624.8988858161" y="1176" type="curve" smooth="yes"/>
      <point x="868.8124398115" y="1253" type="line" smooth="yes"/>
      <point x="941.7606442517" y="1276"/>
      <point x="1020.8467300416" y="1315"/>
      <point x="1041.7947543744" y="1396" type="curve" smooth="yes"/>
      <point x="1054.9842511765" y="1447"/>
      <point x="1028.1737479787" y="1498"/>
      <point x="960.1737479787" y="1498" type="curve" smooth="yes"/>
      <point x="909.1737479787" y="1498"/>
      <point x="856.8979852793" y="1466"/>
    </contour>
  </outline>
</glyph>
<glyph name="circumflexacute" format="2">
  <advance width="954"/>
  <anchor x="419" y="980" name="center"/>
  <outline>
    <contour>
      <point x="517.451" y="1162" type="line"/>
      <point x="70.727" y="962" type="line" smooth="yes"/>
      <point x="62.951" y="959"/>
      <point x="56.693" y="958"/>
      <point x="53.468" y="961" type="curve" smooth="yes"/>
      <point x="51.244" y="964"/>
      <point x="51.796" y="970"/>
      <point x="58.348" y="976" type="curve" smooth="yes"/>
      <point x="444.674" y="1333" type="line" smooth="yes"/>
      <point x="455.002" y="1342"/>
      <point x="460.036" y="1346"/>
      <point x="469.036" y="1346" type="curve" smooth="yes"/>
      <point x="478.036" y="1346"/>
      <point x="481.002" y="1342"/>
      <point x="486.674" y="1333" type="curve" smooth="yes"/>
      <point x="688.348" y="976" type="line" smooth="yes"/>
      <point x="691.796" y="970"/>
      <point x="690.244" y="964"/>
      <point x="685.468" y="961" type="curve" smooth="yes"/>
      <point x="681.693" y="958"/>
      <point x="675.951" y="959"/>
      <point x="669.727" y="962" type="curve" smooth="yes"/>
      <point x="325.451" y="1162" type="line"/>
    </contour>
    <contour>
      <point x="778.191" y="1393" type="curve" smooth="yes"/>
      <point x="651.382" y="1154" type="line" smooth="yes"/>
      <point x="649.347" y="1150"/>
      <point x="646.054" y="1145"/>
      <point x="649.02" y="1141" type="curve" smooth="yes"/>
      <point x="652.761" y="1140"/>
      <point x="656.761" y="1140"/>
      <point x="661.537" y="1143" type="curve" smooth="yes"/>
      <point x="888.933" y="1276" type="line" smooth="yes"/>
      <point x="951.243" y="1312"/>
      <point x="1006.622" y="1356"/>
      <point x="1024.726" y="1426" type="curve" smooth="yes"/>
      <point x="1035.846" y="1469"/>
      <point x="1016.553" y="1522"/>
      <point x="942.07" y="1524" type="curve" smooth="yes"/>
      <point x="878.812" y="1523"/>
      <point x="823.432" y="1479"/>
    </contour>
  </outline>
</glyph>
<glyph name="circumflexgrave.cap" format="2">
  <advance width="766"/>
  <anchor x="420" y="1062" name="center"/>
  <outline>
    <contour>
      <point x="504.5197121044" y="1132" type="line"/>
      <point x="70.7270744511" y="982" type="line" smooth="yes"/>
      <point x="62.951221698" y="979"/>
      <point x="56.6926041136" y="978"/>
      <point x="53.4684568667" y="981" type="curve" smooth="yes"/>
      <point x="51.2443096198" y="984"/>
      <point x="51.7960151259" y="990"/>
      <point x="58.347720632" y="996" type="curve" smooth="yes"/>
      <point x="431.7433190293" y="1303" type="line" smooth="yes"/>
      <point x="442.0708772885" y="1312"/>
      <point x="447.1053476259" y="1316"/>
      <point x="456.1053476259" y="1316" type="curve" smooth="yes"/>
      <point x="465.1053476259" y="1316"/>
      <point x="468.0708772885" y="1312"/>
      <point x="473.7433190293" y="1303" type="curve" smooth="yes"/>
      <point x="688.347720632" y="996" type="line" smooth="yes"/>
      <point x="691.7960151259" y="990"/>
      <point x="690.2443096198" y="984"/>
      <point x="685.4684568667" y="981" type="curve" smooth="yes"/>
      <point x="681.6926041136" y="978"/>
      <point x="675.951221698" y="979"/>
      <point x="669.7270744511" y="982" type="curve" smooth="yes"/>
      <point x="312.5197121044" y="1132" type="line"/>
    </contour>
    <contour>
      <point x="762.1912533084" y="1413" type="line" smooth="yes"/>
      <point x="761.432365563" y="1499"/>
      <point x="728.8115392747" y="1543"/>
      <point x="666.0701568591" y="1544" type="curve" smooth="yes"/>
      <point x="590.5529216903" y="1542"/>
      <point x="543.8461897195" y="1489"/>
      <point x="532.7256335922" y="1446" type="curve" smooth="yes"/>
      <point x="514.6224026873" y="1376"/>
      <point x="547.2432289756" y="1332"/>
      <point x="590.9329959388" y="1296" type="curve" smooth="yes"/>
      <point x="749.5368572195" y="1163" type="line" smooth="yes"/>
      <point x="752.7610044664" y="1160"/>
      <point x="756.7610044664" y="1160"/>
      <point x="761.0196220508" y="1161" type="curve" smooth="yes"/>
      <point x="766.0540923882" y="1165"/>
      <point x="765.34718031" y="1170"/>
      <point x="765.3816506474" y="1174" type="curve" smooth="yes"/>
    </contour>
  </outline>
</glyph>
<glyph name="circumflexgrave" format="2">
  <advance width="791"/>
  <anchor x="419" y="980" name="center"/>
  <outline>
    <contour>
      <point x="517.4505913222" y="1162" type="line"/>
      <point x="70.7270744511" y="962" type="line" smooth="yes"/>
      <point x="62.951221698" y="959"/>
      <point x="56.6926041136" y="958"/>
      <point x="53.4684568667" y="961" type="curve" smooth="yes"/>
      <point x="51.2443096198" y="964"/>
      <point x="51.7960151259" y="970"/>
      <point x="58.347720632" y="976" type="curve" smooth="yes"/>
      <point x="444.6741982471" y="1333" type="line" smooth="yes"/>
      <point x="455.0017565063" y="1342"/>
      <point x="460.0362268437" y="1346"/>
      <point x="469.0362268437" y="1346" type="curve" smooth="yes"/>
      <point x="478.0362268437" y="1346"/>
      <point x="481.0017565063" y="1342"/>
      <point x="486.6741982471" y="1333" type="curve" smooth="yes"/>
      <point x="688.347720632" y="976" type="line" smooth="yes"/>
      <point x="691.7960151259" y="970"/>
      <point x="690.2443096198" y="964"/>
      <point x="685.4684568667" y="961" type="curve" smooth="yes"/>
      <point x="681.6926041136" y="958"/>
      <point x="675.951221698" y="959"/>
      <point x="669.7270744511" y="962" type="curve" smooth="yes"/>
      <point x="325.4505913222" y="1162" type="line"/>
    </contour>
    <contour>
      <point x="787.1912533084" y="1393" type="line" smooth="yes"/>
      <point x="786.432365563" y="1479"/>
      <point x="753.8115392747" y="1523"/>
      <point x="691.0701568591" y="1524" type="curve" smooth="yes"/>
      <point x="615.5529216903" y="1522"/>
      <point x="568.8461897195" y="1469"/>
      <point x="557.7256335922" y="1426" type="curve" smooth="yes"/>
      <point x="539.6224026873" y="1356"/>
      <point x="572.2432289756" y="1312"/>
      <point x="615.9329959388" y="1276" type="curve" smooth="yes"/>
      <point x="774.5368572195" y="1143" type="line" smooth="yes"/>
      <point x="777.7610044664" y="1140"/>
      <point x="781.7610044664" y="1140"/>
      <point x="786.0196220508" y="1141" type="curve" smooth="yes"/>
      <point x="791.0540923882" y="1145"/>
      <point x="790.34718031" y="1150"/>
      <point x="790.3816506474" y="1154" type="curve" smooth="yes"/>
    </contour>
  </outline>
</glyph>
<glyph name="circumflexhook.cap" format="2">
  <advance width="932"/>
  <anchor x="420" y="1062" name="center"/>
  <outline>
    <contour>
      <point x="504.52" y="1132" type="line"/>
      <point x="70.727" y="982" type="line" smooth="yes"/>
      <point x="62.951" y="979"/>
      <point x="56.693" y="978"/>
      <point x="53.468" y="981" type="curve" smooth="yes"/>
      <point x="51.244" y="984"/>
      <point x="51.796" y="990"/>
      <point x="58.348" y="996" type="curve" smooth="yes"/>
      <point x="431.743" y="1303" type="line" smooth="yes"/>
      <point x="442.071" y="1312"/>
      <point x="447.105" y="1316"/>
      <point x="456.105" y="1316" type="curve" smooth="yes"/>
      <point x="465.105" y="1316"/>
      <point x="468.071" y="1312"/>
      <point x="473.743" y="1303" type="curve" smooth="yes"/>
      <point x="688.348" y="996" type="line" smooth="yes"/>
      <point x="691.796" y="990"/>
      <point x="690.244" y="984"/>
      <point x="685.468" y="981" type="curve" smooth="yes"/>
      <point x="681.693" y="978"/>
      <point x="675.951" y="979"/>
      <point x="669.727" y="982" type="curve" smooth="yes"/>
      <point x="312.52" y="1132" type="line"/>
    </contour>
    <contour>
      <point x="644.089" y="1169"/>
      <point x="642.864" y="1172"/>
      <point x="644.158" y="1177" type="curve" smooth="yes"/>
      <point x="645.451" y="1182"/>
      <point x="647.226" y="1185"/>
      <point x="655.226" y="1185" type="curve" smooth="yes"/>
      <point x="724.226" y="1185"/>
      <point x="781.088" y="1227"/>
      <point x="808.502" y="1333" type="curve" smooth="yes"/>
      <point x="832.553" y="1426"/>
      <point x="820.501" y="1449"/>
      <point x="789.501" y="1449" type="curve" smooth="yes"/>
      <point x="763.501" y="1449"/>
      <point x="741.553" y="1426"/>
      <point x="729.657" y="1380" type="curve" smooth="yes"/>
      <point x="720.605" y="1345" type="line" smooth="yes"/>
      <point x="706.381" y="1290"/>
      <point x="670.106" y="1258"/>
      <point x="620.106" y="1258" type="curve" smooth="yes"/>
      <point x="575.106" y="1258"/>
      <point x="551.83" y="1284"/>
      <point x="562.95" y="1327" type="curve" smooth="yes"/>
      <point x="582.088" y="1401"/>
      <point x="682.122" y="1463"/>
      <point x="799.122" y="1463" type="curve" smooth="yes"/>
      <point x="941.122" y="1463"/>
      <point x="993.415" y="1410"/>
      <point x="973.243" y="1332" type="curve" smooth="yes"/>
      <point x="946.606" y="1229"/>
      <point x="833.089" y="1169"/>
      <point x="652.089" y="1169" type="curve" smooth="yes"/>
    </contour>
  </outline>
</glyph>
<glyph name="circumflexhook" format="2">
  <advance width="920"/>
  <anchor x="420" y="980" name="center"/>
  <outline>
    <contour>
      <point x="517.4505913222" y="1162" type="line"/>
      <point x="70.7270744511" y="962" type="line"/>
      <point x="62.951221698" y="959"/>
      <point x="56.6926041136" y="958"/>
      <point x="53.4684568667" y="961" type="curve"/>
      <point x="51.2443096198" y="964"/>
      <point x="51.7960151259" y="970"/>
      <point x="58.347720632" y="976" type="curve" smooth="yes"/>
      <point x="444.6741982471" y="1333" type="line" smooth="yes"/>
      <point x="455.0017565063" y="1342"/>
      <point x="460.0362268437" y="1346"/>
      <point x="469.0362268437" y="1346" type="curve" smooth="yes"/>
      <point x="478.0362268437" y="1346"/>
      <point x="481.0017565063" y="1342"/>
      <point x="486.6741982471" y="1333" type="curve" smooth="yes"/>
      <point x="688.347720632" y="976" type="line" smooth="yes"/>
      <point x="691.7960151259" y="970"/>
      <point x="690.2443096198" y="964"/>
      <point x="685.4684568667" y="961" type="curve"/>
      <point x="681.6926041136" y="958"/>
      <point x="675.951221698" y="959"/>
      <point x="669.7270744511" y="962" type="curve"/>
      <point x="325.4505913222" y="1162" type="line"/>
    </contour>
    <contour>
      <point x="642.5022067747" y="1197" type="curve" smooth="yes"/>
      <point x="643.7952946965" y="1202"/>
      <point x="645.5711474495" y="1205"/>
      <point x="653.5711474495" y="1205" type="curve" smooth="yes"/>
      <point x="722.5711474495" y="1205"/>
      <point x="779.4330859925" y="1247"/>
      <point x="806.8465499342" y="1353" type="curve" smooth="yes"/>
      <point x="830.8979852793" y="1446"/>
      <point x="818.8461897195" y="1469"/>
      <point x="787.8461897195" y="1469" type="curve" smooth="yes"/>
      <point x="761.8461897195" y="1469"/>
      <point x="739.8979852793" y="1446"/>
      <point x="728.0015763989" y="1400" type="curve" smooth="yes"/>
      <point x="718.9499609465" y="1365" type="line" smooth="yes"/>
      <point x="704.7259938069" y="1310"/>
      <point x="668.4502311075" y="1278"/>
      <point x="618.4502311075" y="1278" type="curve" smooth="yes"/>
      <point x="573.4502311075" y="1278"/>
      <point x="550.1742883008" y="1304"/>
      <point x="561.2948444281" y="1347" type="curve" smooth="yes"/>
      <point x="580.4325456704" y="1421"/>
      <point x="680.4668359005" y="1483"/>
      <point x="797.4668359005" y="1483" type="curve" smooth="yes"/>
      <point x="939.4668359005" y="1483"/>
      <point x="991.7601039296" y="1430"/>
      <point x="971.5879323498" y="1352" type="curve" smooth="yes"/>
      <point x="944.9503211612" y="1249"/>
      <point x="831.4332660998" y="1189"/>
      <point x="650.4332660998" y="1189" type="curve" smooth="yes"/>
      <point x="642.4332660998" y="1189"/>
      <point x="641.2091188529" y="1192"/>
    </contour>
  </outline>
</glyph>
<glyph name="circumflextilde.cap" format="2">
  <advance width="738"/>
  <anchor x="420" y="1062" name="center"/>
  <outline>
    <contour>
      <point x="504.5197121044" y="1132" type="line"/>
      <point x="70.7270744511" y="982" type="line" smooth="yes"/>
      <point x="62.951221698" y="979"/>
      <point x="56.6926041136" y="978"/>
      <point x="53.4684568667" y="981" type="curve"/>
      <point x="51.2443096198" y="984"/>
      <point x="51.7960151259" y="990"/>
      <point x="58.347720632" y="996" type="curve"/>
      <point x="431.7433190293" y="1303" type="line" smooth="yes"/>
      <point x="442.0708772885" y="1312"/>
      <point x="447.1053476259" y="1316"/>
      <point x="456.1053476259" y="1316" type="curve" smooth="yes"/>
      <point x="465.1053476259" y="1316"/>
      <point x="468.0708772885" y="1312"/>
      <point x="473.7433190293" y="1303" type="curve" smooth="yes"/>
      <point x="688.347720632" y="996" type="line"/>
      <point x="691.7960151259" y="990"/>
      <point x="690.2443096198" y="984"/>
      <point x="685.4684568667" y="981" type="curve"/>
      <point x="681.6926041136" y="978"/>
      <point x="675.951221698" y="979"/>
      <point x="669.7270744511" y="982" type="curve"/>
      <point x="312.5197121044" y="1132" type="line"/>
    </contour>
    <contour>
      <point x="553.50184656" y="1333" type="curve" smooth="yes"/>
      <point x="663.50184656" y="1333"/>
      <point x="737.2946643207" y="1425"/>
      <point x="781.7768888299" y="1597" type="curve" smooth="yes"/>
      <point x="783.8458295048" y="1605"/>
      <point x="781.8802998422" y="1609"/>
      <point x="775.8802998422" y="1609" type="curve" smooth="yes"/>
      <point x="769.8802998422" y="1609"/>
      <point x="765.8458295048" y="1605"/>
      <point x="763.7768888299" y="1597" type="curve" smooth="yes"/>
      <point x="743.4150403407" y="1526"/>
      <point x="712.8806600569" y="1493"/>
      <point x="666.8806600569" y="1493" type="curve" smooth="yes"/>
      <point x="596.8806600569" y="1493"/>
      <point x="532.8458295048" y="1605"/>
      <point x="437.8458295048" y="1605" type="curve" smooth="yes"/>
      <point x="327.8458295048" y="1605"/>
      <point x="253.7943941597" y="1512"/>
      <point x="209.5707872348" y="1341" type="curve" smooth="yes"/>
      <point x="207.50184656" y="1333"/>
      <point x="209.4673762225" y="1329"/>
      <point x="215.4673762225" y="1329" type="curve" smooth="yes"/>
      <point x="221.4673762225" y="1329"/>
      <point x="225.50184656" y="1333"/>
      <point x="227.5707872348" y="1341" type="curve" smooth="yes"/>
      <point x="246.9326357241" y="1412"/>
      <point x="277.4670160078" y="1445"/>
      <point x="324.4670160078" y="1445" type="curve" smooth="yes"/>
      <point x="392.4670160078" y="1445"/>
      <point x="459.50184656" y="1333"/>
    </contour>
  </outline>
</glyph>
<glyph name="circumflextilde" format="2">
  <advance width="738"/>
  <anchor x="410" y="997" name="center"/>
  <outline>
    <contour>
      <point x="504.52" y="1112" type="line"/>
      <point x="70.727" y="962" type="line" smooth="yes"/>
      <point x="62.951" y="959"/>
      <point x="56.693" y="958"/>
      <point x="53.468" y="961" type="curve" smooth="yes"/>
      <point x="51.244" y="964"/>
      <point x="51.796" y="970"/>
      <point x="58.348" y="976" type="curve" smooth="yes"/>
      <point x="431.743" y="1283" type="line" smooth="yes"/>
      <point x="442.071" y="1292"/>
      <point x="447.105" y="1296"/>
      <point x="456.105" y="1296" type="curve" smooth="yes"/>
      <point x="465.105" y="1296"/>
      <point x="468.071" y="1292"/>
      <point x="473.743" y="1283" type="curve" smooth="yes"/>
      <point x="688.348" y="976" type="line" smooth="yes"/>
      <point x="691.796" y="970"/>
      <point x="690.244" y="964"/>
      <point x="685.468" y="961" type="curve" smooth="yes"/>
      <point x="681.693" y="958"/>
      <point x="675.951" y="959"/>
      <point x="669.727" y="962" type="curve" smooth="yes"/>
      <point x="312.52" y="1112" type="line"/>
    </contour>
    <contour>
      <point x="392.467" y="1425"/>
      <point x="459.502" y="1313"/>
      <point x="553.502" y="1313" type="curve" smooth="yes"/>
      <point x="663.502" y="1313"/>
      <point x="737.295" y="1405"/>
      <point x="781.777" y="1577" type="curve" smooth="yes"/>
      <point x="783.846" y="1585"/>
      <point x="781.88" y="1589"/>
      <point x="775.88" y="1589" type="curve" smooth="yes"/>
      <point x="769.88" y="1589"/>
      <point x="765.846" y="1585"/>
      <point x="763.777" y="1577" type="curve" smooth="yes"/>
      <point x="743.415" y="1506"/>
      <point x="712.881" y="1473"/>
      <point x="666.881" y="1473" type="curve" smooth="yes"/>
      <point x="596.881" y="1473"/>
      <point x="532.846" y="1585"/>
      <point x="437.846" y="1585" type="curve" smooth="yes"/>
      <point x="327.846" y="1585"/>
      <point x="253.794" y="1492"/>
      <point x="209.571" y="1321" type="curve" smooth="yes"/>
      <point x="207.502" y="1313"/>
      <point x="209.467" y="1309"/>
      <point x="215.467" y="1309" type="curve" smooth="yes"/>
      <point x="221.467" y="1309"/>
      <point x="225.502" y="1313"/>
      <point x="227.571" y="1321" type="curve" smooth="yes"/>
      <point x="246.933" y="1392"/>
      <point x="277.467" y="1425"/>
      <point x="324.467" y="1425" type="curve" smooth="yes"/>
    </contour>
  </outline>
</glyph>
<glyph name="dotaccent.cap" format="2">
  <advance width="467"/>
  <anchor x="255" y="958" name="center"/>
  <outline>
    <contour>
      <point x="223" y="980" type="curve" smooth="yes"/>
      <point x="333" y="980"/>
      <point x="425" y="1049"/>
      <point x="451" y="1150" type="curve" smooth="yes"/>
      <point x="478" y="1253"/>
      <point x="421" y="1322"/>
      <point x="311" y="1322" type="curve" smooth="yes"/>
      <point x="203" y="1322"/>
      <point x="110" y="1252"/>
      <point x="84" y="1150" type="curve" smooth="yes"/>
      <point x="58" y="1049"/>
      <point x="114" y="980"/>
    </contour>
  </outline>
</glyph>
<glyph name="dotbelowcmb" format="2">
  <advance width="447"/>
  <outline>
    <contour>
      <point x="223" y="-411" type="curve" smooth="yes"/>
      <point x="327" y="-411"/>
      <point x="414.8446133206" y="-342"/>
      <point x="440.9649893405" y="-241" type="curve" smooth="yes"/>
      <point x="467.6026005292" y="-138"/>
      <point x="415.4472138497" y="-69"/>
      <point x="311.4472138497" y="-69" type="curve" smooth="yes"/>
      <point x="209.4472138497" y="-69"/>
      <point x="120.3439829448" y="-139"/>
      <point x="93.9649893405" y="-241" type="curve" smooth="yes"/>
      <point x="67.8446133206" y="-342"/>
      <point x="120" y="-411"/>
    </contour>
  </outline>
</glyph>
<glyph name="grave.cap" format="2">
  <advance width="504"/>
  <anchor x="381" y="991" name="center"/>
  <outline>
    <contour>
      <point x="318" y="1226" type="line" smooth="yes"/>
      <point x="295" y="1294"/>
      <point x="252" y="1329"/>
      <point x="197" y="1329" type="curve" smooth="yes"/>
      <point x="126" y="1329"/>
      <point x="65" y="1266"/>
      <point x="52" y="1217" type="curve" smooth="yes"/>
      <point x="28" y="1124"/>
      <point x="92" y="1082"/>
      <point x="158" y="1058" type="curve" smooth="yes"/>
      <point x="380" y="977" type="line" smooth="yes"/>
      <point x="383" y="976"/>
      <point x="390" y="974"/>
      <point x="394" y="979" type="curve" smooth="yes"/>
      <point x="397" y="982"/>
      <point x="397" y="987"/>
      <point x="395" y="991" type="curve" smooth="yes"/>
    </contour>
  </outline>
</glyph>
<glyph name="gravedouble.cap" format="2">
  <advance width="777"/>
  <anchor x="526" y="973" name="center"/>
  <outline>
    <contour>
      <point x="299" y="1226.0" type="line" smooth="yes"/>
      <point x="285" y="1302.0"/>
      <point x="245" y="1341.0"/>
      <point x="189" y="1341.0" type="curve" smooth="yes"/>
      <point x="126" y="1341.0"/>
      <point x="63" y="1293.0"/>
      <point x="47" y="1234.0" type="curve" smooth="yes"/>
      <point x="28" y="1158.0"/>
      <point x="78" y="1110.0"/>
      <point x="137" y="1080.0" type="curve" smooth="yes"/>
      <point x="333" y="979.0" type="line" smooth="yes"/>
      <point x="337" y="977.0"/>
      <point x="341" y="977.0"/>
      <point x="343" y="979.0" type="curve" smooth="yes"/>
      <point x="347" y="982.0"/>
      <point x="346" y="987.0"/>
      <point x="345" y="991.0" type="curve" smooth="yes"/>
    </contour>
    <contour>
      <point x="612" y="1226.0" type="line" smooth="yes"/>
      <point x="598" y="1302.0"/>
      <point x="558" y="1341.0"/>
      <point x="502" y="1341.0" type="curve" smooth="yes"/>
      <point x="439" y="1341.0"/>
      <point x="376" y="1293.0"/>
      <point x="360" y="1234.0" type="curve" smooth="yes"/>
      <point x="341" y="1158.0"/>
      <point x="391" y="1110.0"/>
      <point x="450" y="1080.0" type="curve" smooth="yes"/>
      <point x="646" y="979.0" type="line" smooth="yes"/>
      <point x="650" y="977.0"/>
      <point x="654" y="977.0"/>
      <point x="656" y="979.0" type="curve" smooth="yes"/>
      <point x="660" y="982.0"/>
      <point x="659" y="987.0"/>
      <point x="658" y="991.0" type="curve" smooth="yes"/>
    </contour>
  </outline>
</glyph>
<glyph name="gravedoublecmb" format="2">
  <advance width="736"/>
  <anchor x="526" y="973" name="center"/>
  <outline>
    <contour>
      <point x="371.0613737821" y="1247" type="line" smooth="yes"/>
      <point x="379.5955739585" y="1338"/>
      <point x="347.043688345" y="1390"/>
      <point x="288.1126290198" y="1398" type="curve" smooth="yes"/>
      <point x="211.9229521103" y="1405"/>
      <point x="157.2162201395" y="1352"/>
      <point x="140.5784288434" y="1307" type="curve" smooth="yes"/>
      <point x="113.9579627698" y="1235"/>
      <point x="142.9926132146" y="1181"/>
      <point x="183.1306746717" y="1139" type="curve" smooth="yes"/>
      <point x="331.7863315121" y="983" type="line" smooth="yes"/>
      <point x="335.0104787591" y="980"/>
      <point x="339.7518611747" y="979"/>
      <point x="343.2690963434" y="981" type="curve" smooth="yes"/>
      <point x="348.3035666808" y="985"/>
      <point x="347.0794194339" y="988"/>
      <point x="347.1138897713" y="992" type="curve" smooth="yes"/>
    </contour>
    <contour>
      <point x="684.0613737821" y="1247" type="line" smooth="yes"/>
      <point x="692.5955739585" y="1338"/>
      <point x="661.043688345" y="1390"/>
      <point x="601.1126290198" y="1398" type="curve" smooth="yes"/>
      <point x="525.9229521103" y="1405"/>
      <point x="470.2162201395" y="1352"/>
      <point x="453.5784288434" y="1307" type="curve" smooth="yes"/>
      <point x="427.9579627698" y="1235"/>
      <point x="455.9926132146" y="1181"/>
      <point x="497.1306746717" y="1139" type="curve" smooth="yes"/>
      <point x="645.7863315121" y="983" type="line" smooth="yes"/>
      <point x="649.0104787591" y="980"/>
      <point x="652.7518611747" y="979"/>
      <point x="656.2690963434" y="981" type="curve" smooth="yes"/>
      <point x="662.3035666808" y="985"/>
      <point x="660.0794194339" y="988"/>
      <point x="660.1138897713" y="992" type="curve" smooth="yes"/>
    </contour>
  </outline>
</glyph>
<glyph name="hookcmb" format="2">
  <anchor x="333" y="957" name="center"/>
  <outline>
    <contour>
      <point x="194" y="980"/>
      <point x="191.776" y="983"/>
      <point x="193.069" y="988" type="curve" smooth="yes"/>
      <point x="194.103" y="992"/>
      <point x="197.138" y="996"/>
      <point x="204.138" y="996" type="curve" smooth="yes"/>
      <point x="286.138" y="996"/>
      <point x="355.62" y="1052"/>
      <point x="393.379" y="1198" type="curve" smooth="yes"/>
      <point x="427.258" y="1329"/>
      <point x="414.275" y="1360"/>
      <point x="377.275" y="1360" type="curve" smooth="yes"/>
      <point x="347.275" y="1360"/>
      <point x="321.292" y="1333"/>
      <point x="306.551" y="1276" type="curve" smooth="yes"/>
      <point x="289.741" y="1211" type="line" smooth="yes"/>
      <point x="272.931" y="1146"/>
      <point x="230.362" y="1109"/>
      <point x="170.362" y="1109" type="curve" smooth="yes"/>
      <point x="118.362" y="1109"/>
      <point x="92.413" y="1144"/>
      <point x="107.413" y="1202" type="curve" smooth="yes"/>
      <point x="131.982" y="1297"/>
      <point x="250.895" y="1374"/>
      <point x="388.895" y="1374" type="curve" smooth="yes"/>
      <point x="555.895" y="1374"/>
      <point x="614.275" y="1302"/>
      <point x="586.861" y="1196" type="curve" smooth="yes"/>
      <point x="551.689" y="1060"/>
      <point x="416" y="980"/>
      <point x="201" y="980" type="curve" smooth="yes"/>
    </contour>
  </outline>
</glyph>
<glyph name="hungarumlaut.cap" format="2">
  <advance width="777"/>
  <anchor x="273" y="963" name="center"/>
  <outline>
    <contour>
      <point x="225" y="1226" type="curve" smooth="yes"/>
      <point x="57" y="991" type="line" smooth="yes"/>
      <point x="54" y="987"/>
      <point x="51" y="982"/>
      <point x="53" y="979" type="curve" smooth="yes"/>
      <point x="55" y="977"/>
      <point x="59" y="977"/>
      <point x="63" y="979" type="curve" smooth="yes"/>
      <point x="313" y="1080" type="line" smooth="yes"/>
      <point x="386" y="1110"/>
      <point x="462" y="1158"/>
      <point x="481" y="1234" type="curve" smooth="yes"/>
      <point x="497" y="1293"/>
      <point x="458" y="1341"/>
      <point x="395" y="1341" type="curve" smooth="yes"/>
      <point x="339" y="1341"/>
      <point x="279" y="1302"/>
    </contour>
    <contour>
      <point x="538" y="1226" type="curve" smooth="yes"/>
      <point x="370" y="991" type="line" smooth="yes"/>
      <point x="367" y="987"/>
      <point x="364" y="982"/>
      <point x="366" y="979" type="curve" smooth="yes"/>
      <point x="368" y="977"/>
      <point x="372" y="977"/>
      <point x="376" y="979" type="curve" smooth="yes"/>
      <point x="626" y="1080" type="line" smooth="yes"/>
      <point x="699" y="1110"/>
      <point x="775" y="1158"/>
      <point x="794" y="1234" type="curve" smooth="yes"/>
      <point x="810" y="1293"/>
      <point x="771" y="1341"/>
      <point x="708" y="1341" type="curve" smooth="yes"/>
      <point x="652" y="1341"/>
      <point x="592" y="1302"/>
    </contour>
  </outline>
</glyph>
<glyph name="k.alt" format="2">
  <advance width="1137"/>
  <anchor x="441" y="980" name="center"/>
  <outline>
    <contour>
      <point x="315" y="1220" type="line" smooth="yes"/>
      <point x="331" y="1281"/>
      <point x="328" y="1312"/>
      <point x="302" y="1312" type="curve" smooth="yes"/>
      <point x="276" y="1312"/>
      <point x="248" y="1294"/>
      <point x="190" y="1228" type="curve" smooth="yes"/>
      <point x="183" y="1220"/>
      <point x="178" y="1216"/>
      <point x="172" y="1216" type="curve" smooth="yes"/>
      <point x="166" y="1216"/>
      <point x="169" y="1224"/>
      <point x="174" y="1232" type="curve" smooth="yes"/>
      <point x="254" y="1370"/>
      <point x="399" y="1470"/>
      <point x="540" y="1470" type="curve" smooth="yes"/>
      <point x="663" y="1470"/>
      <point x="719" y="1403"/>
      <point x="674" y="1240" type="curve" smooth="yes"/>
      <point x="483" y="551" type="line"/>
      <point x="478" y="553" type="line"/>
      <point x="567" y="767"/>
      <point x="739" y="916"/>
      <point x="940" y="916" type="curve" smooth="yes"/>
      <point x="1060" y="916"/>
      <point x="1158" y="847"/>
      <point x="1137" y="701" type="curve" smooth="yes"/>
      <point x="1112" y="525"/>
      <point x="921" y="422"/>
      <point x="410" y="350" type="curve"/>
      <point x="407" y="371" type="line"/>
      <point x="636" y="399"/>
      <point x="769" y="503"/>
      <point x="802" y="694" type="curve" smooth="yes"/>
      <point x="814" y="764"/>
      <point x="783" y="806"/>
      <point x="745" y="806" type="curve" smooth="yes"/>
      <point x="646" y="806"/>
      <point x="506" y="648"/>
      <point x="432" y="362" type="curve" smooth="yes"/>
      <point x="407" y="265"/>
      <point x="404" y="202"/>
      <point x="404" y="152" type="curve" smooth="yes"/>
      <point x="404" y="120"/>
      <point x="424" y="106"/>
      <point x="424" y="78" type="curve" smooth="yes"/>
      <point x="424" y="18"/>
      <point x="317" y="-20"/>
      <point x="122" y="-20" type="curve" smooth="yes"/>
      <point x="3" y="-20"/>
      <point x="-8" y="15"/>
      <point x="19" y="114" type="curve" smooth="yes"/>
    </contour>
    <contour>
      <point x="518" y="375" type="line"/>
      <point x="819" y="465" type="line"/>
      <point x="899" y="215" type="line" smooth="yes"/>
      <point x="914" y="168"/>
      <point x="938" y="144"/>
      <point x="970" y="144" type="curve" smooth="yes"/>
      <point x="1004" y="144"/>
      <point x="1023" y="160"/>
      <point x="1067" y="219" type="curve" smooth="yes"/>
      <point x="1070" y="223"/>
      <point x="1075" y="225"/>
      <point x="1079" y="223" type="curve" smooth="yes"/>
      <point x="1083" y="221"/>
      <point x="1085" y="216"/>
      <point x="1082" y="210" type="curve" smooth="yes"/>
      <point x="1003" y="41"/>
      <point x="904" y="-20"/>
      <point x="758" y="-20" type="curve" smooth="yes"/>
      <point x="657" y="-20"/>
      <point x="591" y="32"/>
      <point x="567" y="146" type="curve" smooth="yes"/>
    </contour>
  </outline>
</glyph>
<glyph name="macron.cap" format="2">
  <advance width="635"/>
  <anchor x="324" y="995" name="center"/>
  <outline>
    <contour>
      <point x="54" y="1105" type="curve" smooth="yes"/>
      <point x="43" y="1060"/>
      <point x="43" y="1050"/>
      <point x="67" y="1050" type="curve" smooth="yes"/>
      <point x="548" y="1050" type="line" smooth="yes"/>
      <point x="572" y="1050"/>
      <point x="578" y="1060"/>
      <point x="589" y="1106" type="curve" smooth="yes"/>
      <point x="602" y="1155"/>
      <point x="601" y="1161"/>
      <point x="577" y="1161" type="curve" smooth="yes"/>
      <point x="96" y="1161" type="line" smooth="yes"/>
      <point x="72" y="1161"/>
      <point x="66" y="1151"/>
    </contour>
  </outline>
</glyph>
<glyph name="ring.cap" format="2">
  <advance width="565"/>
  <anchor x="317" y="943" name="center"/>
  <outline>
    <contour>
      <point x="282" y="970" type="curve" smooth="yes"/>
      <point x="417" y="970"/>
      <point x="533.1032309049" y="1040"/>
      <point x="563.8787234433" y="1159" type="curve" smooth="yes"/>
      <point x="594.3955983973" y="1277"/>
      <point x="514.4988293022" y="1347"/>
      <point x="379.4988293022" y="1347" type="curve" smooth="yes"/>
      <point x="248.4988293022" y="1347"/>
      <point x="130.4300687347" y="1281"/>
      <point x="98.8787234433" y="1159" type="curve" smooth="yes"/>
      <point x="67.0687605675" y="1036"/>
      <point x="151" y="970"/>
    </contour>
    <contour>
      <point x="373.9989193558" y="1318" type="curve" smooth="yes"/>
      <point x="411.9989193558" y="1318"/>
      <point x="424.6197456442" y="1274"/>
      <point x="394.8787234433" y="1159" type="curve" smooth="yes"/>
      <point x="365.9135539954" y="1047"/>
      <point x="329.4999099463" y="999"/>
      <point x="291.4999099463" y="999" type="curve" smooth="yes"/>
      <point x="252.4999099463" y="999"/>
      <point x="238.3963188267" y="1045"/>
      <point x="267.8787234433" y="1159" type="curve" smooth="yes"/>
      <point x="298.1369808129" y="1276"/>
      <point x="334.9989193558" y="1318"/>
    </contour>
  </outline>
</glyph>
<glyph name="ringacute" format="2">
  <advance width="580"/>
  <anchor x="317" y="943" name="center"/>
  <outline>
    <contour>
      <point x="282" y="970" type="curve" smooth="yes"/>
      <point x="417" y="970"/>
      <point x="533.103" y="1040"/>
      <point x="563.879" y="1159" type="curve" smooth="yes"/>
      <point x="594.396" y="1277"/>
      <point x="514.499" y="1347"/>
      <point x="379.499" y="1347" type="curve" smooth="yes"/>
      <point x="248.499" y="1347"/>
      <point x="130.43" y="1281"/>
      <point x="98.879" y="1159" type="curve" smooth="yes"/>
      <point x="67.069" y="1036"/>
      <point x="151" y="970"/>
    </contour>
    <contour>
      <point x="373.999" y="1318" type="curve" smooth="yes"/>
      <point x="411.999" y="1318"/>
      <point x="424.62" y="1274"/>
      <point x="394.879" y="1159" type="curve" smooth="yes"/>
      <point x="365.914" y="1047"/>
      <point x="329.5" y="999"/>
      <point x="291.5" y="999" type="curve" smooth="yes"/>
      <point x="252.5" y="999"/>
      <point x="238.396" y="1045"/>
      <point x="267.879" y="1159" type="curve" smooth="yes"/>
      <point x="298.137" y="1276"/>
      <point x="334.999" y="1318"/>
    </contour>
    <contour>
      <point x="452.446" y="1602" type="curve" smooth="yes"/>
      <point x="290.068" y="1384" type="line" smooth="yes"/>
      <point x="287.033" y="1380"/>
      <point x="283.74" y="1375"/>
      <point x="285.706" y="1371" type="curve" smooth="yes"/>
      <point x="287.93" y="1368"/>
      <point x="291.93" y="1368"/>
      <point x="297.447" y="1370" type="curve" smooth="yes"/>
      <point x="534.24" y="1462" type="line" smooth="yes"/>
      <point x="598.705" y="1487"/>
      <point x="660.274" y="1524"/>
      <point x="690.119" y="1593" type="curve" smooth="yes"/>
      <point x="709.239" y="1636"/>
      <point x="700.239" y="1694"/>
      <point x="630.86" y="1708" type="curve" smooth="yes"/>
      <point x="570.705" y="1719"/>
      <point x="512.136" y="1682"/>
    </contour>
  </outline>
</glyph>
<glyph name="ringcmb" format="2">
  <anchor x="317" y="943" name="center"/>
  <outline>
    <contour>
      <point x="282" y="970" type="curve" smooth="yes"/>
      <point x="417" y="970"/>
      <point x="533.103" y="1040"/>
      <point x="563.879" y="1159" type="curve" smooth="yes"/>
      <point x="594.396" y="1277"/>
      <point x="514.499" y="1347"/>
      <point x="379.499" y="1347" type="curve" smooth="yes"/>
      <point x="248.499" y="1347"/>
      <point x="130.43" y="1281"/>
      <point x="98.879" y="1159" type="curve" smooth="yes"/>
      <point x="67.069" y="1036"/>
      <point x="151" y="970"/>
    </contour>
    <contour>
      <point x="373.999" y="1318" type="curve" smooth="yes"/>
      <point x="411.999" y="1318"/>
      <point x="424.62" y="1274"/>
      <point x="394.879" y="1159" type="curve" smooth="yes"/>
      <point x="365.914" y="1047"/>
      <point x="329.5" y="999"/>
      <point x="291.5" y="999" type="curve" smooth="yes"/>
      <point x="252.5" y="999"/>
      <point x="238.396" y="1045"/>
      <point x="267.879" y="1159" type="curve" smooth="yes"/>
      <point x="298.137" y="1276"/>
      <point x="334.999" y="1318"/>
    </contour>
  </outline>
</glyph>
<glyph name="tilde.cap" format="2">
  <advance width="646"/>
  <outline>
    <contour>
      <point x="244" y="1093"/>
      <point x="295" y="990"/>
      <point x="417" y="990" type="curve" smooth="yes"/>
      <point x="552" y="990"/>
      <point x="622" y="1086"/>
      <point x="668" y="1264" type="curve" smooth="yes"/>
      <point x="670" y="1272"/>
      <point x="668" y="1276"/>
      <point x="662" y="1276" type="curve" smooth="yes"/>
      <point x="656" y="1276"/>
      <point x="652" y="1272"/>
      <point x="650" y="1264" type="curve" smooth="yes"/>
      <point x="632" y="1200"/>
      <point x="601" y="1170"/>
      <point x="551" y="1170" type="curve" smooth="yes"/>
      <point x="478" y="1170"/>
      <point x="426" y="1273"/>
      <point x="304" y="1273" type="curve" smooth="yes"/>
      <point x="169" y="1273"/>
      <point x="99" y="1176"/>
      <point x="53" y="998" type="curve" smooth="yes"/>
      <point x="51" y="990"/>
      <point x="53" y="986"/>
      <point x="59" y="986" type="curve" smooth="yes"/>
      <point x="65" y="986"/>
      <point x="69" y="990"/>
      <point x="71" y="998" type="curve" smooth="yes"/>
      <point x="89" y="1063"/>
      <point x="121" y="1093"/>
      <point x="171" y="1093" type="curve" smooth="yes"/>
    </contour>
  </outline>
</glyph>
<glyph name="tildecmb" format="2">
  <advance width="646"/>
  <anchor x="322" y="995" name="center"/>
  <outline>
    <contour>
      <point x="417.0344703374" y="990" type="curve" smooth="yes"/>
      <point x="552.0344703374" y="990"/>
      <point x="624.7065518635" y="1097"/>
      <point x="675.6542159816" y="1294" type="curve" smooth="yes"/>
      <point x="677.7231566565" y="1302"/>
      <point x="675.7576269939" y="1306"/>
      <point x="669.7576269939" y="1306" type="curve" smooth="yes"/>
      <point x="663.7576269939" y="1306"/>
      <point x="659.7231566565" y="1302"/>
      <point x="657.6542159816" y="1294" type="curve" smooth="yes"/>
      <point x="633.6717213114" y="1209"/>
      <point x="600.5856355215" y="1170"/>
      <point x="550.5856355215" y="1170" type="curve" smooth="yes"/>
      <point x="477.5856355215" y="1170"/>
      <point x="433.7231566565" y="1302"/>
      <point x="311.7231566565" y="1302" type="curve" smooth="yes"/>
      <point x="176.7231566565" y="1302"/>
      <point x="104.0510751304" y="1195"/>
      <point x="53.1034110123" y="998" type="curve" smooth="yes"/>
      <point x="51.0344703374" y="990"/>
      <point x="53" y="986"/>
      <point x="59" y="986" type="curve" smooth="yes"/>
      <point x="65" y="986"/>
      <point x="69.0344703374" y="990"/>
      <point x="71.1034110123" y="998" type="curve" smooth="yes"/>
      <point x="95.0859056825" y="1083"/>
      <point x="128.1719914724" y="1122"/>
      <point x="178.1719914724" y="1122" type="curve" smooth="yes"/>
      <point x="251.1719914724" y="1122"/>
      <point x="295.0344703374" y="990"/>
    </contour>
  </outline>
</glyph>
<glyph name="turnedcommaabovecmb" format="2">
  <advance width="375"/>
  <outline>
    <contour>
      <point x="145.3434493978" y="1351" type="curve" smooth="yes"/>
      <point x="54.775319206" y="1082" type="line" smooth="yes"/>
      <point x="53.4822312842" y="1077"/>
      <point x="50.1891433625" y="1072"/>
      <point x="53.154673025" y="1068" type="curve" smooth="yes"/>
      <point x="56.8960554407" y="1067"/>
      <point x="62.8960554407" y="1067"/>
      <point x="66.6719081938" y="1070" type="curve" smooth="yes"/>
      <point x="297.5161612996" y="1255" type="line" smooth="yes"/>
      <point x="359.4470405174" y="1305"/>
      <point x="413.7054779944" y="1364"/>
      <point x="418.1017968211" y="1439" type="curve" smooth="yes"/>
      <point x="420.2568232858" y="1486"/>
      <point x="383.7049376723" y="1538"/>
      <point x="300.0498211539" y="1520" type="curve" smooth="yes"/>
      <point x="234.205027726" y="1509"/>
      <point x="175.9121199116" y="1446"/>
    </contour>
  </outline>
</glyph>
<glyph name="v.alt" format="2">
  <advance width="935"/>
  <outline>
    <contour>
      <point x="128" y="128" type="curve" smooth="yes"/>
      <point x="143.1506506618" y="280.5165499954"/>
      <point x="155.7794788654" y="421.9752150366"/>
      <point x="178" y="626" type="curve" smooth="yes"/>
      <point x="185" y="689"/>
      <point x="170" y="704"/>
      <point x="151" y="704" type="curve" smooth="yes"/>
      <point x="120" y="704"/>
      <point x="74" y="644"/>
      <point x="45" y="580" type="curve" smooth="yes"/>
      <point x="42" y="573"/>
      <point x="40" y="567"/>
      <point x="32" y="568" type="curve" smooth="yes"/>
      <point x="26" y="569"/>
      <point x="24" y="575"/>
      <point x="27" y="583" type="curve" smooth="yes"/>
      <point x="95" y="762"/>
      <point x="288" y="916"/>
      <point x="428" y="916" type="curve" smooth="yes"/>
      <point x="529" y="916"/>
      <point x="551" y="840"/>
      <point x="540" y="732" type="curve" smooth="yes"/>
      <point x="510.7655587706" y="448.7283453293"/>
      <point x="495.1134572323" y="271.2561336431"/>
      <point x="481" y="115" type="curve" smooth="yes"/>
      <point x="479" y="94"/>
      <point x="486" y="81"/>
      <point x="503" y="81" type="curve" smooth="yes"/>
      <point x="588" y="81"/>
      <point x="813" y="313"/>
      <point x="831" y="464" type="curve" smooth="yes"/>
      <point x="836.9968719313" y="527.9666339337"/>
      <point x="803.5991443853" y="549.3181168081"/>
      <point x="755" y="576" type="curve" smooth="yes"/>
      <point x="667" y="625"/>
      <point x="643" y="670"/>
      <point x="649" y="742" type="curve" smooth="yes"/>
      <point x="657.9971409709" y="827.9726803888"/>
      <point x="731.4702380952" y="916"/>
      <point x="812" y="916" type="curve" smooth="yes"/>
      <point x="906" y="916"/>
      <point x="957" y="828"/>
      <point x="942" y="680" type="curve" smooth="yes"/>
      <point x="918" y="450"/>
      <point x="681" y="-20"/>
      <point x="246" y="-20" type="curve" smooth="yes"/>
      <point x="157" y="-20"/>
      <point x="119" y="34"/>
    </contour>
  </outline>
</glyph>
<glyph name="w.alt" format="2">
  <advance width="1491"/>
  <anchor x="938" y="1013" name="center"/>
  <outline>
    <contour>
      <point x="142" y="128" type="curve" smooth="yes"/>
      <point x="133" y="34"/>
      <point x="166" y="-20"/>
      <point x="285" y="-20" type="curve" smooth="yes"/>
      <point x="496" y="-20"/>
      <point x="656" y="78"/>
      <point x="732" y="286" type="curve"/>
      <point x="712" y="303" type="line"/>
      <point x="707" y="253"/>
      <point x="702" y="188"/>
      <point x="699" y="138" type="curve" smooth="yes"/>
      <point x="693" y="25"/>
      <point x="749" y="-20"/>
      <point x="843" y="-20" type="curve" smooth="yes"/>
      <point x="1233" y="-20"/>
      <point x="1477" y="450"/>
      <point x="1493" y="682" type="curve" smooth="yes"/>
      <point x="1503" y="829"/>
      <point x="1447" y="916"/>
      <point x="1361" y="916" type="curve" smooth="yes"/>
      <point x="1281.47" y="916"/>
      <point x="1207.998" y="827.978"/>
      <point x="1200" y="742" type="curve" smooth="yes"/>
      <point x="1193" y="670"/>
      <point x="1218" y="624"/>
      <point x="1306" y="576" type="curve" smooth="yes"/>
      <point x="1358.608" y="547.305"/>
      <point x="1394.997" y="527.969"/>
      <point x="1389" y="464" type="curve" smooth="yes"/>
      <point x="1375" y="317"/>
      <point x="1148" y="81"/>
      <point x="1079" y="81" type="curve" smooth="yes"/>
      <point x="1063" y="81"/>
      <point x="1057" y="97"/>
      <point x="1058" y="122" type="curve" smooth="yes"/>
      <point x="1070.093" y="352.776"/>
      <point x="1090.989" y="649.815"/>
      <point x="1098" y="770" type="curve" smooth="yes"/>
      <point x="1103" y="862"/>
      <point x="1074" y="916"/>
      <point x="993" y="916" type="curve" smooth="yes"/>
      <point x="846" y="916"/>
      <point x="683" y="833"/>
      <point x="683" y="756" type="curve" smooth="yes"/>
      <point x="683" y="718"/>
      <point x="696" y="690"/>
      <point x="704" y="660" type="curve" smooth="yes"/>
      <point x="725.081" y="578.689"/>
      <point x="736.207" y="538.504"/>
      <point x="726" y="415" type="curve" smooth="yes"/>
      <point x="710" y="176"/>
      <point x="575" y="81"/>
      <point x="520" y="81" type="curve" smooth="yes"/>
      <point x="500" y="81"/>
      <point x="493" y="94"/>
      <point x="495" y="116" type="curve" smooth="yes"/>
      <point x="508.106" y="273.268"/>
      <point x="524.953" y="435.523"/>
      <point x="554" y="732" type="curve" smooth="yes"/>
      <point x="565" y="840"/>
      <point x="543" y="916"/>
      <point x="442" y="916" type="curve" smooth="yes"/>
      <point x="302" y="916"/>
      <point x="109" y="762"/>
      <point x="41" y="583" type="curve" smooth="yes"/>
      <point x="38" y="575"/>
      <point x="40" y="568"/>
      <point x="48" y="568" type="curve" smooth="yes"/>
      <point x="53" y="568"/>
      <point x="56" y="573"/>
      <point x="59" y="580" type="curve" smooth="yes"/>
      <point x="88" y="644"/>
      <point x="134" y="704"/>
      <point x="165" y="704" type="curve" smooth="yes"/>
      <point x="184" y="704"/>
      <point x="199" y="690"/>
      <point x="192" y="626" type="curve" smooth="yes"/>
      <point x="170.958" y="421.594"/>
      <point x="157.151" y="280.517"/>
    </contour>
  </outline>
</glyph>
